Néo-castel.ufo
<glyph name="exclam" format="2">
	<advance width="320"/>
	<unicode hex="0021"/>
	<note>
		exclam
	</note>
	<outline>
		<contour>
			<point x="192" y="32" type="curve" smooth="yes"/>
			<point x="192" y="51"/>
			<point x="206" y="64"/>
			<point x="224" y="64" type="curve" smooth="yes"/>
			<point x="242" y="64"/>
			<point x="256" y="78"/>
			<point x="256" y="96" type="curve" smooth="yes"/>
			<point x="256" y="114"/>
			<point x="240" y="128"/>
			<point x="220" y="128" type="curve" smooth="yes"/>
			<point x="100" y="128" type="line" smooth="yes"/>
			<point x="80" y="128"/>
			<point x="64" y="112"/>
			<point x="64" y="92" type="curve" smooth="yes"/>
			<point x="64" y="36" type="line" smooth="yes"/>
			<point x="64" y="16"/>
			<point x="80" y="0"/>
			<point x="100" y="0" type="curve" smooth="yes"/>
			<point x="156" y="0" type="line" smooth="yes"/>
			<point x="176" y="0"/>
			<point x="192" y="14"/>
		</contour>
		<contour>
			<point x="192" y="224" type="curve" smooth="yes"/>
			<point x="192" y="243"/>
			<point x="206" y="256"/>
			<point x="224" y="256" type="curve" smooth="yes"/>
			<point x="242" y="256"/>
			<point x="256" y="270"/>
			<point x="256" y="288" type="curve" smooth="yes"/>
			<point x="256" y="306"/>
			<point x="242" y="320"/>
			<point x="224" y="320" type="curve" smooth="yes"/>
			<point x="206" y="320"/>
			<point x="192" y="336"/>
			<point x="192" y="356" type="curve" smooth="yes"/>
			<point x="192" y="668" type="line" smooth="yes"/>
			<point x="192" y="688"/>
			<point x="178" y="704"/>
			<point x="160" y="704" type="curve" smooth="yes"/>
			<point x="142" y="704"/>
			<point x="128" y="690"/>
			<point x="128" y="672" type="curve" smooth="yes"/>
			<point x="128" y="654"/>
			<point x="114" y="640"/>
			<point x="96" y="640" type="curve" smooth="yes"/>
			<point x="78" y="640"/>
			<point x="64" y="626"/>
			<point x="64" y="608" type="curve" smooth="yes"/>
			<point x="64" y="590"/>
			<point x="50" y="576"/>
			<point x="32" y="576" type="curve" smooth="yes"/>
			<point x="14" y="576"/>
			<point x="0" y="562"/>
			<point x="0" y="544" type="curve" smooth="yes"/>
			<point x="0" y="526"/>
			<point x="14" y="512"/>
			<point x="32" y="512" type="curve" smooth="yes"/>
			<point x="50" y="512"/>
			<point x="64" y="496"/>
			<point x="64" y="476" type="curve" smooth="yes"/>
			<point x="64" y="228" type="line" smooth="yes"/>
			<point x="64" y="208"/>
			<point x="80" y="192"/>
			<point x="100" y="192" type="curve" smooth="yes"/>
			<point x="156" y="192" type="line" smooth="yes"/>
			<point x="176" y="192"/>
			<point x="192" y="206"/>
		</contour>
	</outline>
</glyph>
<glyph name="quotedbl" format="2">
	<advance width="512"/>
	<unicode hex="0022"/>
	<note>
		quotedbl
	</note>
	<outline>
		<contour>
			<point x="384" y="416" type="curve" smooth="yes"/>
			<point x="384" y="448" type="line"/>
			<point x="416" y="448" type="line" smooth="yes"/>
			<point x="434" y="448"/>
			<point x="448" y="464"/>
			<point x="448" y="484" type="curve" smooth="yes"/>
			<point x="448" y="668" type="line" smooth="yes"/>
			<point x="448" y="688"/>
			<point x="432" y="704"/>
			<point x="412" y="704" type="curve" smooth="yes"/>
			<point x="356" y="704" type="line" smooth="yes"/>
			<point x="336" y="704"/>
			<point x="320" y="688"/>
			<point x="320" y="668" type="curve" smooth="yes"/>
			<point x="320" y="640" type="line"/>
			<point x="288" y="640" type="line" smooth="yes"/>
			<point x="270" y="640"/>
			<point x="256" y="626"/>
			<point x="256" y="608" type="curve" smooth="yes"/>
			<point x="256" y="590"/>
			<point x="272" y="576"/>
			<point x="292" y="576" type="curve" smooth="yes"/>
			<point x="320" y="576" type="line"/>
			<point x="320" y="420" type="line" smooth="yes"/>
			<point x="320" y="400"/>
			<point x="334" y="384"/>
			<point x="352" y="384" type="curve" smooth="yes"/>
			<point x="370" y="384"/>
			<point x="384" y="398"/>
		</contour>
		<contour>
			<point x="128" y="416" type="curve" smooth="yes"/>
			<point x="128" y="448" type="line"/>
			<point x="160" y="448" type="line" smooth="yes"/>
			<point x="178" y="448"/>
			<point x="192" y="464"/>
			<point x="192" y="484" type="curve" smooth="yes"/>
			<point x="192" y="668" type="line" smooth="yes"/>
			<point x="192" y="688"/>
			<point x="176" y="704"/>
			<point x="156" y="704" type="curve" smooth="yes"/>
			<point x="100" y="704" type="line" smooth="yes"/>
			<point x="80" y="704"/>
			<point x="64" y="688"/>
			<point x="64" y="668" type="curve" smooth="yes"/>
			<point x="64" y="640" type="line"/>
			<point x="32" y="640" type="line" smooth="yes"/>
			<point x="14" y="640"/>
			<point x="0" y="626"/>
			<point x="0" y="608" type="curve" smooth="yes"/>
			<point x="0" y="590"/>
			<point x="16" y="576"/>
			<point x="36" y="576" type="curve" smooth="yes"/>
			<point x="64" y="576" type="line"/>
			<point x="64" y="420" type="line" smooth="yes"/>
			<point x="64" y="400"/>
			<point x="78" y="384"/>
			<point x="96" y="384" type="curve" smooth="yes"/>
			<point x="114" y="384"/>
			<point x="128" y="398"/>
		</contour>
	</outline>
</glyph>
<glyph name="numbersign" format="2">
	<advance width="704"/>
	<unicode hex="0023"/>
	<note>
		numbersign
	</note>
	<outline>
		<contour>
			<point x="448" y="32" type="curve" smooth="yes"/>
			<point x="448" y="64" type="line"/>
			<point x="480" y="64" type="line" smooth="yes"/>
			<point x="498" y="64"/>
			<point x="512" y="80"/>
			<point x="512" y="100" type="curve" smooth="yes"/>
			<point x="512" y="192" type="line"/>
			<point x="604" y="192" type="line" smooth="yes"/>
			<point x="624" y="192"/>
			<point x="640" y="206"/>
			<point x="640" y="224" type="curve" smooth="yes"/>
			<point x="640" y="242"/>
			<point x="624" y="256"/>
			<point x="604" y="256" type="curve" smooth="yes"/>
			<point x="512" y="256" type="line"/>
			<point x="512" y="384" type="line"/>
			<point x="604" y="384" type="line" smooth="yes"/>
			<point x="624" y="384"/>
			<point x="640" y="398"/>
			<point x="640" y="416" type="curve" smooth="yes"/>
			<point x="640" y="434"/>
			<point x="624" y="448"/>
			<point x="604" y="448" type="curve" smooth="yes"/>
			<point x="512" y="448" type="line"/>
			<point x="512" y="604" type="line" smooth="yes"/>
			<point x="512" y="624"/>
			<point x="498" y="640"/>
			<point x="480" y="640" type="curve" smooth="yes"/>
			<point x="462" y="640"/>
			<point x="448" y="624"/>
			<point x="448" y="604" type="curve" smooth="yes"/>
			<point x="448" y="576" type="line"/>
			<point x="416" y="576" type="line" smooth="yes"/>
			<point x="398" y="576"/>
			<point x="384" y="560"/>
			<point x="384" y="540" type="curve" smooth="yes"/>
			<point x="384" y="448" type="line"/>
			<point x="256" y="448" type="line"/>
			<point x="256" y="604" type="line" smooth="yes"/>
			<point x="256" y="624"/>
			<point x="242" y="640"/>
			<point x="224" y="640" type="curve" smooth="yes"/>
			<point x="206" y="640"/>
			<point x="192" y="624"/>
			<point x="192" y="604" type="curve" smooth="yes"/>
			<point x="192" y="576" type="line"/>
			<point x="160" y="576" type="line" smooth="yes"/>
			<point x="142" y="576"/>
			<point x="128" y="560"/>
			<point x="128" y="540" type="curve" smooth="yes"/>
			<point x="128" y="448" type="line"/>
			<point x="36" y="448" type="line" smooth="yes"/>
			<point x="16" y="448"/>
			<point x="0" y="434"/>
			<point x="0" y="416" type="curve" smooth="yes"/>
			<point x="0" y="398"/>
			<point x="16" y="384"/>
			<point x="36" y="384" type="curve" smooth="yes"/>
			<point x="128" y="384" type="line"/>
			<point x="128" y="256" type="line"/>
			<point x="36" y="256" type="line" smooth="yes"/>
			<point x="16" y="256"/>
			<point x="0" y="242"/>
			<point x="0" y="224" type="curve" smooth="yes"/>
			<point x="0" y="206"/>
			<point x="16" y="192"/>
			<point x="36" y="192" type="curve" smooth="yes"/>
			<point x="128" y="192" type="line"/>
			<point x="128" y="36" type="line" smooth="yes"/>
			<point x="128" y="16"/>
			<point x="142" y="0"/>
			<point x="160" y="0" type="curve" smooth="yes"/>
			<point x="178" y="0"/>
			<point x="192" y="16"/>
			<point x="192" y="36" type="curve" smooth="yes"/>
			<point x="192" y="64" type="line"/>
			<point x="224" y="64" type="line" smooth="yes"/>
			<point x="242" y="64"/>
			<point x="256" y="80"/>
			<point x="256" y="100" type="curve" smooth="yes"/>
			<point x="256" y="192" type="line"/>
			<point x="384" y="192" type="line"/>
			<point x="384" y="36" type="line" smooth="yes"/>
			<point x="384" y="16"/>
			<point x="398" y="0"/>
			<point x="416" y="0" type="curve" smooth="yes"/>
			<point x="434" y="0"/>
			<point x="448" y="14"/>
		</contour>
		<contour>
			<point x="256" y="256" type="line"/>
			<point x="256" y="384" type="line"/>
			<point x="384" y="384" type="line"/>
			<point x="384" y="256" type="line"/>
		</contour>
	</outline>
</glyph>
<glyph name="dollar" format="2">
	<advance width="576"/>
	<unicode hex="0024"/>
	<note>
		dollar
	</note>
	<outline>
		<contour>
			<point x="256" y="-92" type="curve" smooth="yes"/>
			<point x="256" y="-36" type="line" smooth="yes"/>
			<point x="256" y="-16"/>
			<point x="272" y="0"/>
			<point x="292" y="0" type="curve" smooth="yes"/>
			<point x="348" y="0" type="line" smooth="yes"/>
			<point x="368" y="0"/>
			<point x="384" y="14"/>
			<point x="384" y="32" type="curve" smooth="yes"/>
			<point x="384" y="50"/>
			<point x="368" y="64"/>
			<point x="348" y="64" type="curve" smooth="yes"/>
			<point x="292" y="64" type="line" smooth="yes"/>
			<point x="272" y="64"/>
			<point x="256" y="80"/>
			<point x="256" y="100" type="curve" smooth="yes"/>
			<point x="256" y="284" type="line" smooth="yes"/>
			<point x="256" y="304"/>
			<point x="270" y="320"/>
			<point x="288" y="320" type="curve" smooth="yes"/>
			<point x="306" y="320"/>
			<point x="320" y="306"/>
			<point x="320" y="288" type="curve" smooth="yes"/>
			<point x="320" y="270"/>
			<point x="334" y="256"/>
			<point x="352" y="256" type="curve" smooth="yes"/>
			<point x="370" y="256"/>
			<point x="384" y="240"/>
			<point x="384" y="220" type="curve" smooth="yes"/>
			<point x="384" y="100" type="line" smooth="yes"/>
			<point x="384" y="80"/>
			<point x="398" y="64"/>
			<point x="416" y="64" type="curve" smooth="yes"/>
			<point x="434" y="64"/>
			<point x="448" y="78"/>
			<point x="448" y="96" type="curve" smooth="yes"/>
			<point x="448" y="114"/>
			<point x="462" y="128"/>
			<point x="480" y="128" type="curve" smooth="yes"/>
			<point x="498" y="128"/>
			<point x="512" y="144"/>
			<point x="512" y="164" type="curve" smooth="yes"/>
			<point x="512" y="284" type="line" smooth="yes"/>
			<point x="512" y="304"/>
			<point x="498" y="320"/>
			<point x="480" y="320" type="curve" smooth="yes"/>
			<point x="462" y="320"/>
			<point x="448" y="334"/>
			<point x="448" y="352" type="curve" smooth="yes"/>
			<point x="448" y="370"/>
			<point x="434" y="384"/>
			<point x="416" y="384" type="curve" smooth="yes"/>
			<point x="398" y="384"/>
			<point x="384" y="398"/>
			<point x="384" y="416" type="curve" smooth="yes"/>
			<point x="384" y="434"/>
			<point x="370" y="448"/>
			<point x="352" y="448" type="curve" smooth="yes"/>
			<point x="334" y="448"/>
			<point x="320" y="464"/>
			<point x="320" y="484" type="curve" smooth="yes"/>
			<point x="320" y="540" type="line" smooth="yes"/>
			<point x="320" y="560"/>
			<point x="334" y="576"/>
			<point x="352" y="576" type="curve" smooth="yes"/>
			<point x="370" y="576"/>
			<point x="384" y="562"/>
			<point x="384" y="544" type="curve" smooth="yes"/>
			<point x="384" y="526"/>
			<point x="400" y="512"/>
			<point x="420" y="512" type="curve" smooth="yes"/>
			<point x="476" y="512" type="line" smooth="yes"/>
			<point x="496" y="512"/>
			<point x="512" y="528"/>
			<point x="512" y="548" type="curve" smooth="yes"/>
			<point x="512" y="604" type="line" smooth="yes"/>
			<point x="512" y="624"/>
			<point x="498" y="640"/>
			<point x="480" y="640" type="curve" smooth="yes"/>
			<point x="462" y="640"/>
			<point x="448" y="654"/>
			<point x="448" y="672" type="curve" smooth="yes"/>
			<point x="448" y="690"/>
			<point x="432" y="704"/>
			<point x="412" y="704" type="curve" smooth="yes"/>
			<point x="356" y="704" type="line" smooth="yes"/>
			<point x="336" y="704"/>
			<point x="320" y="718"/>
			<point x="320" y="736" type="curve" smooth="yes"/>
			<point x="320" y="754"/>
			<point x="306" y="768"/>
			<point x="288" y="768" type="curve" smooth="yes"/>
			<point x="270" y="768"/>
			<point x="256" y="754"/>
			<point x="256" y="736" type="curve" smooth="yes"/>
			<point x="256" y="718"/>
			<point x="240" y="704"/>
			<point x="220" y="704" type="curve" smooth="yes"/>
			<point x="164" y="704" type="line" smooth="yes"/>
			<point x="144" y="704"/>
			<point x="128" y="690"/>
			<point x="128" y="672" type="curve" smooth="yes"/>
			<point x="128" y="654"/>
			<point x="114" y="640"/>
			<point x="96" y="640" type="curve" smooth="yes"/>
			<point x="78" y="640"/>
			<point x="64" y="626"/>
			<point x="64" y="608" type="curve" smooth="yes"/>
			<point x="64" y="590"/>
			<point x="50" y="576"/>
			<point x="32" y="576" type="curve" smooth="yes"/>
			<point x="14" y="576"/>
			<point x="0" y="560"/>
			<point x="0" y="540" type="curve" smooth="yes"/>
			<point x="0" y="420" type="line" smooth="yes"/>
			<point x="0" y="400"/>
			<point x="14" y="384"/>
			<point x="32" y="384" type="curve" smooth="yes"/>
			<point x="50" y="384"/>
			<point x="64" y="370"/>
			<point x="64" y="352" type="curve" smooth="yes"/>
			<point x="64" y="334"/>
			<point x="80" y="320"/>
			<point x="100" y="320" type="curve" smooth="yes"/>
			<point x="156" y="320" type="line" smooth="yes"/>
			<point x="176" y="320"/>
			<point x="192" y="304"/>
			<point x="192" y="284" type="curve" smooth="yes"/>
			<point x="192" y="164" type="line" smooth="yes"/>
			<point x="192" y="144"/>
			<point x="178" y="128"/>
			<point x="160" y="128" type="curve" smooth="yes"/>
			<point x="142" y="128"/>
			<point x="128" y="142"/>
			<point x="128" y="160" type="curve" smooth="yes"/>
			<point x="128" y="178"/>
			<point x="112" y="192"/>
			<point x="92" y="192" type="curve" smooth="yes"/>
			<point x="36" y="192" type="line" smooth="yes"/>
			<point x="16" y="192"/>
			<point x="0" y="176"/>
			<point x="0" y="156" type="curve" smooth="yes"/>
			<point x="0" y="100" type="line" smooth="yes"/>
			<point x="0" y="80"/>
			<point x="14" y="64"/>
			<point x="32" y="64" type="curve" smooth="yes"/>
			<point x="50" y="64"/>
			<point x="64" y="50"/>
			<point x="64" y="32" type="curve" smooth="yes"/>
			<point x="64" y="14"/>
			<point x="80" y="0"/>
			<point x="100" y="0" type="curve" smooth="yes"/>
			<point x="156" y="0" type="line" smooth="yes"/>
			<point x="176" y="0"/>
			<point x="192" y="-16"/>
			<point x="192" y="-36" type="curve" smooth="yes"/>
			<point x="192" y="-92" type="line" smooth="yes"/>
			<point x="192" y="-112"/>
			<point x="206" y="-128"/>
			<point x="224" y="-128" type="curve" smooth="yes"/>
			<point x="242" y="-128"/>
			<point x="256" y="-112"/>
		</contour>
		<contour>
			<point x="128" y="484" type="curve" smooth="yes"/>
			<point x="128" y="604" type="line" smooth="yes"/>
			<point x="128" y="624"/>
			<point x="144" y="640"/>
			<point x="164" y="640" type="curve" smooth="yes"/>
			<point x="220" y="640" type="line" smooth="yes"/>
			<point x="240" y="640"/>
			<point x="256" y="624"/>
			<point x="256" y="604" type="curve" smooth="yes"/>
			<point x="256" y="484" type="line" smooth="yes"/>
			<point x="256" y="464"/>
			<point x="240" y="448"/>
			<point x="220" y="448" type="curve" smooth="yes"/>
			<point x="164" y="448" type="line" smooth="yes"/>
			<point x="144" y="448"/>
			<point x="128" y="464"/>
		</contour>
	</outline>
</glyph>
<glyph name="percent" format="2">
	<advance width="832"/>
	<unicode hex="0025"/>
	<note>
		percent
	</note>
	<outline>
		<contour>
			<point x="128" y="32" type="curve" smooth="yes"/>
			<point x="128" y="51"/>
			<point x="114" y="64"/>
			<point x="96" y="64" type="curve" smooth="yes"/>
			<point x="78" y="64"/>
			<point x="64" y="50"/>
			<point x="64" y="32" type="curve" smooth="yes"/>
			<point x="64" y="14"/>
			<point x="78" y="0"/>
			<point x="96" y="0" type="curve" smooth="yes"/>
			<point x="114" y="0"/>
			<point x="128" y="14"/>
		</contour>
		<contour>
			<point x="640" y="-32" type="curve" smooth="yes"/>
			<point x="640" y="-13"/>
			<point x="626" y="0"/>
			<point x="608" y="0" type="curve" smooth="yes"/>
			<point x="590" y="0"/>
			<point x="576" y="14"/>
			<point x="576" y="32" type="curve" smooth="yes"/>
			<point x="576" y="50"/>
			<point x="562" y="64"/>
			<point x="544" y="64" type="curve" smooth="yes"/>
			<point x="526" y="64"/>
			<point x="512" y="80"/>
			<point x="512" y="100" type="curve" smooth="yes"/>
			<point x="512" y="220" type="line" smooth="yes"/>
			<point x="512" y="240"/>
			<point x="498" y="256"/>
			<point x="480" y="256" type="curve" smooth="yes"/>
			<point x="462" y="256"/>
			<point x="448" y="242"/>
			<point x="448" y="224" type="curve" smooth="yes"/>
			<point x="448" y="206"/>
			<point x="434" y="192"/>
			<point x="416" y="192" type="curve" smooth="yes"/>
			<point x="398" y="192"/>
			<point x="384" y="176"/>
			<point x="384" y="156" type="curve" smooth="yes"/>
			<point x="384" y="100" type="line" smooth="yes"/>
			<point x="384" y="80"/>
			<point x="398" y="64"/>
			<point x="416" y="64" type="curve" smooth="yes"/>
			<point x="434" y="64"/>
			<point x="448" y="50"/>
			<point x="448" y="32" type="curve" smooth="yes"/>
			<point x="448" y="14"/>
			<point x="462" y="0"/>
			<point x="480" y="0" type="curve" smooth="yes"/>
			<point x="498" y="0"/>
			<point x="512" y="-14"/>
			<point x="512" y="-32" type="curve" smooth="yes"/>
			<point x="512" y="-50"/>
			<point x="528" y="-64"/>
			<point x="548" y="-64" type="curve" smooth="yes"/>
			<point x="604" y="-64" type="line" smooth="yes"/>
			<point x="624" y="-64"/>
			<point x="640" y="-50"/>
		</contour>
		<contour>
			<point x="704" y="32" type="curve" smooth="yes"/>
			<point x="704" y="51"/>
			<point x="718" y="64"/>
			<point x="736" y="64" type="curve" smooth="yes"/>
			<point x="754" y="64"/>
			<point x="768" y="80"/>
			<point x="768" y="100" type="curve" smooth="yes"/>
			<point x="768" y="156" type="line" smooth="yes"/>
			<point x="768" y="176"/>
			<point x="754" y="192"/>
			<point x="736" y="192" type="curve" smooth="yes"/>
			<point x="718" y="192"/>
			<point x="704" y="206"/>
			<point x="704" y="224" type="curve" smooth="yes"/>
			<point x="704" y="242"/>
			<point x="690" y="256"/>
			<point x="672" y="256" type="curve" smooth="yes"/>
			<point x="654" y="256"/>
			<point x="640" y="270"/>
			<point x="640" y="288" type="curve" smooth="yes"/>
			<point x="640" y="306"/>
			<point x="624" y="320"/>
			<point x="604" y="320" type="curve" smooth="yes"/>
			<point x="548" y="320" type="line" smooth="yes"/>
			<point x="528" y="320"/>
			<point x="512" y="306"/>
			<point x="512" y="288" type="curve" smooth="yes"/>
			<point x="512" y="270"/>
			<point x="526" y="256"/>
			<point x="544" y="256" type="curve" smooth="yes"/>
			<point x="562" y="256"/>
			<point x="576" y="242"/>
			<point x="576" y="224" type="curve" smooth="yes"/>
			<point x="576" y="206"/>
			<point x="590" y="192"/>
			<point x="608" y="192" type="curve" smooth="yes"/>
			<point x="626" y="192"/>
			<point x="640" y="176"/>
			<point x="640" y="156" type="curve" smooth="yes"/>
			<point x="640" y="36" type="line" smooth="yes"/>
			<point x="640" y="16"/>
			<point x="654" y="0"/>
			<point x="672" y="0" type="curve" smooth="yes"/>
			<point x="690" y="0"/>
			<point x="704" y="14"/>
		</contour>
		<contour>
			<point x="192" y="96" type="curve" smooth="yes"/>
			<point x="192" y="115"/>
			<point x="178" y="128"/>
			<point x="160" y="128" type="curve" smooth="yes"/>
			<point x="142" y="128"/>
			<point x="128" y="114"/>
			<point x="128" y="96" type="curve" smooth="yes"/>
			<point x="128" y="78"/>
			<point x="142" y="64"/>
			<point x="160" y="64" type="curve" smooth="yes"/>
			<point x="178" y="64"/>
			<point x="192" y="78"/>
		</contour>
		<contour>
			<point x="256" y="160" type="curve" smooth="yes"/>
			<point x="256" y="179"/>
			<point x="242" y="192"/>
			<point x="224" y="192" type="curve" smooth="yes"/>
			<point x="206" y="192"/>
			<point x="192" y="178"/>
			<point x="192" y="160" type="curve" smooth="yes"/>
			<point x="192" y="142"/>
			<point x="206" y="128"/>
			<point x="224" y="128" type="curve" smooth="yes"/>
			<point x="242" y="128"/>
			<point x="256" y="142"/>
		</contour>
		<contour>
			<point x="320" y="224" type="curve" smooth="yes"/>
			<point x="320" y="243"/>
			<point x="306" y="256"/>
			<point x="288" y="256" type="curve" smooth="yes"/>
			<point x="270" y="256"/>
			<point x="256" y="242"/>
			<point x="256" y="224" type="curve" smooth="yes"/>
			<point x="256" y="206"/>
			<point x="270" y="192"/>
			<point x="288" y="192" type="curve" smooth="yes"/>
			<point x="306" y="192"/>
			<point x="320" y="206"/>
		</contour>
		<contour>
			<point x="384" y="288" type="curve" smooth="yes"/>
			<point x="384" y="307"/>
			<point x="370" y="320"/>
			<point x="352" y="320" type="curve" smooth="yes"/>
			<point x="334" y="320"/>
			<point x="320" y="306"/>
			<point x="320" y="288" type="curve" smooth="yes"/>
			<point x="320" y="270"/>
			<point x="334" y="256"/>
			<point x="352" y="256" type="curve" smooth="yes"/>
			<point x="370" y="256"/>
			<point x="384" y="270"/>
		</contour>
		<contour>
			<point x="448" y="352" type="curve" smooth="yes"/>
			<point x="448" y="371"/>
			<point x="434" y="384"/>
			<point x="416" y="384" type="curve" smooth="yes"/>
			<point x="398" y="384"/>
			<point x="384" y="370"/>
			<point x="384" y="352" type="curve" smooth="yes"/>
			<point x="384" y="334"/>
			<point x="398" y="320"/>
			<point x="416" y="320" type="curve" smooth="yes"/>
			<point x="434" y="320"/>
			<point x="448" y="334"/>
		</contour>
		<contour>
			<point x="256" y="352" type="curve" smooth="yes"/>
			<point x="256" y="371"/>
			<point x="242" y="384"/>
			<point x="224" y="384" type="curve" smooth="yes"/>
			<point x="206" y="384"/>
			<point x="192" y="398"/>
			<point x="192" y="416" type="curve" smooth="yes"/>
			<point x="192" y="434"/>
			<point x="178" y="448"/>
			<point x="160" y="448" type="curve" smooth="yes"/>
			<point x="142" y="448"/>
			<point x="128" y="464"/>
			<point x="128" y="484" type="curve" smooth="yes"/>
			<point x="128" y="604" type="line" smooth="yes"/>
			<point x="128" y="624"/>
			<point x="114" y="640"/>
			<point x="96" y="640" type="curve" smooth="yes"/>
			<point x="78" y="640"/>
			<point x="64" y="626"/>
			<point x="64" y="608" type="curve" smooth="yes"/>
			<point x="64" y="590"/>
			<point x="50" y="576"/>
			<point x="32" y="576" type="curve" smooth="yes"/>
			<point x="14" y="576"/>
			<point x="0" y="560"/>
			<point x="0" y="540" type="curve" smooth="yes"/>
			<point x="0" y="484" type="line" smooth="yes"/>
			<point x="0" y="464"/>
			<point x="14" y="448"/>
			<point x="32" y="448" type="curve" smooth="yes"/>
			<point x="50" y="448"/>
			<point x="64" y="434"/>
			<point x="64" y="416" type="curve" smooth="yes"/>
			<point x="64" y="398"/>
			<point x="78" y="384"/>
			<point x="96" y="384" type="curve" smooth="yes"/>
			<point x="114" y="384"/>
			<point x="128" y="370"/>
			<point x="128" y="352" type="curve" smooth="yes"/>
			<point x="128" y="334"/>
			<point x="144" y="320"/>
			<point x="164" y="320" type="curve" smooth="yes"/>
			<point x="220" y="320" type="line" smooth="yes"/>
			<point x="240" y="320"/>
			<point x="256" y="334"/>
		</contour>
		<contour>
			<point x="512" y="416" type="curve" smooth="yes"/>
			<point x="512" y="435"/>
			<point x="498" y="448"/>
			<point x="480" y="448" type="curve" smooth="yes"/>
			<point x="462" y="448"/>
			<point x="448" y="434"/>
			<point x="448" y="416" type="curve" smooth="yes"/>
			<point x="448" y="398"/>
			<point x="462" y="384"/>
			<point x="480" y="384" type="curve" smooth="yes"/>
			<point x="498" y="384"/>
			<point x="512" y="398"/>
		</contour>
		<contour>
			<point x="320" y="416" type="curve" smooth="yes"/>
			<point x="320" y="435"/>
			<point x="334" y="448"/>
			<point x="352" y="448" type="curve" smooth="yes"/>
			<point x="370" y="448"/>
			<point x="384" y="464"/>
			<point x="384" y="484" type="curve" smooth="yes"/>
			<point x="384" y="540" type="line" smooth="yes"/>
			<point x="384" y="560"/>
			<point x="370" y="576"/>
			<point x="352" y="576" type="curve" smooth="yes"/>
			<point x="334" y="576"/>
			<point x="320" y="590"/>
			<point x="320" y="608" type="curve" smooth="yes"/>
			<point x="320" y="626"/>
			<point x="306" y="640"/>
			<point x="288" y="640" type="curve" smooth="yes"/>
			<point x="270" y="640"/>
			<point x="256" y="654"/>
			<point x="256" y="672" type="curve" smooth="yes"/>
			<point x="256" y="690"/>
			<point x="240" y="704"/>
			<point x="220" y="704" type="curve" smooth="yes"/>
			<point x="164" y="704" type="line" smooth="yes"/>
			<point x="144" y="704"/>
			<point x="128" y="690"/>
			<point x="128" y="672" type="curve" smooth="yes"/>
			<point x="128" y="654"/>
			<point x="142" y="640"/>
			<point x="160" y="640" type="curve" smooth="yes"/>
			<point x="178" y="640"/>
			<point x="192" y="626"/>
			<point x="192" y="608" type="curve" smooth="yes"/>
			<point x="192" y="590"/>
			<point x="206" y="576"/>
			<point x="224" y="576" type="curve" smooth="yes"/>
			<point x="242" y="576"/>
			<point x="256" y="560"/>
			<point x="256" y="540" type="curve" smooth="yes"/>
			<point x="256" y="420" type="line" smooth="yes"/>
			<point x="256" y="400"/>
			<point x="270" y="384"/>
			<point x="288" y="384" type="curve" smooth="yes"/>
			<point x="306" y="384"/>
			<point x="320" y="398"/>
		</contour>
		<contour>
			<point x="576" y="480" type="curve" smooth="yes"/>
			<point x="576" y="499"/>
			<point x="562" y="512"/>
			<point x="544" y="512" type="curve" smooth="yes"/>
			<point x="526" y="512"/>
			<point x="512" y="498"/>
			<point x="512" y="480" type="curve" smooth="yes"/>
			<point x="512" y="462"/>
			<point x="526" y="448"/>
			<point x="544" y="448" type="curve" smooth="yes"/>
			<point x="562" y="448"/>
			<point x="576" y="462"/>
		</contour>
		<contour>
			<point x="640" y="544" type="curve" smooth="yes"/>
			<point x="640" y="563"/>
			<point x="626" y="576"/>
			<point x="608" y="576" type="curve" smooth="yes"/>
			<point x="590" y="576"/>
			<point x="576" y="562"/>
			<point x="576" y="544" type="curve" smooth="yes"/>
			<point x="576" y="526"/>
			<point x="590" y="512"/>
			<point x="608" y="512" type="curve" smooth="yes"/>
			<point x="626" y="512"/>
			<point x="640" y="526"/>
		</contour>
		<contour>
			<point x="704" y="608" type="curve" smooth="yes"/>
			<point x="704" y="627"/>
			<point x="690" y="640"/>
			<point x="672" y="640" type="curve" smooth="yes"/>
			<point x="654" y="640"/>
			<point x="640" y="626"/>
			<point x="640" y="608" type="curve" smooth="yes"/>
			<point x="640" y="590"/>
			<point x="654" y="576"/>
			<point x="672" y="576" type="curve" smooth="yes"/>
			<point x="690" y="576"/>
			<point x="704" y="590"/>
		</contour>
	</outline>
</glyph>
<glyph name="ampersand" format="2">
	<advance width="768"/>
	<unicode hex="0026"/>
	<note>
		ampersand
	</note>
	<outline>
		<contour>
			<point x="512" y="96" type="curve" smooth="yes"/>
			<point x="512" y="115"/>
			<point x="498" y="128"/>
			<point x="480" y="128" type="curve" smooth="yes"/>
			<point x="462" y="128"/>
			<point x="448" y="142"/>
			<point x="448" y="160" type="curve" smooth="yes"/>
			<point x="448" y="178"/>
			<point x="434" y="192"/>
			<point x="416" y="192" type="curve" smooth="yes"/>
			<point x="398" y="192"/>
			<point x="384" y="206"/>
			<point x="384" y="224" type="curve" smooth="yes"/>
			<point x="384" y="242"/>
			<point x="370" y="256"/>
			<point x="352" y="256" type="curve" smooth="yes"/>
			<point x="334" y="256"/>
			<point x="320" y="272"/>
			<point x="320" y="292" type="curve" smooth="yes"/>
			<point x="320" y="348" type="line" smooth="yes"/>
			<point x="320" y="368"/>
			<point x="304" y="384"/>
			<point x="284" y="384" type="curve" smooth="yes"/>
			<point x="228" y="384" type="line" smooth="yes"/>
			<point x="208" y="384"/>
			<point x="192" y="398"/>
			<point x="192" y="416" type="curve" smooth="yes"/>
			<point x="192" y="434"/>
			<point x="178" y="448"/>
			<point x="160" y="448" type="curve" smooth="yes"/>
			<point x="142" y="448"/>
			<point x="128" y="464"/>
			<point x="128" y="484" type="curve" smooth="yes"/>
			<point x="128" y="604" type="line" smooth="yes"/>
			<point x="128" y="624"/>
			<point x="144" y="640"/>
			<point x="164" y="640" type="curve" smooth="yes"/>
			<point x="220" y="640" type="line" smooth="yes"/>
			<point x="240" y="640"/>
			<point x="256" y="626"/>
			<point x="256" y="608" type="curve" smooth="yes"/>
			<point x="256" y="590"/>
			<point x="270" y="576"/>
			<point x="288" y="576" type="curve" smooth="yes"/>
			<point x="306" y="576"/>
			<point x="320" y="560"/>
			<point x="320" y="540" type="curve" smooth="yes"/>
			<point x="320" y="420" type="line" smooth="yes"/>
			<point x="320" y="400"/>
			<point x="334" y="384"/>
			<point x="352" y="384" type="curve" smooth="yes"/>
			<point x="370" y="384"/>
			<point x="384" y="398"/>
			<point x="384" y="416" type="curve" smooth="yes"/>
			<point x="384" y="434"/>
			<point x="398" y="448"/>
			<point x="416" y="448" type="curve" smooth="yes"/>
			<point x="434" y="448"/>
			<point x="448" y="464"/>
			<point x="448" y="484" type="curve" smooth="yes"/>
			<point x="448" y="540" type="line" smooth="yes"/>
			<point x="448" y="560"/>
			<point x="434" y="576"/>
			<point x="416" y="576" type="curve" smooth="yes"/>
			<point x="398" y="576"/>
			<point x="384" y="590"/>
			<point x="384" y="608" type="curve" smooth="yes"/>
			<point x="384" y="626"/>
			<point x="370" y="640"/>
			<point x="352" y="640" type="curve" smooth="yes"/>
			<point x="334" y="640"/>
			<point x="320" y="654"/>
			<point x="320" y="672" type="curve" smooth="yes"/>
			<point x="320" y="690"/>
			<point x="304" y="704"/>
			<point x="284" y="704" type="curve" smooth="yes"/>
			<point x="100" y="704" type="line" smooth="yes"/>
			<point x="80" y="704"/>
			<point x="64" y="690"/>
			<point x="64" y="672" type="curve" smooth="yes"/>
			<point x="64" y="654"/>
			<point x="50" y="640"/>
			<point x="32" y="640" type="curve" smooth="yes"/>
			<point x="14" y="640"/>
			<point x="0" y="624"/>
			<point x="0" y="604" type="curve" smooth="yes"/>
			<point x="0" y="484" type="line" smooth="yes"/>
			<point x="0" y="464"/>
			<point x="14" y="448"/>
			<point x="32" y="448" type="curve" smooth="yes"/>
			<point x="50" y="448"/>
			<point x="64" y="434"/>
			<point x="64" y="416" type="curve" smooth="yes"/>
			<point x="64" y="398"/>
			<point x="78" y="384"/>
			<point x="96" y="384" type="curve" smooth="yes"/>
			<point x="114" y="384"/>
			<point x="128" y="370"/>
			<point x="128" y="352" type="curve" smooth="yes"/>
			<point x="128" y="334"/>
			<point x="114" y="320"/>
			<point x="96" y="320" type="curve" smooth="yes"/>
			<point x="78" y="320"/>
			<point x="64" y="306"/>
			<point x="64" y="288" type="curve" smooth="yes"/>
			<point x="64" y="270"/>
			<point x="50" y="256"/>
			<point x="32" y="256" type="curve" smooth="yes"/>
			<point x="14" y="256"/>
			<point x="0" y="240"/>
			<point x="0" y="220" type="curve" smooth="yes"/>
			<point x="0" y="100" type="line" smooth="yes"/>
			<point x="0" y="80"/>
			<point x="14" y="64"/>
			<point x="32" y="64" type="curve" smooth="yes"/>
			<point x="50" y="64"/>
			<point x="64" y="50"/>
			<point x="64" y="32" type="curve" smooth="yes"/>
			<point x="64" y="14"/>
			<point x="80" y="0"/>
			<point x="100" y="0" type="curve" smooth="yes"/>
			<point x="284" y="0" type="line" smooth="yes"/>
			<point x="304" y="0"/>
			<point x="320" y="14"/>
			<point x="320" y="32" type="curve" smooth="yes"/>
			<point x="320" y="50"/>
			<point x="304" y="64"/>
			<point x="284" y="64" type="curve" smooth="yes"/>
			<point x="164" y="64" type="line" smooth="yes"/>
			<point x="144" y="64"/>
			<point x="128" y="80"/>
			<point x="128" y="100" type="curve" smooth="yes"/>
			<point x="128" y="220" type="line" smooth="yes"/>
			<point x="128" y="240"/>
			<point x="144" y="256"/>
			<point x="164" y="256" type="curve" smooth="yes"/>
			<point x="220" y="256" type="line" smooth="yes"/>
			<point x="240" y="256"/>
			<point x="256" y="242"/>
			<point x="256" y="224" type="curve" smooth="yes"/>
			<point x="256" y="206"/>
			<point x="270" y="192"/>
			<point x="288" y="192" type="curve" smooth="yes"/>
			<point x="306" y="192"/>
			<point x="320" y="176"/>
			<point x="320" y="156" type="curve" smooth="yes"/>
			<point x="320" y="100" type="line" smooth="yes"/>
			<point x="320" y="80"/>
			<point x="336" y="64"/>
			<point x="356" y="64" type="curve" smooth="yes"/>
			<point x="412" y="64" type="line" smooth="yes"/>
			<point x="432" y="64"/>
			<point x="448" y="50"/>
			<point x="448" y="32" type="curve" smooth="yes"/>
			<point x="448" y="14"/>
			<point x="464" y="0"/>
			<point x="484" y="0" type="curve" smooth="yes"/>
			<point x="604" y="0" type="line" smooth="yes"/>
			<point x="624" y="0"/>
			<point x="640" y="14"/>
			<point x="640" y="32" type="curve" smooth="yes"/>
			<point x="640" y="50"/>
			<point x="624" y="64"/>
			<point x="604" y="64" type="curve" smooth="yes"/>
			<point x="548" y="64" type="line" smooth="yes"/>
			<point x="528" y="64"/>
			<point x="512" y="78"/>
		</contour>
		<contour>
			<point x="704" y="96" type="curve" smooth="yes"/>
			<point x="704" y="115"/>
			<point x="690" y="128"/>
			<point x="672" y="128" type="curve" smooth="yes"/>
			<point x="654" y="128"/>
			<point x="640" y="114"/>
			<point x="640" y="96" type="curve" smooth="yes"/>
			<point x="640" y="78"/>
			<point x="654" y="64"/>
			<point x="672" y="64" type="curve" smooth="yes"/>
			<point x="690" y="64"/>
			<point x="704" y="78"/>
		</contour>
		<contour>
			<point x="512" y="224" type="curve" smooth="yes"/>
			<point x="512" y="243"/>
			<point x="498" y="256"/>
			<point x="480" y="256" type="curve" smooth="yes"/>
			<point x="462" y="256"/>
			<point x="448" y="242"/>
			<point x="448" y="224" type="curve" smooth="yes"/>
			<point x="448" y="206"/>
			<point x="462" y="192"/>
			<point x="480" y="192" type="curve" smooth="yes"/>
			<point x="498" y="192"/>
			<point x="512" y="206"/>
		</contour>
		<contour>
			<point x="576" y="288" type="curve" smooth="yes"/>
			<point x="576" y="307"/>
			<point x="590" y="320"/>
			<point x="608" y="320" type="curve" smooth="yes"/>
			<point x="626" y="320"/>
			<point x="640" y="334"/>
			<point x="640" y="352" type="curve" smooth="yes"/>
			<point x="640" y="370"/>
			<point x="654" y="384"/>
			<point x="672" y="384" type="curve" smooth="yes"/>
			<point x="690" y="384"/>
			<point x="704" y="398"/>
			<point x="704" y="416" type="curve" smooth="yes"/>
			<point x="704" y="434"/>
			<point x="688" y="448"/>
			<point x="668" y="448" type="curve" smooth="yes"/>
			<point x="548" y="448" type="line" smooth="yes"/>
			<point x="528" y="448"/>
			<point x="512" y="432"/>
			<point x="512" y="412" type="curve" smooth="yes"/>
			<point x="512" y="292" type="line" smooth="yes"/>
			<point x="512" y="272"/>
			<point x="526" y="256"/>
			<point x="544" y="256" type="curve" smooth="yes"/>
			<point x="562" y="256"/>
			<point x="576" y="270"/>
		</contour>
	</outline>
</glyph>
<glyph name="quotesingle" format="2">
	<advance width="256"/>
	<unicode hex="0027"/>
	<note>
		quotesingle
	</note>
	<outline>
		<contour>
			<point x="128" y="416" type="curve" smooth="yes"/>
			<point x="128" y="435"/>
			<point x="142" y="448"/>
			<point x="160" y="448" type="curve" smooth="yes"/>
			<point x="178" y="448"/>
			<point x="192" y="464"/>
			<point x="192" y="484" type="curve" smooth="yes"/>
			<point x="192" y="668" type="line" smooth="yes"/>
			<point x="192" y="688"/>
			<point x="176" y="704"/>
			<point x="156" y="704" type="curve" smooth="yes"/>
			<point x="100" y="704" type="line" smooth="yes"/>
			<point x="80" y="704"/>
			<point x="64" y="690"/>
			<point x="64" y="672" type="curve" smooth="yes"/>
			<point x="64" y="654"/>
			<point x="50" y="640"/>
			<point x="32" y="640" type="curve" smooth="yes"/>
			<point x="14" y="640"/>
			<point x="0" y="626"/>
			<point x="0" y="608" type="curve" smooth="yes"/>
			<point x="0" y="590"/>
			<point x="14" y="576"/>
			<point x="32" y="576" type="curve" smooth="yes"/>
			<point x="50" y="576"/>
			<point x="64" y="560"/>
			<point x="64" y="540" type="curve" smooth="yes"/>
			<point x="64" y="420" type="line" smooth="yes"/>
			<point x="64" y="400"/>
			<point x="78" y="384"/>
			<point x="96" y="384" type="curve" smooth="yes"/>
			<point x="114" y="384"/>
			<point x="128" y="398"/>
		</contour>
	</outline>
</glyph>
<glyph name="parenleft" format="2">
	<advance width="448"/>
	<unicode hex="0028"/>
	<note>
		parenleft
	</note>
	<outline>
		<contour>
			<point x="256" y="-160" type="curve" smooth="yes"/>
			<point x="256" y="-141"/>
			<point x="270" y="-128"/>
			<point x="288" y="-128" type="curve" smooth="yes"/>
			<point x="306" y="-128"/>
			<point x="320" y="-114"/>
			<point x="320" y="-96" type="curve" smooth="yes"/>
			<point x="320" y="-78"/>
			<point x="304" y="-64"/>
			<point x="284" y="-64" type="curve" smooth="yes"/>
			<point x="228" y="-64" type="line" smooth="yes"/>
			<point x="208" y="-64"/>
			<point x="192" y="-50"/>
			<point x="192" y="-32" type="curve" smooth="yes"/>
			<point x="192" y="-14"/>
			<point x="178" y="0"/>
			<point x="160" y="0" type="curve" smooth="yes"/>
			<point x="142" y="0"/>
			<point x="128" y="16"/>
			<point x="128" y="36" type="curve" smooth="yes"/>
			<point x="128" y="476" type="line" smooth="yes"/>
			<point x="128" y="496"/>
			<point x="142" y="512"/>
			<point x="160" y="512" type="curve" smooth="yes"/>
			<point x="178" y="512"/>
			<point x="192" y="526"/>
			<point x="192" y="544" type="curve" smooth="yes"/>
			<point x="192" y="562"/>
			<point x="206" y="576"/>
			<point x="224" y="576" type="curve" smooth="yes"/>
			<point x="242" y="576"/>
			<point x="256" y="562"/>
			<point x="256" y="544" type="curve" smooth="yes"/>
			<point x="256" y="526"/>
			<point x="272" y="512"/>
			<point x="292" y="512" type="curve" smooth="yes"/>
			<point x="348" y="512" type="line" smooth="yes"/>
			<point x="368" y="512"/>
			<point x="384" y="528"/>
			<point x="384" y="548" type="curve" smooth="yes"/>
			<point x="384" y="604" type="line" smooth="yes"/>
			<point x="384" y="624"/>
			<point x="370" y="640"/>
			<point x="352" y="640" type="curve" smooth="yes"/>
			<point x="334" y="640"/>
			<point x="320" y="654"/>
			<point x="320" y="672" type="curve" smooth="yes"/>
			<point x="320" y="690"/>
			<point x="304" y="704"/>
			<point x="284" y="704" type="curve" smooth="yes"/>
			<point x="228" y="704" type="line" smooth="yes"/>
			<point x="208" y="704"/>
			<point x="192" y="690"/>
			<point x="192" y="672" type="curve" smooth="yes"/>
			<point x="192" y="654"/>
			<point x="178" y="640"/>
			<point x="160" y="640" type="curve" smooth="yes"/>
			<point x="142" y="640"/>
			<point x="128" y="626"/>
			<point x="128" y="608" type="curve" smooth="yes"/>
			<point x="128" y="590"/>
			<point x="114" y="576"/>
			<point x="96" y="576" type="curve" smooth="yes"/>
			<point x="78" y="576"/>
			<point x="64" y="562"/>
			<point x="64" y="544" type="curve" smooth="yes"/>
			<point x="64" y="526"/>
			<point x="50" y="512"/>
			<point x="32" y="512" type="curve" smooth="yes"/>
			<point x="14" y="512"/>
			<point x="0" y="496"/>
			<point x="0" y="476" type="curve" smooth="yes"/>
			<point x="0" y="-28" type="line" smooth="yes"/>
			<point x="0" y="-48"/>
			<point x="14" y="-64"/>
			<point x="32" y="-64" type="curve" smooth="yes"/>
			<point x="50" y="-64"/>
			<point x="64" y="-78"/>
			<point x="64" y="-96" type="curve" smooth="yes"/>
			<point x="64" y="-114"/>
			<point x="78" y="-128"/>
			<point x="96" y="-128" type="curve" smooth="yes"/>
			<point x="114" y="-128"/>
			<point x="128" y="-142"/>
			<point x="128" y="-160" type="curve" smooth="yes"/>
			<point x="128" y="-178"/>
			<point x="144" y="-192"/>
			<point x="164" y="-192" type="curve" smooth="yes"/>
			<point x="220" y="-192" type="line" smooth="yes"/>
			<point x="240" y="-192"/>
			<point x="256" y="-178"/>
		</contour>
	</outline>
</glyph>
<glyph name="asterisk" format="2">
	<advance width="448"/>
	<unicode hex="002A"/>
	<note>
		asterisk
	</note>
	<outline>
		<contour>
			<point x="320" y="356" type="curve" smooth="yes"/>
			<point x="320" y="412" type="line" smooth="yes"/>
			<point x="320" y="432"/>
			<point x="306" y="448"/>
			<point x="288" y="448" type="curve" smooth="yes"/>
			<point x="270" y="448"/>
			<point x="256" y="462"/>
			<point x="256" y="480" type="curve" smooth="yes"/>
			<point x="256" y="498"/>
			<point x="272" y="512"/>
			<point x="292" y="512" type="curve" smooth="yes"/>
			<point x="348" y="512" type="line" smooth="yes"/>
			<point x="368" y="512"/>
			<point x="384" y="526"/>
			<point x="384" y="544" type="curve" smooth="yes"/>
			<point x="384" y="562"/>
			<point x="368" y="576"/>
			<point x="348" y="576" type="curve" smooth="yes"/>
			<point x="292" y="576" type="line" smooth="yes"/>
			<point x="272" y="576"/>
			<point x="256" y="590"/>
			<point x="256" y="608" type="curve" smooth="yes"/>
			<point x="256" y="626"/>
			<point x="242" y="640"/>
			<point x="224" y="640" type="curve" smooth="yes"/>
			<point x="206" y="640"/>
			<point x="192" y="654"/>
			<point x="192" y="672" type="curve" smooth="yes"/>
			<point x="192" y="690"/>
			<point x="178" y="704"/>
			<point x="160" y="704" type="curve" smooth="yes"/>
			<point x="142" y="704"/>
			<point x="128" y="688"/>
			<point x="128" y="668" type="curve" smooth="yes"/>
			<point x="128" y="612" type="line" smooth="yes"/>
			<point x="128" y="592"/>
			<point x="112" y="576"/>
			<point x="92" y="576" type="curve" smooth="yes"/>
			<point x="36" y="576" type="line" smooth="yes"/>
			<point x="16" y="576"/>
			<point x="0" y="562"/>
			<point x="0" y="544" type="curve" smooth="yes"/>
			<point x="0" y="526"/>
			<point x="14" y="512"/>
			<point x="32" y="512" type="curve" smooth="yes"/>
			<point x="50" y="512"/>
			<point x="64" y="498"/>
			<point x="64" y="480" type="curve" smooth="yes"/>
			<point x="64" y="462"/>
			<point x="50" y="448"/>
			<point x="32" y="448" type="curve" smooth="yes"/>
			<point x="14" y="448"/>
			<point x="0" y="432"/>
			<point x="0" y="412" type="curve" smooth="yes"/>
			<point x="0" y="356" type="line" smooth="yes"/>
			<point x="0" y="336"/>
			<point x="14" y="320"/>
			<point x="32" y="320" type="curve" smooth="yes"/>
			<point x="50" y="320"/>
			<point x="64" y="334"/>
			<point x="64" y="352" type="curve" smooth="yes"/>
			<point x="64" y="370"/>
			<point x="78" y="384"/>
			<point x="96" y="384" type="curve" smooth="yes"/>
			<point x="114" y="384"/>
			<point x="128" y="398"/>
			<point x="128" y="416" type="curve" smooth="yes"/>
			<point x="128" y="434"/>
			<point x="142" y="448"/>
			<point x="160" y="448" type="curve" smooth="yes"/>
			<point x="178" y="448"/>
			<point x="192" y="434"/>
			<point x="192" y="416" type="curve" smooth="yes"/>
			<point x="192" y="398"/>
			<point x="206" y="384"/>
			<point x="224" y="384" type="curve" smooth="yes"/>
			<point x="242" y="384"/>
			<point x="256" y="370"/>
			<point x="256" y="352" type="curve" smooth="yes"/>
			<point x="256" y="334"/>
			<point x="270" y="320"/>
			<point x="288" y="320" type="curve" smooth="yes"/>
			<point x="306" y="320"/>
			<point x="320" y="336"/>
		</contour>
	</outline>
</glyph>
<glyph name="plus" format="2">
	<advance width="704"/>
	<unicode hex="002B"/>
	<note>
		plus
	</note>
	<outline>
		<contour>
			<point x="384" y="32" type="curve" smooth="yes"/>
			<point x="384" y="51"/>
			<point x="398" y="64"/>
			<point x="416" y="64" type="curve" smooth="yes"/>
			<point x="434" y="64"/>
			<point x="448" y="78"/>
			<point x="448" y="96" type="curve" smooth="yes"/>
			<point x="448" y="114"/>
			<point x="434" y="128"/>
			<point x="416" y="128" type="curve" smooth="yes"/>
			<point x="398" y="128"/>
			<point x="384" y="144"/>
			<point x="384" y="164" type="curve" smooth="yes"/>
			<point x="384" y="220" type="line" smooth="yes"/>
			<point x="384" y="240"/>
			<point x="400" y="256"/>
			<point x="420" y="256" type="curve" smooth="yes"/>
			<point x="604" y="256" type="line" smooth="yes"/>
			<point x="624" y="256"/>
			<point x="640" y="270"/>
			<point x="640" y="288" type="curve" smooth="yes"/>
			<point x="640" y="306"/>
			<point x="624" y="320"/>
			<point x="604" y="320" type="curve" smooth="yes"/>
			<point x="420" y="320" type="line" smooth="yes"/>
			<point x="400" y="320"/>
			<point x="384" y="336"/>
			<point x="384" y="356" type="curve" smooth="yes"/>
			<point x="384" y="604" type="line" smooth="yes"/>
			<point x="384" y="624"/>
			<point x="370" y="640"/>
			<point x="352" y="640" type="curve" smooth="yes"/>
			<point x="334" y="640"/>
			<point x="320" y="626"/>
			<point x="320" y="608" type="curve" smooth="yes"/>
			<point x="320" y="590"/>
			<point x="306" y="576"/>
			<point x="288" y="576" type="curve" smooth="yes"/>
			<point x="270" y="576"/>
			<point x="256" y="562"/>
			<point x="256" y="544" type="curve" smooth="yes"/>
			<point x="256" y="526"/>
			<point x="242" y="512"/>
			<point x="224" y="512" type="curve" smooth="yes"/>
			<point x="206" y="512"/>
			<point x="192" y="498"/>
			<point x="192" y="480" type="curve" smooth="yes"/>
			<point x="192" y="462"/>
			<point x="206" y="448"/>
			<point x="224" y="448" type="curve" smooth="yes"/>
			<point x="242" y="448"/>
			<point x="256" y="432"/>
			<point x="256" y="412" type="curve" smooth="yes"/>
			<point x="256" y="356" type="line" smooth="yes"/>
			<point x="256" y="336"/>
			<point x="240" y="320"/>
			<point x="220" y="320" type="curve" smooth="yes"/>
			<point x="36" y="320" type="line" smooth="yes"/>
			<point x="16" y="320"/>
			<point x="0" y="306"/>
			<point x="0" y="288" type="curve" smooth="yes"/>
			<point x="0" y="270"/>
			<point x="16" y="256"/>
			<point x="36" y="256" type="curve" smooth="yes"/>
			<point x="220" y="256" type="line" smooth="yes"/>
			<point x="240" y="256"/>
			<point x="256" y="240"/>
			<point x="256" y="220" type="curve" smooth="yes"/>
			<point x="256" y="36" type="line" smooth="yes"/>
			<point x="256" y="16"/>
			<point x="272" y="0"/>
			<point x="292" y="0" type="curve" smooth="yes"/>
			<point x="348" y="0" type="line" smooth="yes"/>
			<point x="368" y="0"/>
			<point x="384" y="14"/>
		</contour>
	</outline>
</glyph>
<glyph name="comma" format="2">
	<advance width="256"/>
	<unicode hex="002C"/>
	<note>
		comma
	</note>
	<outline>
		<contour>
			<point x="64" y="-160" type="curve" smooth="yes"/>
			<point x="64" y="-141"/>
			<point x="50" y="-128"/>
			<point x="32" y="-128" type="curve" smooth="yes"/>
			<point x="14" y="-128"/>
			<point x="0" y="-142"/>
			<point x="0" y="-160" type="curve" smooth="yes"/>
			<point x="0" y="-178"/>
			<point x="14" y="-192"/>
			<point x="32" y="-192" type="curve" smooth="yes"/>
			<point x="50" y="-192"/>
			<point x="64" y="-178"/>
		</contour>
		<contour>
			<point x="128" y="-96" type="curve" smooth="yes"/>
			<point x="128" y="-77"/>
			<point x="142" y="-64"/>
			<point x="160" y="-64" type="curve" smooth="yes"/>
			<point x="178" y="-64"/>
			<point x="192" y="-48"/>
			<point x="192" y="-28" type="curve" smooth="yes"/>
			<point x="192" y="92" type="line" smooth="yes"/>
			<point x="192" y="112"/>
			<point x="176" y="128"/>
			<point x="156" y="128" type="curve" smooth="yes"/>
			<point x="100" y="128" type="line" smooth="yes"/>
			<point x="80" y="128"/>
			<point x="64" y="114"/>
			<point x="64" y="96" type="curve" smooth="yes"/>
			<point x="64" y="78"/>
			<point x="50" y="64"/>
			<point x="32" y="64" type="curve" smooth="yes"/>
			<point x="14" y="64"/>
			<point x="0" y="50"/>
			<point x="0" y="32" type="curve" smooth="yes"/>
			<point x="0" y="14"/>
			<point x="14" y="0"/>
			<point x="32" y="0" type="curve" smooth="yes"/>
			<point x="50" y="0"/>
			<point x="64" y="-16"/>
			<point x="64" y="-36" type="curve" smooth="yes"/>
			<point x="64" y="-92" type="line" smooth="yes"/>
			<point x="64" y="-112"/>
			<point x="78" y="-128"/>
			<point x="96" y="-128" type="curve" smooth="yes"/>
			<point x="114" y="-128"/>
			<point x="128" y="-114"/>
		</contour>
	</outline>
</glyph>
<glyph name="hyphen" format="2">
	<advance width="448"/>
	<unicode hex="002D"/>
	<note>
		hyphen
	</note>
	<outline>
		<contour>
			<point x="348" y="256" type="curve" smooth="yes"/>
			<point x="36" y="256" type="line" smooth="yes"/>
			<point x="16" y="256"/>
			<point x="0" y="242"/>
			<point x="0" y="224" type="curve" smooth="yes"/>
			<point x="0" y="206"/>
			<point x="16" y="192"/>
			<point x="36" y="192" type="curve" smooth="yes"/>
			<point x="348" y="192" type="line" smooth="yes"/>
			<point x="368" y="192"/>
			<point x="384" y="206"/>
			<point x="384" y="224" type="curve" smooth="yes"/>
			<point x="384" y="242"/>
			<point x="368" y="256"/>
		</contour>
	</outline>
</glyph>
<glyph name="period" format="2">
	<advance width="256"/>
	<unicode hex="002E"/>
	<note>
		period
	</note>
	<outline>
		<contour>
			<point x="192" y="36" type="curve" smooth="yes"/>
			<point x="192" y="92" type="line" smooth="yes"/>
			<point x="192" y="112"/>
			<point x="176" y="128"/>
			<point x="156" y="128" type="curve" smooth="yes"/>
			<point x="100" y="128" type="line" smooth="yes"/>
			<point x="80" y="128"/>
			<point x="64" y="112"/>
			<point x="64" y="92" type="curve" smooth="yes"/>
			<point x="64" y="36" type="line" smooth="yes"/>
			<point x="64" y="16"/>
			<point x="80" y="0"/>
			<point x="100" y="0" type="curve" smooth="yes"/>
			<point x="156" y="0" type="line" smooth="yes"/>
			<point x="176" y="0"/>
			<point x="192" y="16"/>
		</contour>
	</outline>
</glyph>
<glyph name="slash" format="2">
	<advance width="768"/>
	<unicode hex="002F"/>
	<note>
		slash
	</note>
	<outline>
		<contour>
			<point x="128" y="32" type="curve" smooth="yes"/>
			<point x="128" y="51"/>
			<point x="114" y="64"/>
			<point x="96" y="64" type="curve" smooth="yes"/>
			<point x="78" y="64"/>
			<point x="64" y="50"/>
			<point x="64" y="32" type="curve" smooth="yes"/>
			<point x="64" y="14"/>
			<point x="78" y="0"/>
			<point x="96" y="0" type="curve" smooth="yes"/>
			<point x="114" y="0"/>
			<point x="128" y="14"/>
		</contour>
		<contour>
			<point x="192" y="96" type="curve" smooth="yes"/>
			<point x="192" y="115"/>
			<point x="178" y="128"/>
			<point x="160" y="128" type="curve" smooth="yes"/>
			<point x="142" y="128"/>
			<point x="128" y="114"/>
			<point x="128" y="96" type="curve" smooth="yes"/>
			<point x="128" y="78"/>
			<point x="142" y="64"/>
			<point x="160" y="64" type="curve" smooth="yes"/>
			<point x="178" y="64"/>
			<point x="192" y="78"/>
		</contour>
		<contour>
			<point x="256" y="160" type="curve" smooth="yes"/>
			<point x="256" y="179"/>
			<point x="242" y="192"/>
			<point x="224" y="192" type="curve" smooth="yes"/>
			<point x="206" y="192"/>
			<point x="192" y="178"/>
			<point x="192" y="160" type="curve" smooth="yes"/>
			<point x="192" y="142"/>
			<point x="206" y="128"/>
			<point x="224" y="128" type="curve" smooth="yes"/>
			<point x="242" y="128"/>
			<point x="256" y="142"/>
		</contour>
		<contour>
			<point x="320" y="224" type="curve" smooth="yes"/>
			<point x="320" y="243"/>
			<point x="306" y="256"/>
			<point x="288" y="256" type="curve" smooth="yes"/>
			<point x="270" y="256"/>
			<point x="256" y="242"/>
			<point x="256" y="224" type="curve" smooth="yes"/>
			<point x="256" y="206"/>
			<point x="270" y="192"/>
			<point x="288" y="192" type="curve" smooth="yes"/>
			<point x="306" y="192"/>
			<point x="320" y="206"/>
		</contour>
		<contour>
			<point x="384" y="288" type="curve" smooth="yes"/>
			<point x="384" y="307"/>
			<point x="370" y="320"/>
			<point x="352" y="320" type="curve" smooth="yes"/>
			<point x="334" y="320"/>
			<point x="320" y="306"/>
			<point x="320" y="288" type="curve" smooth="yes"/>
			<point x="320" y="270"/>
			<point x="334" y="256"/>
			<point x="352" y="256" type="curve" smooth="yes"/>
			<point x="370" y="256"/>
			<point x="384" y="270"/>
		</contour>
		<contour>
			<point x="448" y="352" type="curve" smooth="yes"/>
			<point x="448" y="371"/>
			<point x="434" y="384"/>
			<point x="416" y="384" type="curve" smooth="yes"/>
			<point x="398" y="384"/>
			<point x="384" y="370"/>
			<point x="384" y="352" type="curve" smooth="yes"/>
			<point x="384" y="334"/>
			<point x="398" y="320"/>
			<point x="416" y="320" type="curve" smooth="yes"/>
			<point x="434" y="320"/>
			<point x="448" y="334"/>
		</contour>
		<contour>
			<point x="512" y="416" type="curve" smooth="yes"/>
			<point x="512" y="435"/>
			<point x="498" y="448"/>
			<point x="480" y="448" type="curve" smooth="yes"/>
			<point x="462" y="448"/>
			<point x="448" y="434"/>
			<point x="448" y="416" type="curve" smooth="yes"/>
			<point x="448" y="398"/>
			<point x="462" y="384"/>
			<point x="480" y="384" type="curve" smooth="yes"/>
			<point x="498" y="384"/>
			<point x="512" y="398"/>
		</contour>
		<contour>
			<point x="576" y="480" type="curve" smooth="yes"/>
			<point x="576" y="499"/>
			<point x="562" y="512"/>
			<point x="544" y="512" type="curve" smooth="yes"/>
			<point x="526" y="512"/>
			<point x="512" y="498"/>
			<point x="512" y="480" type="curve" smooth="yes"/>
			<point x="512" y="462"/>
			<point x="526" y="448"/>
			<point x="544" y="448" type="curve" smooth="yes"/>
			<point x="562" y="448"/>
			<point x="576" y="462"/>
		</contour>
		<contour>
			<point x="640" y="544" type="curve" smooth="yes"/>
			<point x="640" y="563"/>
			<point x="626" y="576"/>
			<point x="608" y="576" type="curve" smooth="yes"/>
			<point x="590" y="576"/>
			<point x="576" y="562"/>
			<point x="576" y="544" type="curve" smooth="yes"/>
			<point x="576" y="526"/>
			<point x="590" y="512"/>
			<point x="608" y="512" type="curve" smooth="yes"/>
			<point x="626" y="512"/>
			<point x="640" y="526"/>
		</contour>
		<contour>
			<point x="704" y="608" type="curve" smooth="yes"/>
			<point x="704" y="627"/>
			<point x="690" y="640"/>
			<point x="672" y="640" type="curve" smooth="yes"/>
			<point x="654" y="640"/>
			<point x="640" y="626"/>
			<point x="640" y="608" type="curve" smooth="yes"/>
			<point x="640" y="590"/>
			<point x="654" y="576"/>
			<point x="672" y="576" type="curve" smooth="yes"/>
			<point x="690" y="576"/>
			<point x="704" y="590"/>
		</contour>
	</outline>
</glyph>
<glyph name="zero" format="2">
	<advance width="512"/>
	<unicode hex="0030"/>
	<note>
		zero
	</note>
	<outline>
		<contour>
			<point x="320" y="32" type="curve" smooth="yes"/>
			<point x="320" y="51"/>
			<point x="306" y="64"/>
			<point x="288" y="64" type="curve" smooth="yes"/>
			<point x="270" y="64"/>
			<point x="256" y="78"/>
			<point x="256" y="96" type="curve" smooth="yes"/>
			<point x="256" y="114"/>
			<point x="242" y="128"/>
			<point x="224" y="128" type="curve" smooth="yes"/>
			<point x="206" y="128"/>
			<point x="192" y="142"/>
			<point x="192" y="160" type="curve" smooth="yes"/>
			<point x="192" y="178"/>
			<point x="178" y="192"/>
			<point x="160" y="192" type="curve" smooth="yes"/>
			<point x="142" y="192"/>
			<point x="128" y="206"/>
			<point x="128" y="224" type="curve" smooth="yes"/>
			<point x="128" y="242"/>
			<point x="142" y="256"/>
			<point x="160" y="256" type="curve" smooth="yes"/>
			<point x="178" y="256"/>
			<point x="192" y="270"/>
			<point x="192" y="288" type="curve" smooth="yes"/>
			<point x="192" y="306"/>
			<point x="178" y="320"/>
			<point x="160" y="320" type="curve" smooth="yes"/>
			<point x="142" y="320"/>
			<point x="128" y="336"/>
			<point x="128" y="356" type="curve" smooth="yes"/>
			<point x="128" y="604" type="line" smooth="yes"/>
			<point x="128" y="624"/>
			<point x="114" y="640"/>
			<point x="96" y="640" type="curve" smooth="yes"/>
			<point x="78" y="640"/>
			<point x="64" y="626"/>
			<point x="64" y="608" type="curve" smooth="yes"/>
			<point x="64" y="590"/>
			<point x="50" y="576"/>
			<point x="32" y="576" type="curve" smooth="yes"/>
			<point x="14" y="576"/>
			<point x="0" y="560"/>
			<point x="0" y="540" type="curve" smooth="yes"/>
			<point x="0" y="164" type="line" smooth="yes"/>
			<point x="0" y="144"/>
			<point x="14" y="128"/>
			<point x="32" y="128" type="curve" smooth="yes"/>
			<point x="50" y="128"/>
			<point x="64" y="114"/>
			<point x="64" y="96" type="curve" smooth="yes"/>
			<point x="64" y="78"/>
			<point x="78" y="64"/>
			<point x="96" y="64" type="curve" smooth="yes"/>
			<point x="114" y="64"/>
			<point x="128" y="50"/>
			<point x="128" y="32" type="curve" smooth="yes"/>
			<point x="128" y="14"/>
			<point x="144" y="0"/>
			<point x="164" y="0" type="curve" smooth="yes"/>
			<point x="284" y="0" type="line" smooth="yes"/>
			<point x="304" y="0"/>
			<point x="320" y="14"/>
		</contour>
		<contour>
			<point x="384" y="96" type="curve" smooth="yes"/>
			<point x="384" y="115"/>
			<point x="398" y="128"/>
			<point x="416" y="128" type="curve" smooth="yes"/>
			<point x="434" y="128"/>
			<point x="448" y="144"/>
			<point x="448" y="164" type="curve" smooth="yes"/>
			<point x="448" y="540" type="line" smooth="yes"/>
			<point x="448" y="560"/>
			<point x="434" y="576"/>
			<point x="416" y="576" type="curve" smooth="yes"/>
			<point x="398" y="576"/>
			<point x="384" y="590"/>
			<point x="384" y="608" type="curve" smooth="yes"/>
			<point x="384" y="626"/>
			<point x="370" y="640"/>
			<point x="352" y="640" type="curve" smooth="yes"/>
			<point x="334" y="640"/>
			<point x="320" y="654"/>
			<point x="320" y="672" type="curve" smooth="yes"/>
			<point x="320" y="690"/>
			<point x="304" y="704"/>
			<point x="284" y="704" type="curve" smooth="yes"/>
			<point x="164" y="704" type="line" smooth="yes"/>
			<point x="144" y="704"/>
			<point x="128" y="690"/>
			<point x="128" y="672" type="curve" smooth="yes"/>
			<point x="128" y="654"/>
			<point x="142" y="640"/>
			<point x="160" y="640" type="curve" smooth="yes"/>
			<point x="178" y="640"/>
			<point x="192" y="626"/>
			<point x="192" y="608" type="curve" smooth="yes"/>
			<point x="192" y="590"/>
			<point x="206" y="576"/>
			<point x="224" y="576" type="curve" smooth="yes"/>
			<point x="242" y="576"/>
			<point x="256" y="562"/>
			<point x="256" y="544" type="curve" smooth="yes"/>
			<point x="256" y="526"/>
			<point x="270" y="512"/>
			<point x="288" y="512" type="curve" smooth="yes"/>
			<point x="306" y="512"/>
			<point x="320" y="498"/>
			<point x="320" y="480" type="curve" smooth="yes"/>
			<point x="320" y="462"/>
			<point x="306" y="448"/>
			<point x="288" y="448" type="curve" smooth="yes"/>
			<point x="270" y="448"/>
			<point x="256" y="434"/>
			<point x="256" y="416" type="curve" smooth="yes"/>
			<point x="256" y="398"/>
			<point x="242" y="384"/>
			<point x="224" y="384" type="curve" smooth="yes"/>
			<point x="206" y="384"/>
			<point x="192" y="370"/>
			<point x="192" y="352" type="curve" smooth="yes"/>
			<point x="192" y="334"/>
			<point x="206" y="320"/>
			<point x="224" y="320" type="curve" smooth="yes"/>
			<point x="242" y="320"/>
			<point x="256" y="334"/>
			<point x="256" y="352" type="curve" smooth="yes"/>
			<point x="256" y="370"/>
			<point x="270" y="384"/>
			<point x="288" y="384" type="curve" smooth="yes"/>
			<point x="306" y="384"/>
			<point x="320" y="368"/>
			<point x="320" y="348" type="curve" smooth="yes"/>
			<point x="320" y="100" type="line" smooth="yes"/>
			<point x="320" y="80"/>
			<point x="334" y="64"/>
			<point x="352" y="64" type="curve" smooth="yes"/>
			<point x="370" y="64"/>
			<point x="384" y="78"/>
		</contour>
	</outline>
</glyph>
<glyph name="one" format="2">
	<advance width="320"/>
	<unicode hex="0031"/>
	<note>
		one
	</note>
	<outline>
		<contour>
			<point x="256" y="32" type="curve" smooth="yes"/>
			<point x="256" y="51"/>
			<point x="242" y="64"/>
			<point x="224" y="64" type="curve" smooth="yes"/>
			<point x="206" y="64"/>
			<point x="192" y="80"/>
			<point x="192" y="100" type="curve" smooth="yes"/>
			<point x="192" y="668" type="line" smooth="yes"/>
			<point x="192" y="688"/>
			<point x="178" y="704"/>
			<point x="160" y="704" type="curve" smooth="yes"/>
			<point x="142" y="704"/>
			<point x="128" y="690"/>
			<point x="128" y="672" type="curve" smooth="yes"/>
			<point x="128" y="654"/>
			<point x="114" y="640"/>
			<point x="96" y="640" type="curve" smooth="yes"/>
			<point x="78" y="640"/>
			<point x="64" y="626"/>
			<point x="64" y="608" type="curve" smooth="yes"/>
			<point x="64" y="590"/>
			<point x="50" y="576"/>
			<point x="32" y="576" type="curve" smooth="yes"/>
			<point x="14" y="576"/>
			<point x="0" y="562"/>
			<point x="0" y="544" type="curve" smooth="yes"/>
			<point x="0" y="526"/>
			<point x="14" y="512"/>
			<point x="32" y="512" type="curve" smooth="yes"/>
			<point x="50" y="512"/>
			<point x="64" y="496"/>
			<point x="64" y="476" type="curve" smooth="yes"/>
			<point x="64" y="100" type="line" smooth="yes"/>
			<point x="64" y="80"/>
			<point x="50" y="64"/>
			<point x="32" y="64" type="curve" smooth="yes"/>
			<point x="14" y="64"/>
			<point x="0" y="50"/>
			<point x="0" y="32" type="curve" smooth="yes"/>
			<point x="0" y="14"/>
			<point x="16" y="0"/>
			<point x="36" y="0" type="curve" smooth="yes"/>
			<point x="220" y="0" type="line" smooth="yes"/>
			<point x="240" y="0"/>
			<point x="256" y="14"/>
		</contour>
	</outline>
</glyph>
<glyph name="two" format="2">
	<advance width="448"/>
	<unicode hex="0032"/>
	<note>
		two
	</note>
	<outline>
		<contour>
			<point x="64" y="544" type="curve" smooth="yes"/>
			<point x="64" y="563"/>
			<point x="78" y="576"/>
			<point x="96" y="576" type="curve" smooth="yes"/>
			<point x="114" y="576"/>
			<point x="128" y="590"/>
			<point x="128" y="608" type="curve" smooth="yes"/>
			<point x="128" y="626"/>
			<point x="142" y="640"/>
			<point x="160" y="640" type="curve" smooth="yes"/>
			<point x="178" y="640"/>
			<point x="192" y="626"/>
			<point x="192" y="608" type="curve" smooth="yes"/>
			<point x="192" y="590"/>
			<point x="206" y="576"/>
			<point x="224" y="576" type="curve" smooth="yes"/>
			<point x="242" y="576"/>
			<point x="256" y="560"/>
			<point x="256" y="540" type="curve" smooth="yes"/>
			<point x="256" y="420" type="line" smooth="yes"/>
			<point x="256" y="400"/>
			<point x="242" y="384"/>
			<point x="224" y="384" type="curve" smooth="yes"/>
			<point x="206" y="384"/>
			<point x="192" y="370"/>
			<point x="192" y="352" type="curve" smooth="yes"/>
			<point x="192" y="334"/>
			<point x="178" y="320"/>
			<point x="160" y="320" type="curve" smooth="yes"/>
			<point x="142" y="320"/>
			<point x="128" y="306"/>
			<point x="128" y="288" type="curve" smooth="yes"/>
			<point x="128" y="270"/>
			<point x="114" y="256"/>
			<point x="96" y="256" type="curve" smooth="yes"/>
			<point x="78" y="256"/>
			<point x="64" y="242"/>
			<point x="64" y="224" type="curve" smooth="yes"/>
			<point x="64" y="206"/>
			<point x="50" y="192"/>
			<point x="32" y="192" type="curve" smooth="yes"/>
			<point x="14" y="192"/>
			<point x="0" y="176"/>
			<point x="0" y="156" type="curve" smooth="yes"/>
			<point x="0" y="36" type="line" smooth="yes"/>
			<point x="0" y="16"/>
			<point x="16" y="0"/>
			<point x="36" y="0" type="curve" smooth="yes"/>
			<point x="284" y="0" type="line" smooth="yes"/>
			<point x="304" y="0"/>
			<point x="320" y="14"/>
			<point x="320" y="32" type="curve" smooth="yes"/>
			<point x="320" y="50"/>
			<point x="334" y="64"/>
			<point x="352" y="64" type="curve" smooth="yes"/>
			<point x="370" y="64"/>
			<point x="384" y="78"/>
			<point x="384" y="96" type="curve" smooth="yes"/>
			<point x="384" y="114"/>
			<point x="368" y="128"/>
			<point x="348" y="128" type="curve" smooth="yes"/>
			<point x="164" y="128" type="line" smooth="yes"/>
			<point x="144" y="128"/>
			<point x="128" y="144"/>
			<point x="128" y="164" type="curve" smooth="yes"/>
			<point x="128" y="220" type="line" smooth="yes"/>
			<point x="128" y="240"/>
			<point x="142" y="256"/>
			<point x="160" y="256" type="curve" smooth="yes"/>
			<point x="178" y="256"/>
			<point x="192" y="270"/>
			<point x="192" y="288" type="curve" smooth="yes"/>
			<point x="192" y="306"/>
			<point x="206" y="320"/>
			<point x="224" y="320" type="curve" smooth="yes"/>
			<point x="242" y="320"/>
			<point x="256" y="334"/>
			<point x="256" y="352" type="curve" smooth="yes"/>
			<point x="256" y="370"/>
			<point x="270" y="384"/>
			<point x="288" y="384" type="curve" smooth="yes"/>
			<point x="306" y="384"/>
			<point x="320" y="398"/>
			<point x="320" y="416" type="curve" smooth="yes"/>
			<point x="320" y="434"/>
			<point x="334" y="448"/>
			<point x="352" y="448" type="curve" smooth="yes"/>
			<point x="370" y="448"/>
			<point x="384" y="464"/>
			<point x="384" y="484" type="curve" smooth="yes"/>
			<point x="384" y="604" type="line" smooth="yes"/>
			<point x="384" y="624"/>
			<point x="370" y="640"/>
			<point x="352" y="640" type="curve" smooth="yes"/>
			<point x="334" y="640"/>
			<point x="320" y="654"/>
			<point x="320" y="672" type="curve" smooth="yes"/>
			<point x="320" y="690"/>
			<point x="304" y="704"/>
			<point x="284" y="704" type="curve" smooth="yes"/>
			<point x="100" y="704" type="line" smooth="yes"/>
			<point x="80" y="704"/>
			<point x="64" y="690"/>
			<point x="64" y="672" type="curve" smooth="yes"/>
			<point x="64" y="654"/>
			<point x="50" y="640"/>
			<point x="32" y="640" type="curve" smooth="yes"/>
			<point x="14" y="640"/>
			<point x="0" y="624"/>
			<point x="0" y="604" type="curve" smooth="yes"/>
			<point x="0" y="548" type="line" smooth="yes"/>
			<point x="0" y="528"/>
			<point x="14" y="512"/>
			<point x="32" y="512" type="curve" smooth="yes"/>
			<point x="50" y="512"/>
			<point x="64" y="526"/>
		</contour>
	</outline>
</glyph>
<glyph name="three" format="2">
	<advance width="512"/>
	<unicode hex="0033"/>
	<note>
		three
	</note>
	<outline>
		<contour>
			<point x="64" y="544" type="curve" smooth="yes"/>
			<point x="64" y="563"/>
			<point x="50" y="576"/>
			<point x="32" y="576" type="curve" smooth="yes"/>
			<point x="14" y="576"/>
			<point x="0" y="562"/>
			<point x="0" y="544" type="curve" smooth="yes"/>
			<point x="0" y="526"/>
			<point x="14" y="512"/>
			<point x="32" y="512" type="curve" smooth="yes"/>
			<point x="50" y="512"/>
			<point x="64" y="526"/>
		</contour>
		<contour>
			<point x="192" y="96" type="curve" smooth="yes"/>
			<point x="192" y="115"/>
			<point x="178" y="128"/>
			<point x="160" y="128" type="curve" smooth="yes"/>
			<point x="142" y="128"/>
			<point x="128" y="142"/>
			<point x="128" y="160" type="curve" smooth="yes"/>
			<point x="128" y="178"/>
			<point x="112" y="192"/>
			<point x="92" y="192" type="curve" smooth="yes"/>
			<point x="36" y="192" type="line" smooth="yes"/>
			<point x="16" y="192"/>
			<point x="0" y="176"/>
			<point x="0" y="156" type="curve" smooth="yes"/>
			<point x="0" y="100" type="line" smooth="yes"/>
			<point x="0" y="80"/>
			<point x="14" y="64"/>
			<point x="32" y="64" type="curve" smooth="yes"/>
			<point x="50" y="64"/>
			<point x="64" y="50"/>
			<point x="64" y="32" type="curve" smooth="yes"/>
			<point x="64" y="14"/>
			<point x="80" y="0"/>
			<point x="100" y="0" type="curve" smooth="yes"/>
			<point x="284" y="0" type="line" smooth="yes"/>
			<point x="304" y="0"/>
			<point x="320" y="14"/>
			<point x="320" y="32" type="curve" smooth="yes"/>
			<point x="320" y="50"/>
			<point x="304" y="64"/>
			<point x="284" y="64" type="curve" smooth="yes"/>
			<point x="228" y="64" type="line" smooth="yes"/>
			<point x="208" y="64"/>
			<point x="192" y="78"/>
		</contour>
		<contour>
			<point x="384" y="96" type="curve" smooth="yes"/>
			<point x="384" y="115"/>
			<point x="398" y="128"/>
			<point x="416" y="128" type="curve" smooth="yes"/>
			<point x="434" y="128"/>
			<point x="448" y="144"/>
			<point x="448" y="164" type="curve" smooth="yes"/>
			<point x="448" y="284" type="line" smooth="yes"/>
			<point x="448" y="304"/>
			<point x="434" y="320"/>
			<point x="416" y="320" type="curve" smooth="yes"/>
			<point x="398" y="320"/>
			<point x="384" y="336"/>
			<point x="384" y="356" type="curve" smooth="yes"/>
			<point x="384" y="412" type="line" smooth="yes"/>
			<point x="384" y="432"/>
			<point x="398" y="448"/>
			<point x="416" y="448" type="curve" smooth="yes"/>
			<point x="434" y="448"/>
			<point x="448" y="464"/>
			<point x="448" y="484" type="curve" smooth="yes"/>
			<point x="448" y="540" type="line" smooth="yes"/>
			<point x="448" y="560"/>
			<point x="434" y="576"/>
			<point x="416" y="576" type="curve" smooth="yes"/>
			<point x="398" y="576"/>
			<point x="384" y="590"/>
			<point x="384" y="608" type="curve" smooth="yes"/>
			<point x="384" y="626"/>
			<point x="370" y="640"/>
			<point x="352" y="640" type="curve" smooth="yes"/>
			<point x="334" y="640"/>
			<point x="320" y="654"/>
			<point x="320" y="672" type="curve" smooth="yes"/>
			<point x="320" y="690"/>
			<point x="304" y="704"/>
			<point x="284" y="704" type="curve" smooth="yes"/>
			<point x="164" y="704" type="line" smooth="yes"/>
			<point x="144" y="704"/>
			<point x="128" y="690"/>
			<point x="128" y="672" type="curve" smooth="yes"/>
			<point x="128" y="654"/>
			<point x="114" y="640"/>
			<point x="96" y="640" type="curve" smooth="yes"/>
			<point x="78" y="640"/>
			<point x="64" y="626"/>
			<point x="64" y="608" type="curve" smooth="yes"/>
			<point x="64" y="590"/>
			<point x="80" y="576"/>
			<point x="100" y="576" type="curve" smooth="yes"/>
			<point x="220" y="576" type="line" smooth="yes"/>
			<point x="240" y="576"/>
			<point x="256" y="562"/>
			<point x="256" y="544" type="curve" smooth="yes"/>
			<point x="256" y="526"/>
			<point x="270" y="512"/>
			<point x="288" y="512" type="curve" smooth="yes"/>
			<point x="306" y="512"/>
			<point x="320" y="496"/>
			<point x="320" y="476" type="curve" smooth="yes"/>
			<point x="320" y="420" type="line" smooth="yes"/>
			<point x="320" y="400"/>
			<point x="304" y="384"/>
			<point x="284" y="384" type="curve" smooth="yes"/>
			<point x="228" y="384" type="line" smooth="yes"/>
			<point x="208" y="384"/>
			<point x="192" y="370"/>
			<point x="192" y="352" type="curve" smooth="yes"/>
			<point x="192" y="334"/>
			<point x="206" y="320"/>
			<point x="224" y="320" type="curve" smooth="yes"/>
			<point x="242" y="320"/>
			<point x="256" y="306"/>
			<point x="256" y="288" type="curve" smooth="yes"/>
			<point x="256" y="270"/>
			<point x="270" y="256"/>
			<point x="288" y="256" type="curve" smooth="yes"/>
			<point x="306" y="256"/>
			<point x="320" y="240"/>
			<point x="320" y="220" type="curve" smooth="yes"/>
			<point x="320" y="100" type="line" smooth="yes"/>
			<point x="320" y="80"/>
			<point x="334" y="64"/>
			<point x="352" y="64" type="curve" smooth="yes"/>
			<point x="370" y="64"/>
			<point x="384" y="78"/>
		</contour>
	</outline>
</glyph>
<glyph name="four" format="2">
	<advance width="640"/>
	<unicode hex="0034"/>
	<note>
		four
	</note>
	<outline>
		<contour>
			<point x="448" y="36" type="curve" smooth="yes"/>
			<point x="448" y="156" type="line" smooth="yes"/>
			<point x="448" y="176"/>
			<point x="462" y="192"/>
			<point x="480" y="192" type="curve" smooth="yes"/>
			<point x="498" y="192"/>
			<point x="512" y="206"/>
			<point x="512" y="224" type="curve" smooth="yes"/>
			<point x="512" y="242"/>
			<point x="526" y="256"/>
			<point x="544" y="256" type="curve" smooth="yes"/>
			<point x="562" y="256"/>
			<point x="576" y="270"/>
			<point x="576" y="288" type="curve" smooth="yes"/>
			<point x="576" y="306"/>
			<point x="560" y="320"/>
			<point x="540" y="320" type="curve" smooth="yes"/>
			<point x="484" y="320" type="line" smooth="yes"/>
			<point x="464" y="320"/>
			<point x="448" y="336"/>
			<point x="448" y="356" type="curve" smooth="yes"/>
			<point x="448" y="668" type="line" smooth="yes"/>
			<point x="448" y="688"/>
			<point x="432" y="704"/>
			<point x="412" y="704" type="curve" smooth="yes"/>
			<point x="356" y="704" type="line" smooth="yes"/>
			<point x="336" y="704"/>
			<point x="320" y="690"/>
			<point x="320" y="672" type="curve" smooth="yes"/>
			<point x="320" y="654"/>
			<point x="306" y="640"/>
			<point x="288" y="640" type="curve" smooth="yes"/>
			<point x="270" y="640"/>
			<point x="256" y="626"/>
			<point x="256" y="608" type="curve" smooth="yes"/>
			<point x="256" y="590"/>
			<point x="242" y="576"/>
			<point x="224" y="576" type="curve" smooth="yes"/>
			<point x="206" y="576"/>
			<point x="192" y="562"/>
			<point x="192" y="544" type="curve" smooth="yes"/>
			<point x="192" y="526"/>
			<point x="178" y="512"/>
			<point x="160" y="512" type="curve" smooth="yes"/>
			<point x="142" y="512"/>
			<point x="128" y="498"/>
			<point x="128" y="480" type="curve" smooth="yes"/>
			<point x="128" y="462"/>
			<point x="114" y="448"/>
			<point x="96" y="448" type="curve" smooth="yes"/>
			<point x="78" y="448"/>
			<point x="64" y="434"/>
			<point x="64" y="416" type="curve" smooth="yes"/>
			<point x="64" y="398"/>
			<point x="50" y="384"/>
			<point x="32" y="384" type="curve" smooth="yes"/>
			<point x="14" y="384"/>
			<point x="0" y="368"/>
			<point x="0" y="348" type="curve" smooth="yes"/>
			<point x="0" y="228" type="line" smooth="yes"/>
			<point x="0" y="208"/>
			<point x="16" y="192"/>
			<point x="36" y="192" type="curve" smooth="yes"/>
			<point x="284" y="192" type="line" smooth="yes"/>
			<point x="304" y="192"/>
			<point x="320" y="176"/>
			<point x="320" y="156" type="curve" smooth="yes"/>
			<point x="320" y="36" type="line" smooth="yes"/>
			<point x="320" y="16"/>
			<point x="336" y="0"/>
			<point x="356" y="0" type="curve" smooth="yes"/>
			<point x="412" y="0" type="line" smooth="yes"/>
			<point x="432" y="0"/>
			<point x="448" y="16"/>
		</contour>
		<contour>
			<point x="284" y="320" type="curve" smooth="yes"/>
			<point x="164" y="320" type="line" smooth="yes"/>
			<point x="144" y="320"/>
			<point x="128" y="336"/>
			<point x="128" y="356" type="curve" smooth="yes"/>
			<point x="128" y="412" type="line" smooth="yes"/>
			<point x="128" y="432"/>
			<point x="142" y="448"/>
			<point x="160" y="448" type="curve" smooth="yes"/>
			<point x="178" y="448"/>
			<point x="192" y="462"/>
			<point x="192" y="480" type="curve" smooth="yes"/>
			<point x="192" y="498"/>
			<point x="206" y="512"/>
			<point x="224" y="512" type="curve" smooth="yes"/>
			<point x="242" y="512"/>
			<point x="256" y="526"/>
			<point x="256" y="544" type="curve" smooth="yes"/>
			<point x="256" y="562"/>
			<point x="270" y="576"/>
			<point x="288" y="576" type="curve" smooth="yes"/>
			<point x="306" y="576"/>
			<point x="320" y="560"/>
			<point x="320" y="540" type="curve" smooth="yes"/>
			<point x="320" y="356" type="line" smooth="yes"/>
			<point x="320" y="336"/>
			<point x="304" y="320"/>
		</contour>
	</outline>
</glyph>
<glyph name="five" format="2">
	<advance width="512"/>
	<unicode hex="0035"/>
	<note>
		five
	</note>
	<outline>
		<contour>
			<point x="64" y="288" type="curve" smooth="yes"/>
			<point x="64" y="307"/>
			<point x="78" y="320"/>
			<point x="96" y="320" type="curve" smooth="yes"/>
			<point x="114" y="320"/>
			<point x="128" y="334"/>
			<point x="128" y="352" type="curve" smooth="yes"/>
			<point x="128" y="370"/>
			<point x="144" y="384"/>
			<point x="164" y="384" type="curve" smooth="yes"/>
			<point x="220" y="384" type="line" smooth="yes"/>
			<point x="240" y="384"/>
			<point x="256" y="370"/>
			<point x="256" y="352" type="curve" smooth="yes"/>
			<point x="256" y="334"/>
			<point x="270" y="320"/>
			<point x="288" y="320" type="curve" smooth="yes"/>
			<point x="306" y="320"/>
			<point x="320" y="304"/>
			<point x="320" y="284" type="curve" smooth="yes"/>
			<point x="320" y="100" type="line" smooth="yes"/>
			<point x="320" y="80"/>
			<point x="304" y="64"/>
			<point x="284" y="64" type="curve" smooth="yes"/>
			<point x="228" y="64" type="line" smooth="yes"/>
			<point x="208" y="64"/>
			<point x="192" y="78"/>
			<point x="192" y="96" type="curve" smooth="yes"/>
			<point x="192" y="114"/>
			<point x="178" y="128"/>
			<point x="160" y="128" type="curve" smooth="yes"/>
			<point x="142" y="128"/>
			<point x="128" y="142"/>
			<point x="128" y="160" type="curve" smooth="yes"/>
			<point x="128" y="178"/>
			<point x="112" y="192"/>
			<point x="92" y="192" type="curve" smooth="yes"/>
			<point x="36" y="192" type="line" smooth="yes"/>
			<point x="16" y="192"/>
			<point x="0" y="176"/>
			<point x="0" y="156" type="curve" smooth="yes"/>
			<point x="0" y="100" type="line" smooth="yes"/>
			<point x="0" y="80"/>
			<point x="14" y="64"/>
			<point x="32" y="64" type="curve" smooth="yes"/>
			<point x="50" y="64"/>
			<point x="64" y="50"/>
			<point x="64" y="32" type="curve" smooth="yes"/>
			<point x="64" y="14"/>
			<point x="80" y="0"/>
			<point x="100" y="0" type="curve" smooth="yes"/>
			<point x="284" y="0" type="line" smooth="yes"/>
			<point x="304" y="0"/>
			<point x="320" y="14"/>
			<point x="320" y="32" type="curve" smooth="yes"/>
			<point x="320" y="50"/>
			<point x="334" y="64"/>
			<point x="352" y="64" type="curve" smooth="yes"/>
			<point x="370" y="64"/>
			<point x="384" y="78"/>
			<point x="384" y="96" type="curve" smooth="yes"/>
			<point x="384" y="114"/>
			<point x="398" y="128"/>
			<point x="416" y="128" type="curve" smooth="yes"/>
			<point x="434" y="128"/>
			<point x="448" y="144"/>
			<point x="448" y="164" type="curve" smooth="yes"/>
			<point x="448" y="348" type="line" smooth="yes"/>
			<point x="448" y="368"/>
			<point x="434" y="384"/>
			<point x="416" y="384" type="curve" smooth="yes"/>
			<point x="398" y="384"/>
			<point x="384" y="398"/>
			<point x="384" y="416" type="curve" smooth="yes"/>
			<point x="384" y="434"/>
			<point x="370" y="448"/>
			<point x="352" y="448" type="curve" smooth="yes"/>
			<point x="334" y="448"/>
			<point x="320" y="462"/>
			<point x="320" y="480" type="curve" smooth="yes"/>
			<point x="320" y="498"/>
			<point x="304" y="512"/>
			<point x="284" y="512" type="curve" smooth="yes"/>
			<point x="228" y="512" type="line" smooth="yes"/>
			<point x="208" y="512"/>
			<point x="192" y="498"/>
			<point x="192" y="480" type="curve" smooth="yes"/>
			<point x="192" y="462"/>
			<point x="178" y="448"/>
			<point x="160" y="448" type="curve" smooth="yes"/>
			<point x="142" y="448"/>
			<point x="128" y="464"/>
			<point x="128" y="484" type="curve" smooth="yes"/>
			<point x="128" y="604" type="line" smooth="yes"/>
			<point x="128" y="624"/>
			<point x="144" y="640"/>
			<point x="164" y="640" type="curve" smooth="yes"/>
			<point x="412" y="640" type="line" smooth="yes"/>
			<point x="432" y="640"/>
			<point x="448" y="654"/>
			<point x="448" y="672" type="curve" smooth="yes"/>
			<point x="448" y="690"/>
			<point x="432" y="704"/>
			<point x="412" y="704" type="curve" smooth="yes"/>
			<point x="36" y="704" type="line" smooth="yes"/>
			<point x="16" y="704"/>
			<point x="0" y="688"/>
			<point x="0" y="668" type="curve" smooth="yes"/>
			<point x="0" y="292" type="line" smooth="yes"/>
			<point x="0" y="272"/>
			<point x="14" y="256"/>
			<point x="32" y="256" type="curve" smooth="yes"/>
			<point x="50" y="256"/>
			<point x="64" y="270"/>
		</contour>
	</outline>
</glyph>
<glyph name="seven" format="2">
	<advance width="576"/>
	<unicode hex="0037"/>
	<note>
		seven
	</note>
	<outline>
		<contour>
			<point x="64" y="544" type="curve" smooth="yes"/>
			<point x="64" y="563"/>
			<point x="50" y="576"/>
			<point x="32" y="576" type="curve" smooth="yes"/>
			<point x="14" y="576"/>
			<point x="0" y="562"/>
			<point x="0" y="544" type="curve" smooth="yes"/>
			<point x="0" y="526"/>
			<point x="14" y="512"/>
			<point x="32" y="512" type="curve" smooth="yes"/>
			<point x="50" y="512"/>
			<point x="64" y="526"/>
		</contour>
		<contour>
			<point x="320" y="32" type="curve" smooth="yes"/>
			<point x="320" y="51"/>
			<point x="334" y="64"/>
			<point x="352" y="64" type="curve" smooth="yes"/>
			<point x="370" y="64"/>
			<point x="384" y="78"/>
			<point x="384" y="96" type="curve" smooth="yes"/>
			<point x="384" y="114"/>
			<point x="370" y="128"/>
			<point x="352" y="128" type="curve" smooth="yes"/>
			<point x="334" y="128"/>
			<point x="320" y="144"/>
			<point x="320" y="164" type="curve" smooth="yes"/>
			<point x="320" y="412" type="line" smooth="yes"/>
			<point x="320" y="432"/>
			<point x="306" y="448"/>
			<point x="288" y="448" type="curve" smooth="yes"/>
			<point x="270" y="448"/>
			<point x="256" y="434"/>
			<point x="256" y="416" type="curve" smooth="yes"/>
			<point x="256" y="398"/>
			<point x="242" y="384"/>
			<point x="224" y="384" type="curve" smooth="yes"/>
			<point x="206" y="384"/>
			<point x="192" y="368"/>
			<point x="192" y="348" type="curve" smooth="yes"/>
			<point x="192" y="36" type="line" smooth="yes"/>
			<point x="192" y="16"/>
			<point x="208" y="0"/>
			<point x="228" y="0" type="curve" smooth="yes"/>
			<point x="284" y="0" type="line" smooth="yes"/>
			<point x="304" y="0"/>
			<point x="320" y="14"/>
		</contour>
		<contour>
			<point x="384" y="480" type="curve" smooth="yes"/>
			<point x="384" y="499"/>
			<point x="370" y="512"/>
			<point x="352" y="512" type="curve" smooth="yes"/>
			<point x="334" y="512"/>
			<point x="320" y="498"/>
			<point x="320" y="480" type="curve" smooth="yes"/>
			<point x="320" y="462"/>
			<point x="334" y="448"/>
			<point x="352" y="448" type="curve" smooth="yes"/>
			<point x="370" y="448"/>
			<point x="384" y="462"/>
		</contour>
		<contour>
			<point x="448" y="544" type="curve" smooth="yes"/>
			<point x="448" y="563"/>
			<point x="462" y="576"/>
			<point x="480" y="576" type="curve" smooth="yes"/>
			<point x="498" y="576"/>
			<point x="512" y="592"/>
			<point x="512" y="612" type="curve" smooth="yes"/>
			<point x="512" y="668" type="line" smooth="yes"/>
			<point x="512" y="688"/>
			<point x="496" y="704"/>
			<point x="476" y="704" type="curve" smooth="yes"/>
			<point x="164" y="704" type="line" smooth="yes"/>
			<point x="144" y="704"/>
			<point x="128" y="690"/>
			<point x="128" y="672" type="curve" smooth="yes"/>
			<point x="128" y="654"/>
			<point x="114" y="640"/>
			<point x="96" y="640" type="curve" smooth="yes"/>
			<point x="78" y="640"/>
			<point x="64" y="626"/>
			<point x="64" y="608" type="curve" smooth="yes"/>
			<point x="64" y="590"/>
			<point x="80" y="576"/>
			<point x="100" y="576" type="curve" smooth="yes"/>
			<point x="348" y="576" type="line" smooth="yes"/>
			<point x="368" y="576"/>
			<point x="384" y="562"/>
			<point x="384" y="544" type="curve" smooth="yes"/>
			<point x="384" y="526"/>
			<point x="398" y="512"/>
			<point x="416" y="512" type="curve" smooth="yes"/>
			<point x="434" y="512"/>
			<point x="448" y="526"/>
		</contour>
	</outline>
</glyph>
<glyph name="nine" format="2">
	<advance width="576"/>
	<unicode hex="0039"/>
	<note>
		nine
	</note>
	<outline>
		<contour>
			<point x="192" y="96" type="curve" smooth="yes"/>
			<point x="192" y="115"/>
			<point x="178" y="128"/>
			<point x="160" y="128" type="curve" smooth="yes"/>
			<point x="142" y="128"/>
			<point x="128" y="142"/>
			<point x="128" y="160" type="curve" smooth="yes"/>
			<point x="128" y="178"/>
			<point x="112" y="192"/>
			<point x="92" y="192" type="curve" smooth="yes"/>
			<point x="36" y="192" type="line" smooth="yes"/>
			<point x="16" y="192"/>
			<point x="0" y="176"/>
			<point x="0" y="156" type="curve" smooth="yes"/>
			<point x="0" y="100" type="line" smooth="yes"/>
			<point x="0" y="80"/>
			<point x="14" y="64"/>
			<point x="32" y="64" type="curve" smooth="yes"/>
			<point x="50" y="64"/>
			<point x="64" y="50"/>
			<point x="64" y="32" type="curve" smooth="yes"/>
			<point x="64" y="14"/>
			<point x="80" y="0"/>
			<point x="100" y="0" type="curve" smooth="yes"/>
			<point x="284" y="0" type="line" smooth="yes"/>
			<point x="304" y="0"/>
			<point x="320" y="14"/>
			<point x="320" y="32" type="curve" smooth="yes"/>
			<point x="320" y="50"/>
			<point x="304" y="64"/>
			<point x="284" y="64" type="curve" smooth="yes"/>
			<point x="228" y="64" type="line" smooth="yes"/>
			<point x="208" y="64"/>
			<point x="192" y="78"/>
		</contour>
		<contour>
			<point x="384" y="96" type="curve" smooth="yes"/>
			<point x="384" y="115"/>
			<point x="370" y="128"/>
			<point x="352" y="128" type="curve" smooth="yes"/>
			<point x="334" y="128"/>
			<point x="320" y="114"/>
			<point x="320" y="96" type="curve" smooth="yes"/>
			<point x="320" y="78"/>
			<point x="334" y="64"/>
			<point x="352" y="64" type="curve" smooth="yes"/>
			<point x="370" y="64"/>
			<point x="384" y="78"/>
		</contour>
		<contour>
			<point x="448" y="160" type="curve" smooth="yes"/>
			<point x="448" y="179"/>
			<point x="462" y="192"/>
			<point x="480" y="192" type="curve" smooth="yes"/>
			<point x="498" y="192"/>
			<point x="512" y="208"/>
			<point x="512" y="228" type="curve" smooth="yes"/>
			<point x="512" y="540" type="line" smooth="yes"/>
			<point x="512" y="560"/>
			<point x="498" y="576"/>
			<point x="480" y="576" type="curve" smooth="yes"/>
			<point x="462" y="576"/>
			<point x="448" y="590"/>
			<point x="448" y="608" type="curve" smooth="yes"/>
			<point x="448" y="626"/>
			<point x="434" y="640"/>
			<point x="416" y="640" type="curve" smooth="yes"/>
			<point x="398" y="640"/>
			<point x="384" y="654"/>
			<point x="384" y="672" type="curve" smooth="yes"/>
			<point x="384" y="690"/>
			<point x="368" y="704"/>
			<point x="348" y="704" type="curve" smooth="yes"/>
			<point x="164" y="704" type="line" smooth="yes"/>
			<point x="144" y="704"/>
			<point x="128" y="690"/>
			<point x="128" y="672" type="curve" smooth="yes"/>
			<point x="128" y="654"/>
			<point x="114" y="640"/>
			<point x="96" y="640" type="curve" smooth="yes"/>
			<point x="78" y="640"/>
			<point x="64" y="626"/>
			<point x="64" y="608" type="curve" smooth="yes"/>
			<point x="64" y="590"/>
			<point x="50" y="576"/>
			<point x="32" y="576" type="curve" smooth="yes"/>
			<point x="14" y="576"/>
			<point x="0" y="560"/>
			<point x="0" y="540" type="curve" smooth="yes"/>
			<point x="0" y="420" type="line" smooth="yes"/>
			<point x="0" y="400"/>
			<point x="14" y="384"/>
			<point x="32" y="384" type="curve" smooth="yes"/>
			<point x="50" y="384"/>
			<point x="64" y="370"/>
			<point x="64" y="352" type="curve" smooth="yes"/>
			<point x="64" y="334"/>
			<point x="78" y="320"/>
			<point x="96" y="320" type="curve" smooth="yes"/>
			<point x="114" y="320"/>
			<point x="128" y="306"/>
			<point x="128" y="288" type="curve" smooth="yes"/>
			<point x="128" y="270"/>
			<point x="144" y="256"/>
			<point x="164" y="256" type="curve" smooth="yes"/>
			<point x="348" y="256" type="line" smooth="yes"/>
			<point x="368" y="256"/>
			<point x="384" y="240"/>
			<point x="384" y="220" type="curve" smooth="yes"/>
			<point x="384" y="164" type="line" smooth="yes"/>
			<point x="384" y="144"/>
			<point x="398" y="128"/>
			<point x="416" y="128" type="curve" smooth="yes"/>
			<point x="434" y="128"/>
			<point x="448" y="142"/>
		</contour>
		<contour>
			<point x="256" y="352" type="curve" smooth="yes"/>
			<point x="256" y="371"/>
			<point x="242" y="384"/>
			<point x="224" y="384" type="curve" smooth="yes"/>
			<point x="206" y="384"/>
			<point x="192" y="398"/>
			<point x="192" y="416" type="curve" smooth="yes"/>
			<point x="192" y="434"/>
			<point x="178" y="448"/>
			<point x="160" y="448" type="curve" smooth="yes"/>
			<point x="142" y="448"/>
			<point x="128" y="464"/>
			<point x="128" y="484" type="curve" smooth="yes"/>
			<point x="128" y="604" type="line" smooth="yes"/>
			<point x="128" y="624"/>
			<point x="144" y="640"/>
			<point x="164" y="640" type="curve" smooth="yes"/>
			<point x="220" y="640" type="line" smooth="yes"/>
			<point x="240" y="640"/>
			<point x="256" y="626"/>
			<point x="256" y="608" type="curve" smooth="yes"/>
			<point x="256" y="590"/>
			<point x="270" y="576"/>
			<point x="288" y="576" type="curve" smooth="yes"/>
			<point x="306" y="576"/>
			<point x="320" y="562"/>
			<point x="320" y="544" type="curve" smooth="yes"/>
			<point x="320" y="526"/>
			<point x="334" y="512"/>
			<point x="352" y="512" type="curve" smooth="yes"/>
			<point x="370" y="512"/>
			<point x="384" y="496"/>
			<point x="384" y="476" type="curve" smooth="yes"/>
			<point x="384" y="356" type="line" smooth="yes"/>
			<point x="384" y="336"/>
			<point x="368" y="320"/>
			<point x="348" y="320" type="curve" smooth="yes"/>
			<point x="292" y="320" type="line" smooth="yes"/>
			<point x="272" y="320"/>
			<point x="256" y="334"/>
		</contour>
	</outline>
</glyph>
<glyph name="colon" format="2">
	<advance width="256"/>
	<unicode hex="003A"/>
	<note>
		colon
	</note>
	<outline>
		<contour>
			<point x="192" y="36" type="curve" smooth="yes"/>
			<point x="192" y="92" type="line" smooth="yes"/>
			<point x="192" y="112"/>
			<point x="176" y="128"/>
			<point x="156" y="128" type="curve" smooth="yes"/>
			<point x="100" y="128" type="line" smooth="yes"/>
			<point x="80" y="128"/>
			<point x="64" y="112"/>
			<point x="64" y="92" type="curve" smooth="yes"/>
			<point x="64" y="36" type="line" smooth="yes"/>
			<point x="64" y="16"/>
			<point x="80" y="0"/>
			<point x="100" y="0" type="curve" smooth="yes"/>
			<point x="156" y="0" type="line" smooth="yes"/>
			<point x="176" y="0"/>
			<point x="192" y="16"/>
		</contour>
		<contour>
			<point x="192" y="356" type="curve" smooth="yes"/>
			<point x="192" y="412" type="line" smooth="yes"/>
			<point x="192" y="432"/>
			<point x="176" y="448"/>
			<point x="156" y="448" type="curve" smooth="yes"/>
			<point x="100" y="448" type="line" smooth="yes"/>
			<point x="80" y="448"/>
			<point x="64" y="432"/>
			<point x="64" y="412" type="curve" smooth="yes"/>
			<point x="64" y="356" type="line" smooth="yes"/>
			<point x="64" y="336"/>
			<point x="80" y="320"/>
			<point x="100" y="320" type="curve" smooth="yes"/>
			<point x="156" y="320" type="line" smooth="yes"/>
			<point x="176" y="320"/>
			<point x="192" y="336"/>
		</contour>
	</outline>
</glyph>
<glyph name="semicolon" format="2">
	<advance width="256"/>
	<unicode hex="003B"/>
	<note>
		semicolon
	</note>
	<outline>
		<contour>
			<point x="64" y="-160" type="curve" smooth="yes"/>
			<point x="64" y="-141"/>
			<point x="50" y="-128"/>
			<point x="32" y="-128" type="curve" smooth="yes"/>
			<point x="14" y="-128"/>
			<point x="0" y="-142"/>
			<point x="0" y="-160" type="curve" smooth="yes"/>
			<point x="0" y="-178"/>
			<point x="14" y="-192"/>
			<point x="32" y="-192" type="curve" smooth="yes"/>
			<point x="50" y="-192"/>
			<point x="64" y="-178"/>
		</contour>
		<contour>
			<point x="128" y="-96" type="curve" smooth="yes"/>
			<point x="128" y="-77"/>
			<point x="142" y="-64"/>
			<point x="160" y="-64" type="curve" smooth="yes"/>
			<point x="178" y="-64"/>
			<point x="192" y="-48"/>
			<point x="192" y="-28" type="curve" smooth="yes"/>
			<point x="192" y="92" type="line" smooth="yes"/>
			<point x="192" y="112"/>
			<point x="176" y="128"/>
			<point x="156" y="128" type="curve" smooth="yes"/>
			<point x="100" y="128" type="line" smooth="yes"/>
			<point x="80" y="128"/>
			<point x="64" y="114"/>
			<point x="64" y="96" type="curve" smooth="yes"/>
			<point x="64" y="78"/>
			<point x="50" y="64"/>
			<point x="32" y="64" type="curve" smooth="yes"/>
			<point x="14" y="64"/>
			<point x="0" y="50"/>
			<point x="0" y="32" type="curve" smooth="yes"/>
			<point x="0" y="14"/>
			<point x="14" y="0"/>
			<point x="32" y="0" type="curve" smooth="yes"/>
			<point x="50" y="0"/>
			<point x="64" y="-16"/>
			<point x="64" y="-36" type="curve" smooth="yes"/>
			<point x="64" y="-92" type="line" smooth="yes"/>
			<point x="64" y="-112"/>
			<point x="78" y="-128"/>
			<point x="96" y="-128" type="curve" smooth="yes"/>
			<point x="114" y="-128"/>
			<point x="128" y="-114"/>
		</contour>
		<contour>
			<point x="192" y="356" type="curve" smooth="yes"/>
			<point x="192" y="412" type="line" smooth="yes"/>
			<point x="192" y="432"/>
			<point x="176" y="448"/>
			<point x="156" y="448" type="curve" smooth="yes"/>
			<point x="100" y="448" type="line" smooth="yes"/>
			<point x="80" y="448"/>
			<point x="64" y="432"/>
			<point x="64" y="412" type="curve" smooth="yes"/>
			<point x="64" y="356" type="line" smooth="yes"/>
			<point x="64" y="336"/>
			<point x="80" y="320"/>
			<point x="100" y="320" type="curve" smooth="yes"/>
			<point x="156" y="320" type="line" smooth="yes"/>
			<point x="176" y="320"/>
			<point x="192" y="336"/>
		</contour>
	</outline>
</glyph>
<glyph name="less" format="2">
	<advance width="384"/>
	<unicode hex="003C"/>
	<note>
		less
	</note>
	<outline>
		<contour>
			<point x="320" y="32" type="curve" smooth="yes"/>
			<point x="320" y="51"/>
			<point x="306" y="64"/>
			<point x="288" y="64" type="curve" smooth="yes"/>
			<point x="270" y="64"/>
			<point x="256" y="78"/>
			<point x="256" y="96" type="curve" smooth="yes"/>
			<point x="256" y="114"/>
			<point x="242" y="128"/>
			<point x="224" y="128" type="curve" smooth="yes"/>
			<point x="206" y="128"/>
			<point x="192" y="142"/>
			<point x="192" y="160" type="curve" smooth="yes"/>
			<point x="192" y="178"/>
			<point x="178" y="192"/>
			<point x="160" y="192" type="curve" smooth="yes"/>
			<point x="142" y="192"/>
			<point x="128" y="206"/>
			<point x="128" y="224" type="curve" smooth="yes"/>
			<point x="128" y="242"/>
			<point x="114" y="256"/>
			<point x="96" y="256" type="curve" smooth="yes"/>
			<point x="78" y="256"/>
			<point x="64" y="270"/>
			<point x="64" y="288" type="curve" smooth="yes"/>
			<point x="64" y="306"/>
			<point x="78" y="320"/>
			<point x="96" y="320" type="curve" smooth="yes"/>
			<point x="114" y="320"/>
			<point x="128" y="334"/>
			<point x="128" y="352" type="curve" smooth="yes"/>
			<point x="128" y="370"/>
			<point x="142" y="384"/>
			<point x="160" y="384" type="curve" smooth="yes"/>
			<point x="178" y="384"/>
			<point x="192" y="398"/>
			<point x="192" y="416" type="curve" smooth="yes"/>
			<point x="192" y="434"/>
			<point x="206" y="448"/>
			<point x="224" y="448" type="curve" smooth="yes"/>
			<point x="242" y="448"/>
			<point x="256" y="462"/>
			<point x="256" y="480" type="curve" smooth="yes"/>
			<point x="256" y="498"/>
			<point x="270" y="512"/>
			<point x="288" y="512" type="curve" smooth="yes"/>
			<point x="306" y="512"/>
			<point x="320" y="526"/>
			<point x="320" y="544" type="curve" smooth="yes"/>
			<point x="320" y="562"/>
			<point x="304" y="576"/>
			<point x="284" y="576" type="curve" smooth="yes"/>
			<point x="228" y="576" type="line" smooth="yes"/>
			<point x="208" y="576"/>
			<point x="192" y="562"/>
			<point x="192" y="544" type="curve" smooth="yes"/>
			<point x="192" y="526"/>
			<point x="178" y="512"/>
			<point x="160" y="512" type="curve" smooth="yes"/>
			<point x="142" y="512"/>
			<point x="128" y="498"/>
			<point x="128" y="480" type="curve" smooth="yes"/>
			<point x="128" y="462"/>
			<point x="114" y="448"/>
			<point x="96" y="448" type="curve" smooth="yes"/>
			<point x="78" y="448"/>
			<point x="64" y="434"/>
			<point x="64" y="416" type="curve" smooth="yes"/>
			<point x="64" y="398"/>
			<point x="50" y="384"/>
			<point x="32" y="384" type="curve" smooth="yes"/>
			<point x="14" y="384"/>
			<point x="0" y="368"/>
			<point x="0" y="348" type="curve" smooth="yes"/>
			<point x="0" y="228" type="line" smooth="yes"/>
			<point x="0" y="208"/>
			<point x="14" y="192"/>
			<point x="32" y="192" type="curve" smooth="yes"/>
			<point x="50" y="192"/>
			<point x="64" y="178"/>
			<point x="64" y="160" type="curve" smooth="yes"/>
			<point x="64" y="142"/>
			<point x="78" y="128"/>
			<point x="96" y="128" type="curve" smooth="yes"/>
			<point x="114" y="128"/>
			<point x="128" y="114"/>
			<point x="128" y="96" type="curve" smooth="yes"/>
			<point x="128" y="78"/>
			<point x="142" y="64"/>
			<point x="160" y="64" type="curve" smooth="yes"/>
			<point x="178" y="64"/>
			<point x="192" y="50"/>
			<point x="192" y="32" type="curve" smooth="yes"/>
			<point x="192" y="14"/>
			<point x="208" y="0"/>
			<point x="228" y="0" type="curve" smooth="yes"/>
			<point x="284" y="0" type="line" smooth="yes"/>
			<point x="304" y="0"/>
			<point x="320" y="14"/>
		</contour>
	</outline>
</glyph>
<glyph name="equal" format="2">
	<advance width="576"/>
	<unicode hex="003D"/>
	<note>
		equal
	</note>
	<outline>
		<contour>
			<point x="476" y="192" type="curve" smooth="yes"/>
			<point x="100" y="192" type="line" smooth="yes"/>
			<point x="80" y="192"/>
			<point x="64" y="178"/>
			<point x="64" y="160" type="curve" smooth="yes"/>
			<point x="64" y="142"/>
			<point x="80" y="128"/>
			<point x="100" y="128" type="curve" smooth="yes"/>
			<point x="476" y="128" type="line" smooth="yes"/>
			<point x="496" y="128"/>
			<point x="512" y="142"/>
			<point x="512" y="160" type="curve" smooth="yes"/>
			<point x="512" y="178"/>
			<point x="496" y="192"/>
		</contour>
		<contour>
			<point x="476" y="384" type="curve" smooth="yes"/>
			<point x="100" y="384" type="line" smooth="yes"/>
			<point x="80" y="384"/>
			<point x="64" y="370"/>
			<point x="64" y="352" type="curve" smooth="yes"/>
			<point x="64" y="334"/>
			<point x="80" y="320"/>
			<point x="100" y="320" type="curve" smooth="yes"/>
			<point x="476" y="320" type="line" smooth="yes"/>
			<point x="496" y="320"/>
			<point x="512" y="334"/>
			<point x="512" y="352" type="curve" smooth="yes"/>
			<point x="512" y="370"/>
			<point x="496" y="384"/>
		</contour>
	</outline>
</glyph>
<glyph name="question" format="2">
	<advance width="512"/>
	<unicode hex="003F"/>
	<note>
		question
	</note>
	<outline>
		<contour>
			<point x="256" y="224" type="curve" smooth="yes"/>
			<point x="256" y="243"/>
			<point x="242" y="256"/>
			<point x="224" y="256" type="curve" smooth="yes"/>
			<point x="206" y="256"/>
			<point x="192" y="242"/>
			<point x="192" y="224" type="curve" smooth="yes"/>
			<point x="192" y="206"/>
			<point x="206" y="192"/>
			<point x="224" y="192" type="curve" smooth="yes"/>
			<point x="242" y="192"/>
			<point x="256" y="206"/>
		</contour>
		<contour>
			<point x="64" y="480" type="curve" smooth="yes"/>
			<point x="64" y="499"/>
			<point x="50" y="512"/>
			<point x="32" y="512" type="curve" smooth="yes"/>
			<point x="14" y="512"/>
			<point x="0" y="498"/>
			<point x="0" y="480" type="curve" smooth="yes"/>
			<point x="0" y="462"/>
			<point x="14" y="448"/>
			<point x="32" y="448" type="curve" smooth="yes"/>
			<point x="50" y="448"/>
			<point x="64" y="462"/>
		</contour>
		<contour>
			<point x="256" y="36" type="curve" smooth="yes"/>
			<point x="256" y="92" type="line" smooth="yes"/>
			<point x="256" y="112"/>
			<point x="240" y="128"/>
			<point x="220" y="128" type="curve" smooth="yes"/>
			<point x="164" y="128" type="line" smooth="yes"/>
			<point x="144" y="128"/>
			<point x="128" y="112"/>
			<point x="128" y="92" type="curve" smooth="yes"/>
			<point x="128" y="36" type="line" smooth="yes"/>
			<point x="128" y="16"/>
			<point x="144" y="0"/>
			<point x="164" y="0" type="curve" smooth="yes"/>
			<point x="220" y="0" type="line" smooth="yes"/>
			<point x="240" y="0"/>
			<point x="256" y="16"/>
		</contour>
		<contour>
			<point x="320" y="288" type="curve" smooth="yes"/>
			<point x="320" y="307"/>
			<point x="306" y="320"/>
			<point x="288" y="320" type="curve" smooth="yes"/>
			<point x="270" y="320"/>
			<point x="256" y="306"/>
			<point x="256" y="288" type="curve" smooth="yes"/>
			<point x="256" y="270"/>
			<point x="270" y="256"/>
			<point x="288" y="256" type="curve" smooth="yes"/>
			<point x="306" y="256"/>
			<point x="320" y="270"/>
		</contour>
		<contour>
			<point x="384" y="352" type="curve" smooth="yes"/>
			<point x="384" y="371"/>
			<point x="398" y="384"/>
			<point x="416" y="384" type="curve" smooth="yes"/>
			<point x="434" y="384"/>
			<point x="448" y="400"/>
			<point x="448" y="420" type="curve" smooth="yes"/>
			<point x="448" y="476" type="line" smooth="yes"/>
			<point x="448" y="496"/>
			<point x="434" y="512"/>
			<point x="416" y="512" type="curve" smooth="yes"/>
			<point x="398" y="512"/>
			<point x="384" y="526"/>
			<point x="384" y="544" type="curve" smooth="yes"/>
			<point x="384" y="562"/>
			<point x="370" y="576"/>
			<point x="352" y="576" type="curve" smooth="yes"/>
			<point x="334" y="576"/>
			<point x="320" y="590"/>
			<point x="320" y="608" type="curve" smooth="yes"/>
			<point x="320" y="626"/>
			<point x="304" y="640"/>
			<point x="284" y="640" type="curve" smooth="yes"/>
			<point x="164" y="640" type="line" smooth="yes"/>
			<point x="144" y="640"/>
			<point x="128" y="626"/>
			<point x="128" y="608" type="curve" smooth="yes"/>
			<point x="128" y="590"/>
			<point x="114" y="576"/>
			<point x="96" y="576" type="curve" smooth="yes"/>
			<point x="78" y="576"/>
			<point x="64" y="562"/>
			<point x="64" y="544" type="curve" smooth="yes"/>
			<point x="64" y="526"/>
			<point x="78" y="512"/>
			<point x="96" y="512" type="curve" smooth="yes"/>
			<point x="114" y="512"/>
			<point x="128" y="526"/>
			<point x="128" y="544" type="curve" smooth="yes"/>
			<point x="128" y="562"/>
			<point x="142" y="576"/>
			<point x="160" y="576" type="curve" smooth="yes"/>
			<point x="178" y="576"/>
			<point x="192" y="562"/>
			<point x="192" y="544" type="curve" smooth="yes"/>
			<point x="192" y="526"/>
			<point x="206" y="512"/>
			<point x="224" y="512" type="curve" smooth="yes"/>
			<point x="242" y="512"/>
			<point x="256" y="498"/>
			<point x="256" y="480" type="curve" smooth="yes"/>
			<point x="256" y="462"/>
			<point x="270" y="448"/>
			<point x="288" y="448" type="curve" smooth="yes"/>
			<point x="306" y="448"/>
			<point x="320" y="432"/>
			<point x="320" y="412" type="curve" smooth="yes"/>
			<point x="320" y="356" type="line" smooth="yes"/>
			<point x="320" y="336"/>
			<point x="334" y="320"/>
			<point x="352" y="320" type="curve" smooth="yes"/>
			<point x="370" y="320"/>
			<point x="384" y="334"/>
		</contour>
	</outline>
</glyph>
<glyph name="at" format="2">
	<advance width="832"/>
	<unicode hex="0040"/>
	<note>
		at
	</note>
	<outline>
		<contour>
			<point x="256" y="352" type="curve" smooth="yes"/>
			<point x="256" y="371"/>
			<point x="242" y="384"/>
			<point x="224" y="384" type="curve" smooth="yes"/>
			<point x="206" y="384"/>
			<point x="192" y="370"/>
			<point x="192" y="352" type="curve" smooth="yes"/>
			<point x="192" y="334"/>
			<point x="206" y="320"/>
			<point x="224" y="320" type="curve" smooth="yes"/>
			<point x="242" y="320"/>
			<point x="256" y="334"/>
		</contour>
		<contour>
			<point x="604" y="-128" type="curve" smooth="yes"/>
			<point x="292" y="-128" type="line" smooth="yes"/>
			<point x="272" y="-128"/>
			<point x="256" y="-114"/>
			<point x="256" y="-96" type="curve" smooth="yes"/>
			<point x="256" y="-78"/>
			<point x="242" y="-64"/>
			<point x="224" y="-64" type="curve" smooth="yes"/>
			<point x="206" y="-64"/>
			<point x="192" y="-50"/>
			<point x="192" y="-32" type="curve" smooth="yes"/>
			<point x="192" y="-14"/>
			<point x="178" y="0"/>
			<point x="160" y="0" type="curve" smooth="yes"/>
			<point x="142" y="0"/>
			<point x="128" y="16"/>
			<point x="128" y="36" type="curve" smooth="yes"/>
			<point x="128" y="476" type="line" smooth="yes"/>
			<point x="128" y="496"/>
			<point x="114" y="512"/>
			<point x="96" y="512" type="curve" smooth="yes"/>
			<point x="78" y="512"/>
			<point x="64" y="498"/>
			<point x="64" y="480" type="curve" smooth="yes"/>
			<point x="64" y="462"/>
			<point x="50" y="448"/>
			<point x="32" y="448" type="curve" smooth="yes"/>
			<point x="14" y="448"/>
			<point x="0" y="432"/>
			<point x="0" y="412" type="curve" smooth="yes"/>
			<point x="0" y="-28" type="line" smooth="yes"/>
			<point x="0" y="-48"/>
			<point x="14" y="-64"/>
			<point x="32" y="-64" type="curve" smooth="yes"/>
			<point x="50" y="-64"/>
			<point x="64" y="-78"/>
			<point x="64" y="-96" type="curve" smooth="yes"/>
			<point x="64" y="-114"/>
			<point x="78" y="-128"/>
			<point x="96" y="-128" type="curve" smooth="yes"/>
			<point x="114" y="-128"/>
			<point x="128" y="-142"/>
			<point x="128" y="-160" type="curve" smooth="yes"/>
			<point x="128" y="-178"/>
			<point x="144" y="-192"/>
			<point x="164" y="-192" type="curve" smooth="yes"/>
			<point x="604" y="-192" type="line" smooth="yes"/>
			<point x="624" y="-192"/>
			<point x="640" y="-178"/>
			<point x="640" y="-160" type="curve" smooth="yes"/>
			<point x="640" y="-142"/>
			<point x="624" y="-128"/>
		</contour>
		<contour>
			<point x="704" y="-96" type="curve" smooth="yes"/>
			<point x="704" y="-77"/>
			<point x="690" y="-64"/>
			<point x="672" y="-64" type="curve" smooth="yes"/>
			<point x="654" y="-64"/>
			<point x="640" y="-78"/>
			<point x="640" y="-96" type="curve" smooth="yes"/>
			<point x="640" y="-114"/>
			<point x="654" y="-128"/>
			<point x="672" y="-128" type="curve" smooth="yes"/>
			<point x="690" y="-128"/>
			<point x="704" y="-114"/>
		</contour>
		<contour>
			<point x="768" y="-32" type="curve" smooth="yes"/>
			<point x="768" y="-13"/>
			<point x="754" y="0"/>
			<point x="736" y="0" type="curve" smooth="yes"/>
			<point x="718" y="0"/>
			<point x="704" y="-14"/>
			<point x="704" y="-32" type="curve" smooth="yes"/>
			<point x="704" y="-50"/>
			<point x="718" y="-64"/>
			<point x="736" y="-64" type="curve" smooth="yes"/>
			<point x="754" y="-64"/>
			<point x="768" y="-50"/>
		</contour>
		<contour>
			<point x="576" y="32" type="curve" smooth="yes"/>
			<point x="576" y="51"/>
			<point x="590" y="64"/>
			<point x="608" y="64" type="curve" smooth="yes"/>
			<point x="626" y="64"/>
			<point x="640" y="78"/>
			<point x="640" y="96" type="curve" smooth="yes"/>
			<point x="640" y="114"/>
			<point x="626" y="128"/>
			<point x="608" y="128" type="curve" smooth="yes"/>
			<point x="590" y="128"/>
			<point x="576" y="144"/>
			<point x="576" y="164" type="curve" smooth="yes"/>
			<point x="576" y="348" type="line" smooth="yes"/>
			<point x="576" y="368"/>
			<point x="562" y="384"/>
			<point x="544" y="384" type="curve" smooth="yes"/>
			<point x="526" y="384"/>
			<point x="512" y="398"/>
			<point x="512" y="416" type="curve" smooth="yes"/>
			<point x="512" y="434"/>
			<point x="498" y="448"/>
			<point x="480" y="448" type="curve" smooth="yes"/>
			<point x="462" y="448"/>
			<point x="448" y="462"/>
			<point x="448" y="480" type="curve" smooth="yes"/>
			<point x="448" y="498"/>
			<point x="432" y="512"/>
			<point x="412" y="512" type="curve" smooth="yes"/>
			<point x="356" y="512" type="line" smooth="yes"/>
			<point x="336" y="512"/>
			<point x="320" y="498"/>
			<point x="320" y="480" type="curve" smooth="yes"/>
			<point x="320" y="462"/>
			<point x="306" y="448"/>
			<point x="288" y="448" type="curve" smooth="yes"/>
			<point x="270" y="448"/>
			<point x="256" y="434"/>
			<point x="256" y="416" type="curve" smooth="yes"/>
			<point x="256" y="398"/>
			<point x="272" y="384"/>
			<point x="292" y="384" type="curve" smooth="yes"/>
			<point x="412" y="384" type="line" smooth="yes"/>
			<point x="432" y="384"/>
			<point x="448" y="370"/>
			<point x="448" y="352" type="curve" smooth="yes"/>
			<point x="448" y="334"/>
			<point x="432" y="320"/>
			<point x="412" y="320" type="curve" smooth="yes"/>
			<point x="356" y="320" type="line" smooth="yes"/>
			<point x="336" y="320"/>
			<point x="320" y="306"/>
			<point x="320" y="288" type="curve" smooth="yes"/>
			<point x="320" y="270"/>
			<point x="306" y="256"/>
			<point x="288" y="256" type="curve" smooth="yes"/>
			<point x="270" y="256"/>
			<point x="256" y="242"/>
			<point x="256" y="224" type="curve" smooth="yes"/>
			<point x="256" y="206"/>
			<point x="242" y="192"/>
			<point x="224" y="192" type="curve" smooth="yes"/>
			<point x="206" y="192"/>
			<point x="192" y="176"/>
			<point x="192" y="156" type="curve" smooth="yes"/>
			<point x="192" y="100" type="line" smooth="yes"/>
			<point x="192" y="80"/>
			<point x="206" y="64"/>
			<point x="224" y="64" type="curve" smooth="yes"/>
			<point x="242" y="64"/>
			<point x="256" y="50"/>
			<point x="256" y="32" type="curve" smooth="yes"/>
			<point x="256" y="14"/>
			<point x="272" y="0"/>
			<point x="292" y="0" type="curve" smooth="yes"/>
			<point x="540" y="0" type="line" smooth="yes"/>
			<point x="560" y="0"/>
			<point x="576" y="14"/>
		</contour>
		<contour>
			<point x="320" y="100" type="curve" smooth="yes"/>
			<point x="320" y="220" type="line" smooth="yes"/>
			<point x="320" y="240"/>
			<point x="336" y="256"/>
			<point x="356" y="256" type="curve" smooth="yes"/>
			<point x="412" y="256" type="line" smooth="yes"/>
			<point x="432" y="256"/>
			<point x="448" y="240"/>
			<point x="448" y="220" type="curve" smooth="yes"/>
			<point x="448" y="100" type="line" smooth="yes"/>
			<point x="448" y="80"/>
			<point x="432" y="64"/>
			<point x="412" y="64" type="curve" smooth="yes"/>
			<point x="356" y="64" type="line" smooth="yes"/>
			<point x="336" y="64"/>
			<point x="320" y="80"/>
		</contour>
		<contour>
			<point x="704" y="160" type="curve" smooth="yes"/>
			<point x="704" y="179"/>
			<point x="718" y="192"/>
			<point x="736" y="192" type="curve" smooth="yes"/>
			<point x="754" y="192"/>
			<point x="768" y="208"/>
			<point x="768" y="228" type="curve" smooth="yes"/>
			<point x="768" y="476" type="line" smooth="yes"/>
			<point x="768" y="496"/>
			<point x="754" y="512"/>
			<point x="736" y="512" type="curve" smooth="yes"/>
			<point x="718" y="512"/>
			<point x="704" y="526"/>
			<point x="704" y="544" type="curve" smooth="yes"/>
			<point x="704" y="562"/>
			<point x="690" y="576"/>
			<point x="672" y="576" type="curve" smooth="yes"/>
			<point x="654" y="576"/>
			<point x="640" y="590"/>
			<point x="640" y="608" type="curve" smooth="yes"/>
			<point x="640" y="626"/>
			<point x="624" y="640"/>
			<point x="604" y="640" type="curve" smooth="yes"/>
			<point x="228" y="640" type="line" smooth="yes"/>
			<point x="208" y="640"/>
			<point x="192" y="626"/>
			<point x="192" y="608" type="curve" smooth="yes"/>
			<point x="192" y="590"/>
			<point x="178" y="576"/>
			<point x="160" y="576" type="curve" smooth="yes"/>
			<point x="142" y="576"/>
			<point x="128" y="562"/>
			<point x="128" y="544" type="curve" smooth="yes"/>
			<point x="128" y="526"/>
			<point x="142" y="512"/>
			<point x="160" y="512" type="curve" smooth="yes"/>
			<point x="178" y="512"/>
			<point x="192" y="526"/>
			<point x="192" y="544" type="curve" smooth="yes"/>
			<point x="192" y="562"/>
			<point x="208" y="576"/>
			<point x="228" y="576" type="curve" smooth="yes"/>
			<point x="476" y="576" type="line" smooth="yes"/>
			<point x="496" y="576"/>
			<point x="512" y="562"/>
			<point x="512" y="544" type="curve" smooth="yes"/>
			<point x="512" y="526"/>
			<point x="526" y="512"/>
			<point x="544" y="512" type="curve" smooth="yes"/>
			<point x="562" y="512"/>
			<point x="576" y="498"/>
			<point x="576" y="480" type="curve" smooth="yes"/>
			<point x="576" y="462"/>
			<point x="590" y="448"/>
			<point x="608" y="448" type="curve" smooth="yes"/>
			<point x="626" y="448"/>
			<point x="640" y="432"/>
			<point x="640" y="412" type="curve" smooth="yes"/>
			<point x="640" y="164" type="line" smooth="yes"/>
			<point x="640" y="144"/>
			<point x="654" y="128"/>
			<point x="672" y="128" type="curve" smooth="yes"/>
			<point x="690" y="128"/>
			<point x="704" y="142"/>
		</contour>
	</outline>
</glyph>
<glyph name="A" format="2">
	<advance width="576"/>
	<unicode hex="0041"/>
	<anchor x="288" y="0" name="bottom"/>
	<anchor x="518" y="10" name="ogonek"/>
	<anchor x="258" y="724" name="top"/>
	<note>
		A
	</note>
	<outline>
		<contour>
			<point x="448" y="32" type="curve" smooth="yes"/>
			<point x="448" y="51"/>
			<point x="462" y="64"/>
			<point x="480" y="64" type="curve" smooth="yes"/>
			<point x="498" y="64"/>
			<point x="512" y="78"/>
			<point x="512" y="96" type="curve" smooth="yes"/>
			<point x="512" y="114"/>
			<point x="498" y="128"/>
			<point x="480" y="128" type="curve" smooth="yes"/>
			<point x="462" y="128"/>
			<point x="448" y="144"/>
			<point x="448" y="164" type="curve" smooth="yes"/>
			<point x="448" y="540" type="line" smooth="yes"/>
			<point x="448" y="560"/>
			<point x="434" y="576"/>
			<point x="416" y="576" type="curve" smooth="yes"/>
			<point x="398" y="576"/>
			<point x="384" y="590"/>
			<point x="384" y="608" type="curve" smooth="yes"/>
			<point x="384" y="626"/>
			<point x="370" y="640"/>
			<point x="352" y="640" type="curve" smooth="yes"/>
			<point x="334" y="640"/>
			<point x="320" y="654"/>
			<point x="320" y="672" type="curve" smooth="yes"/>
			<point x="320" y="690"/>
			<point x="304" y="704"/>
			<point x="284" y="704" type="curve" smooth="yes"/>
			<point x="228" y="704" type="line" smooth="yes"/>
			<point x="208" y="704"/>
			<point x="192" y="690"/>
			<point x="192" y="672" type="curve" smooth="yes"/>
			<point x="192" y="654"/>
			<point x="178" y="640"/>
			<point x="160" y="640" type="curve" smooth="yes"/>
			<point x="142" y="640"/>
			<point x="128" y="626"/>
			<point x="128" y="608" type="curve" smooth="yes"/>
			<point x="128" y="590"/>
			<point x="114" y="576"/>
			<point x="96" y="576" type="curve" smooth="yes"/>
			<point x="78" y="576"/>
			<point x="64" y="562"/>
			<point x="64" y="544" type="curve" smooth="yes"/>
			<point x="64" y="526"/>
			<point x="50" y="512"/>
			<point x="32" y="512" type="curve" smooth="yes"/>
			<point x="14" y="512"/>
			<point x="0" y="496"/>
			<point x="0" y="476" type="curve" smooth="yes"/>
			<point x="0" y="36" type="line" smooth="yes"/>
			<point x="0" y="16"/>
			<point x="16" y="0"/>
			<point x="36" y="0" type="curve" smooth="yes"/>
			<point x="92" y="0" type="line" smooth="yes"/>
			<point x="112" y="0"/>
			<point x="128" y="14"/>
			<point x="128" y="32" type="curve" smooth="yes"/>
			<point x="128" y="50"/>
			<point x="142" y="64"/>
			<point x="160" y="64" type="curve" smooth="yes"/>
			<point x="178" y="64"/>
			<point x="192" y="78"/>
			<point x="192" y="96" type="curve" smooth="yes"/>
			<point x="192" y="114"/>
			<point x="178" y="128"/>
			<point x="160" y="128" type="curve" smooth="yes"/>
			<point x="142" y="128"/>
			<point x="128" y="142"/>
			<point x="128" y="160" type="curve" smooth="yes"/>
			<point x="128" y="178"/>
			<point x="142" y="192"/>
			<point x="160" y="192" type="curve" smooth="yes"/>
			<point x="178" y="192"/>
			<point x="192" y="206"/>
			<point x="192" y="224" type="curve" smooth="yes"/>
			<point x="192" y="242"/>
			<point x="178" y="256"/>
			<point x="160" y="256" type="curve" smooth="yes"/>
			<point x="142" y="256"/>
			<point x="128" y="272"/>
			<point x="128" y="292" type="curve" smooth="yes"/>
			<point x="128" y="540" type="line" smooth="yes"/>
			<point x="128" y="560"/>
			<point x="144" y="576"/>
			<point x="164" y="576" type="curve" smooth="yes"/>
			<point x="220" y="576" type="line" smooth="yes"/>
			<point x="240" y="576"/>
			<point x="256" y="562"/>
			<point x="256" y="544" type="curve" smooth="yes"/>
			<point x="256" y="526"/>
			<point x="270" y="512"/>
			<point x="288" y="512" type="curve" smooth="yes"/>
			<point x="306" y="512"/>
			<point x="320" y="496"/>
			<point x="320" y="476" type="curve" smooth="yes"/>
			<point x="320" y="420" type="line" smooth="yes"/>
			<point x="320" y="400"/>
			<point x="306" y="384"/>
			<point x="288" y="384" type="curve" smooth="yes"/>
			<point x="270" y="384"/>
			<point x="256" y="370"/>
			<point x="256" y="352" type="curve" smooth="yes"/>
			<point x="256" y="334"/>
			<point x="242" y="320"/>
			<point x="224" y="320" type="curve" smooth="yes"/>
			<point x="206" y="320"/>
			<point x="192" y="306"/>
			<point x="192" y="288" type="curve" smooth="yes"/>
			<point x="192" y="270"/>
			<point x="206" y="256"/>
			<point x="224" y="256" type="curve" smooth="yes"/>
			<point x="242" y="256"/>
			<point x="256" y="270"/>
			<point x="256" y="288" type="curve" smooth="yes"/>
			<point x="256" y="306"/>
			<point x="270" y="320"/>
			<point x="288" y="320" type="curve" smooth="yes"/>
			<point x="306" y="320"/>
			<point x="320" y="304"/>
			<point x="320" y="284" type="curve" smooth="yes"/>
			<point x="320" y="36" type="line" smooth="yes"/>
			<point x="320" y="16"/>
			<point x="336" y="0"/>
			<point x="356" y="0" type="curve" smooth="yes"/>
			<point x="412" y="0" type="line" smooth="yes"/>
			<point x="432" y="0"/>
			<point x="448" y="14"/>
		</contour>
	</outline>
</glyph>
<glyph name="D" format="2">
	<advance width="640"/>
	<unicode hex="0044"/>
	<note>
		D
	</note>
	<outline>
		<contour>
			<point x="192" y="100" type="curve" smooth="yes"/>
			<point x="192" y="604" type="line" smooth="yes"/>
			<point x="192" y="624"/>
			<point x="208" y="640"/>
			<point x="228" y="640" type="curve" smooth="yes"/>
			<point x="284" y="640" type="line" smooth="yes"/>
			<point x="304" y="640"/>
			<point x="320" y="626"/>
			<point x="320" y="608" type="curve" smooth="yes"/>
			<point x="320" y="590"/>
			<point x="334" y="576"/>
			<point x="352" y="576" type="curve" smooth="yes"/>
			<point x="370" y="576"/>
			<point x="384" y="562"/>
			<point x="384" y="544" type="curve" smooth="yes"/>
			<point x="384" y="526"/>
			<point x="398" y="512"/>
			<point x="416" y="512" type="curve" smooth="yes"/>
			<point x="434" y="512"/>
			<point x="448" y="496"/>
			<point x="448" y="476" type="curve" smooth="yes"/>
			<point x="448" y="228" type="line" smooth="yes"/>
			<point x="448" y="208"/>
			<point x="434" y="192"/>
			<point x="416" y="192" type="curve" smooth="yes"/>
			<point x="398" y="192"/>
			<point x="384" y="178"/>
			<point x="384" y="160" type="curve" smooth="yes"/>
			<point x="384" y="142"/>
			<point x="370" y="128"/>
			<point x="352" y="128" type="curve" smooth="yes"/>
			<point x="334" y="128"/>
			<point x="320" y="114"/>
			<point x="320" y="96" type="curve" smooth="yes"/>
			<point x="320" y="78"/>
			<point x="304" y="64"/>
			<point x="284" y="64" type="curve" smooth="yes"/>
			<point x="228" y="64" type="line" smooth="yes"/>
			<point x="208" y="64"/>
			<point x="192" y="80"/>
		</contour>
		<contour>
			<point x="320" y="32" type="curve" smooth="yes"/>
			<point x="320" y="51"/>
			<point x="334" y="64"/>
			<point x="352" y="64" type="curve" smooth="yes"/>
			<point x="370" y="64"/>
			<point x="384" y="78"/>
			<point x="384" y="96" type="curve" smooth="yes"/>
			<point x="384" y="114"/>
			<point x="398" y="128"/>
			<point x="416" y="128" type="curve" smooth="yes"/>
			<point x="434" y="128"/>
			<point x="448" y="142"/>
			<point x="448" y="160" type="curve" smooth="yes"/>
			<point x="448" y="178"/>
			<point x="462" y="192"/>
			<point x="480" y="192" type="curve" smooth="yes"/>
			<point x="498" y="192"/>
			<point x="512" y="206"/>
			<point x="512" y="224" type="curve" smooth="yes"/>
			<point x="512" y="242"/>
			<point x="526" y="256"/>
			<point x="544" y="256" type="curve" smooth="yes"/>
			<point x="562" y="256"/>
			<point x="576" y="272"/>
			<point x="576" y="292" type="curve" smooth="yes"/>
			<point x="576" y="540" type="line" smooth="yes"/>
			<point x="576" y="560"/>
			<point x="562" y="576"/>
			<point x="544" y="576" type="curve" smooth="yes"/>
			<point x="526" y="576"/>
			<point x="512" y="590"/>
			<point x="512" y="608" type="curve" smooth="yes"/>
			<point x="512" y="626"/>
			<point x="498" y="640"/>
			<point x="480" y="640" type="curve" smooth="yes"/>
			<point x="462" y="640"/>
			<point x="448" y="654"/>
			<point x="448" y="672" type="curve" smooth="yes"/>
			<point x="448" y="690"/>
			<point x="432" y="704"/>
			<point x="412" y="704" type="curve" smooth="yes"/>
			<point x="164" y="704" type="line" smooth="yes"/>
			<point x="144" y="704"/>
			<point x="128" y="690"/>
			<point x="128" y="672" type="curve" smooth="yes"/>
			<point x="128" y="654"/>
			<point x="114" y="640"/>
			<point x="96" y="640" type="curve" smooth="yes"/>
			<point x="78" y="640"/>
			<point x="64" y="626"/>
			<point x="64" y="608" type="curve" smooth="yes"/>
			<point x="64" y="590"/>
			<point x="50" y="576"/>
			<point x="32" y="576" type="curve" smooth="yes"/>
			<point x="14" y="576"/>
			<point x="0" y="562"/>
			<point x="0" y="544" type="curve" smooth="yes"/>
			<point x="0" y="526"/>
			<point x="14" y="512"/>
			<point x="32" y="512" type="curve" smooth="yes"/>
			<point x="50" y="512"/>
			<point x="64" y="496"/>
			<point x="64" y="476" type="curve" smooth="yes"/>
			<point x="64" y="36" type="line" smooth="yes"/>
			<point x="64" y="16"/>
			<point x="80" y="0"/>
			<point x="100" y="0" type="curve" smooth="yes"/>
			<point x="284" y="0" type="line" smooth="yes"/>
			<point x="304" y="0"/>
			<point x="320" y="14"/>
		</contour>
	</outline>
</glyph>
<glyph name="F" format="2">
	<advance width="640"/>
	<unicode hex="0046"/>
	<note>
		F
	</note>
	<outline>
		<contour>
			<point x="192" y="32" type="curve" smooth="yes"/>
			<point x="192" y="51"/>
			<point x="206" y="64"/>
			<point x="224" y="64" type="curve" smooth="yes"/>
			<point x="242" y="64"/>
			<point x="256" y="78"/>
			<point x="256" y="96" type="curve" smooth="yes"/>
			<point x="256" y="114"/>
			<point x="242" y="128"/>
			<point x="224" y="128" type="curve" smooth="yes"/>
			<point x="206" y="128"/>
			<point x="192" y="144"/>
			<point x="192" y="164" type="curve" smooth="yes"/>
			<point x="192" y="284" type="line" smooth="yes"/>
			<point x="192" y="304"/>
			<point x="208" y="320"/>
			<point x="228" y="320" type="curve" smooth="yes"/>
			<point x="348" y="320" type="line" smooth="yes"/>
			<point x="368" y="320"/>
			<point x="384" y="334"/>
			<point x="384" y="352" type="curve" smooth="yes"/>
			<point x="384" y="370"/>
			<point x="368" y="384"/>
			<point x="348" y="384" type="curve" smooth="yes"/>
			<point x="228" y="384" type="line" smooth="yes"/>
			<point x="208" y="384"/>
			<point x="192" y="400"/>
			<point x="192" y="420" type="curve" smooth="yes"/>
			<point x="192" y="540" type="line" smooth="yes"/>
			<point x="192" y="560"/>
			<point x="206" y="576"/>
			<point x="224" y="576" type="curve" smooth="yes"/>
			<point x="242" y="576"/>
			<point x="256" y="590"/>
			<point x="256" y="608" type="curve" smooth="yes"/>
			<point x="256" y="626"/>
			<point x="242" y="640"/>
			<point x="224" y="640" type="curve" smooth="yes"/>
			<point x="206" y="640"/>
			<point x="192" y="654"/>
			<point x="192" y="672" type="curve" smooth="yes"/>
			<point x="192" y="690"/>
			<point x="178" y="704"/>
			<point x="160" y="704" type="curve" smooth="yes"/>
			<point x="142" y="704"/>
			<point x="128" y="690"/>
			<point x="128" y="672" type="curve" smooth="yes"/>
			<point x="128" y="654"/>
			<point x="114" y="640"/>
			<point x="96" y="640" type="curve" smooth="yes"/>
			<point x="78" y="640"/>
			<point x="64" y="626"/>
			<point x="64" y="608" type="curve" smooth="yes"/>
			<point x="64" y="590"/>
			<point x="50" y="576"/>
			<point x="32" y="576" type="curve" smooth="yes"/>
			<point x="14" y="576"/>
			<point x="0" y="562"/>
			<point x="0" y="544" type="curve" smooth="yes"/>
			<point x="0" y="526"/>
			<point x="14" y="512"/>
			<point x="32" y="512" type="curve" smooth="yes"/>
			<point x="50" y="512"/>
			<point x="64" y="496"/>
			<point x="64" y="476" type="curve" smooth="yes"/>
			<point x="64" y="36" type="line" smooth="yes"/>
			<point x="64" y="16"/>
			<point x="80" y="0"/>
			<point x="100" y="0" type="curve" smooth="yes"/>
			<point x="156" y="0" type="line" smooth="yes"/>
			<point x="176" y="0"/>
			<point x="192" y="14"/>
		</contour>
		<contour>
			<point x="512" y="544" type="curve" smooth="yes"/>
			<point x="512" y="563"/>
			<point x="526" y="576"/>
			<point x="544" y="576" type="curve" smooth="yes"/>
			<point x="562" y="576"/>
			<point x="576" y="592"/>
			<point x="576" y="612" type="curve" smooth="yes"/>
			<point x="576" y="668" type="line" smooth="yes"/>
			<point x="576" y="688"/>
			<point x="562" y="704"/>
			<point x="544" y="704" type="curve" smooth="yes"/>
			<point x="526" y="704"/>
			<point x="512" y="690"/>
			<point x="512" y="672" type="curve" smooth="yes"/>
			<point x="512" y="654"/>
			<point x="498" y="640"/>
			<point x="480" y="640" type="curve" smooth="yes"/>
			<point x="462" y="640"/>
			<point x="448" y="654"/>
			<point x="448" y="672" type="curve" smooth="yes"/>
			<point x="448" y="690"/>
			<point x="432" y="704"/>
			<point x="412" y="704" type="curve" smooth="yes"/>
			<point x="292" y="704" type="line" smooth="yes"/>
			<point x="272" y="704"/>
			<point x="256" y="690"/>
			<point x="256" y="672" type="curve" smooth="yes"/>
			<point x="256" y="654"/>
			<point x="270" y="640"/>
			<point x="288" y="640" type="curve" smooth="yes"/>
			<point x="306" y="640"/>
			<point x="320" y="626"/>
			<point x="320" y="608" type="curve" smooth="yes"/>
			<point x="320" y="590"/>
			<point x="334" y="576"/>
			<point x="352" y="576" type="curve" smooth="yes"/>
			<point x="370" y="576"/>
			<point x="384" y="562"/>
			<point x="384" y="544" type="curve" smooth="yes"/>
			<point x="384" y="526"/>
			<point x="400" y="512"/>
			<point x="420" y="512" type="curve" smooth="yes"/>
			<point x="476" y="512" type="line" smooth="yes"/>
			<point x="496" y="512"/>
			<point x="512" y="526"/>
		</contour>
	</outline>
</glyph>
<glyph name="H" format="2">
	<advance width="640"/>
	<unicode hex="0048"/>
	<note>
		H
	</note>
	<outline>
		<contour>
			<point x="512" y="32" type="curve" smooth="yes"/>
			<point x="512" y="51"/>
			<point x="526" y="64"/>
			<point x="544" y="64" type="curve" smooth="yes"/>
			<point x="562" y="64"/>
			<point x="576" y="78"/>
			<point x="576" y="96" type="curve" smooth="yes"/>
			<point x="576" y="114"/>
			<point x="562" y="128"/>
			<point x="544" y="128" type="curve" smooth="yes"/>
			<point x="526" y="128"/>
			<point x="512" y="144"/>
			<point x="512" y="164" type="curve" smooth="yes"/>
			<point x="512" y="668" type="line" smooth="yes"/>
			<point x="512" y="688"/>
			<point x="498" y="704"/>
			<point x="480" y="704" type="curve" smooth="yes"/>
			<point x="462" y="704"/>
			<point x="448" y="690"/>
			<point x="448" y="672" type="curve" smooth="yes"/>
			<point x="448" y="654"/>
			<point x="434" y="640"/>
			<point x="416" y="640" type="curve" smooth="yes"/>
			<point x="398" y="640"/>
			<point x="384" y="624"/>
			<point x="384" y="604" type="curve" smooth="yes"/>
			<point x="384" y="420" type="line" smooth="yes"/>
			<point x="384" y="400"/>
			<point x="368" y="384"/>
			<point x="348" y="384" type="curve" smooth="yes"/>
			<point x="228" y="384" type="line" smooth="yes"/>
			<point x="208" y="384"/>
			<point x="192" y="400"/>
			<point x="192" y="420" type="curve" smooth="yes"/>
			<point x="192" y="668" type="line" smooth="yes"/>
			<point x="192" y="688"/>
			<point x="178" y="704"/>
			<point x="160" y="704" type="curve" smooth="yes"/>
			<point x="142" y="704"/>
			<point x="128" y="690"/>
			<point x="128" y="672" type="curve" smooth="yes"/>
			<point x="128" y="654"/>
			<point x="114" y="640"/>
			<point x="96" y="640" type="curve" smooth="yes"/>
			<point x="78" y="640"/>
			<point x="64" y="626"/>
			<point x="64" y="608" type="curve" smooth="yes"/>
			<point x="64" y="590"/>
			<point x="50" y="576"/>
			<point x="32" y="576" type="curve" smooth="yes"/>
			<point x="14" y="576"/>
			<point x="0" y="562"/>
			<point x="0" y="544" type="curve" smooth="yes"/>
			<point x="0" y="526"/>
			<point x="14" y="512"/>
			<point x="32" y="512" type="curve" smooth="yes"/>
			<point x="50" y="512"/>
			<point x="64" y="496"/>
			<point x="64" y="476" type="curve" smooth="yes"/>
			<point x="64" y="36" type="line" smooth="yes"/>
			<point x="64" y="16"/>
			<point x="80" y="0"/>
			<point x="100" y="0" type="curve" smooth="yes"/>
			<point x="156" y="0" type="line" smooth="yes"/>
			<point x="176" y="0"/>
			<point x="192" y="16"/>
			<point x="192" y="36" type="curve" smooth="yes"/>
			<point x="192" y="284" type="line" smooth="yes"/>
			<point x="192" y="304"/>
			<point x="208" y="320"/>
			<point x="228" y="320" type="curve" smooth="yes"/>
			<point x="348" y="320" type="line" smooth="yes"/>
			<point x="368" y="320"/>
			<point x="384" y="304"/>
			<point x="384" y="284" type="curve" smooth="yes"/>
			<point x="384" y="36" type="line" smooth="yes"/>
			<point x="384" y="16"/>
			<point x="400" y="0"/>
			<point x="420" y="0" type="curve" smooth="yes"/>
			<point x="476" y="0" type="line" smooth="yes"/>
			<point x="496" y="0"/>
			<point x="512" y="14"/>
		</contour>
	</outline>
</glyph>
<glyph name="I" format="2">
	<advance width="320"/>
	<unicode hex="0049"/>
	<anchor x="160" y="0" name="bottom"/>
	<anchor x="288" y="10" name="ogonek"/>
	<anchor x="160" y="704" name="top"/>
	<anchor x="20" y="704" name="topleft"/>
	<note>
		I
	</note>
	<outline>
		<contour>
			<point x="192" y="32" type="curve" smooth="yes"/>
			<point x="192" y="51"/>
			<point x="206" y="64"/>
			<point x="224" y="64" type="curve" smooth="yes"/>
			<point x="242" y="64"/>
			<point x="256" y="78"/>
			<point x="256" y="96" type="curve" smooth="yes"/>
			<point x="256" y="114"/>
			<point x="242" y="128"/>
			<point x="224" y="128" type="curve" smooth="yes"/>
			<point x="206" y="128"/>
			<point x="192" y="144"/>
			<point x="192" y="164" type="curve" smooth="yes"/>
			<point x="192" y="668" type="line" smooth="yes"/>
			<point x="192" y="688"/>
			<point x="178" y="704"/>
			<point x="160" y="704" type="curve" smooth="yes"/>
			<point x="142" y="704"/>
			<point x="128" y="690"/>
			<point x="128" y="672" type="curve" smooth="yes"/>
			<point x="128" y="654"/>
			<point x="114" y="640"/>
			<point x="96" y="640" type="curve" smooth="yes"/>
			<point x="78" y="640"/>
			<point x="64" y="626"/>
			<point x="64" y="608" type="curve" smooth="yes"/>
			<point x="64" y="590"/>
			<point x="50" y="576"/>
			<point x="32" y="576" type="curve" smooth="yes"/>
			<point x="14" y="576"/>
			<point x="0" y="562"/>
			<point x="0" y="544" type="curve" smooth="yes"/>
			<point x="0" y="526"/>
			<point x="14" y="512"/>
			<point x="32" y="512" type="curve" smooth="yes"/>
			<point x="50" y="512"/>
			<point x="64" y="496"/>
			<point x="64" y="476" type="curve" smooth="yes"/>
			<point x="64" y="36" type="line" smooth="yes"/>
			<point x="64" y="16"/>
			<point x="80" y="0"/>
			<point x="100" y="0" type="curve" smooth="yes"/>
			<point x="156" y="0" type="line" smooth="yes"/>
			<point x="176" y="0"/>
			<point x="192" y="14"/>
		</contour>
	</outline>
</glyph>
<glyph name="J" format="2">
	<advance width="256"/>
	<unicode hex="004A"/>
	<note>
		J
	</note>
	<outline>
		<contour>
			<point x="64" y="-96" type="curve" smooth="yes"/>
			<point x="64" y="-77"/>
			<point x="50" y="-64"/>
			<point x="32" y="-64" type="curve" smooth="yes"/>
			<point x="14" y="-64"/>
			<point x="0" y="-78"/>
			<point x="0" y="-96" type="curve" smooth="yes"/>
			<point x="0" y="-114"/>
			<point x="14" y="-128"/>
			<point x="32" y="-128" type="curve" smooth="yes"/>
			<point x="50" y="-128"/>
			<point x="64" y="-114"/>
		</contour>
		<contour>
			<point x="128" y="-32" type="curve" smooth="yes"/>
			<point x="128" y="-13"/>
			<point x="142" y="0"/>
			<point x="160" y="0" type="curve" smooth="yes"/>
			<point x="178" y="0"/>
			<point x="192" y="16"/>
			<point x="192" y="36" type="curve" smooth="yes"/>
			<point x="192" y="668" type="line" smooth="yes"/>
			<point x="192" y="688"/>
			<point x="178" y="704"/>
			<point x="160" y="704" type="curve" smooth="yes"/>
			<point x="142" y="704"/>
			<point x="128" y="690"/>
			<point x="128" y="672" type="curve" smooth="yes"/>
			<point x="128" y="654"/>
			<point x="114" y="640"/>
			<point x="96" y="640" type="curve" smooth="yes"/>
			<point x="78" y="640"/>
			<point x="64" y="626"/>
			<point x="64" y="608" type="curve" smooth="yes"/>
			<point x="64" y="590"/>
			<point x="50" y="576"/>
			<point x="32" y="576" type="curve" smooth="yes"/>
			<point x="14" y="576"/>
			<point x="0" y="562"/>
			<point x="0" y="544" type="curve" smooth="yes"/>
			<point x="0" y="526"/>
			<point x="14" y="512"/>
			<point x="32" y="512" type="curve" smooth="yes"/>
			<point x="50" y="512"/>
			<point x="64" y="496"/>
			<point x="64" y="476" type="curve" smooth="yes"/>
			<point x="64" y="-28" type="line" smooth="yes"/>
			<point x="64" y="-48"/>
			<point x="78" y="-64"/>
			<point x="96" y="-64" type="curve" smooth="yes"/>
			<point x="114" y="-64"/>
			<point x="128" y="-50"/>
		</contour>
	</outline>
</glyph>
<glyph name="K" format="2">
	<advance width="640"/>
	<unicode hex="004B"/>
	<note>
		K
	</note>
	<outline>
		<contour>
			<point x="512" y="32" type="curve" smooth="yes"/>
			<point x="512" y="51"/>
			<point x="526" y="64"/>
			<point x="544" y="64" type="curve" smooth="yes"/>
			<point x="562" y="64"/>
			<point x="576" y="78"/>
			<point x="576" y="96" type="curve" smooth="yes"/>
			<point x="576" y="114"/>
			<point x="560" y="128"/>
			<point x="540" y="128" type="curve" smooth="yes"/>
			<point x="524" y="128"/>
			<point x="512" y="144"/>
			<point x="512" y="164" type="curve" smooth="yes"/>
			<point x="512" y="284" type="line" smooth="yes"/>
			<point x="512" y="304"/>
			<point x="496" y="320"/>
			<point x="476" y="320" type="curve" smooth="yes"/>
			<point x="460" y="320"/>
			<point x="448" y="334"/>
			<point x="448" y="352" type="curve" smooth="yes"/>
			<point x="448" y="370"/>
			<point x="432" y="384"/>
			<point x="412" y="384" type="curve" smooth="yes"/>
			<point x="396" y="384"/>
			<point x="384" y="398"/>
			<point x="384" y="416" type="curve" smooth="yes"/>
			<point x="384" y="434"/>
			<point x="398" y="448"/>
			<point x="416" y="448" type="curve" smooth="yes"/>
			<point x="434" y="448"/>
			<point x="448" y="464"/>
			<point x="448" y="484" type="curve" smooth="yes"/>
			<point x="448" y="500"/>
			<point x="462" y="512"/>
			<point x="480" y="512" type="curve" smooth="yes"/>
			<point x="498" y="512"/>
			<point x="512" y="528"/>
			<point x="512" y="548" type="curve" smooth="yes"/>
			<point x="512" y="668" type="line" smooth="yes"/>
			<point x="512" y="688"/>
			<point x="498" y="704"/>
			<point x="480" y="704" type="curve" smooth="yes"/>
			<point x="462" y="704"/>
			<point x="448" y="688"/>
			<point x="448" y="668" type="curve" smooth="yes"/>
			<point x="448" y="652"/>
			<point x="434" y="640"/>
			<point x="416" y="640" type="curve" smooth="yes"/>
			<point x="398" y="640"/>
			<point x="384" y="624"/>
			<point x="384" y="604" type="curve" smooth="yes"/>
			<point x="384" y="548" type="line" smooth="yes"/>
			<point x="384" y="528"/>
			<point x="370" y="512"/>
			<point x="352" y="512" type="curve" smooth="yes"/>
			<point x="334" y="512"/>
			<point x="320" y="496"/>
			<point x="320" y="476" type="curve" smooth="yes"/>
			<point x="320" y="460"/>
			<point x="306" y="448"/>
			<point x="288" y="448" type="curve" smooth="yes"/>
			<point x="270" y="448"/>
			<point x="256" y="432"/>
			<point x="256" y="412" type="curve" smooth="yes"/>
			<point x="256" y="396"/>
			<point x="242" y="384"/>
			<point x="224" y="384" type="curve" smooth="yes"/>
			<point x="206" y="384"/>
			<point x="192" y="400"/>
			<point x="192" y="420" type="curve" smooth="yes"/>
			<point x="192" y="668" type="line" smooth="yes"/>
			<point x="192" y="688"/>
			<point x="178" y="704"/>
			<point x="160" y="704" type="curve" smooth="yes"/>
			<point x="142" y="704"/>
			<point x="128" y="688"/>
			<point x="128" y="668" type="curve" smooth="yes"/>
			<point x="128" y="652"/>
			<point x="114" y="640"/>
			<point x="96" y="640" type="curve" smooth="yes"/>
			<point x="78" y="640"/>
			<point x="64" y="624"/>
			<point x="64" y="604" type="curve" smooth="yes"/>
			<point x="64" y="588"/>
			<point x="50" y="576"/>
			<point x="32" y="576" type="curve" smooth="yes"/>
			<point x="14" y="576"/>
			<point x="0" y="562"/>
			<point x="0" y="544" type="curve" smooth="yes"/>
			<point x="0" y="526"/>
			<point x="16" y="512"/>
			<point x="36" y="512" type="curve" smooth="yes"/>
			<point x="52" y="512"/>
			<point x="64" y="496"/>
			<point x="64" y="476" type="curve" smooth="yes"/>
			<point x="64" y="36" type="line" smooth="yes"/>
			<point x="64" y="16"/>
			<point x="80" y="0"/>
			<point x="100" y="0" type="curve" smooth="yes"/>
			<point x="156" y="0" type="line" smooth="yes"/>
			<point x="176" y="0"/>
			<point x="192" y="16"/>
			<point x="192" y="36" type="curve" smooth="yes"/>
			<point x="192" y="52"/>
			<point x="206" y="64"/>
			<point x="224" y="64" type="curve" smooth="yes"/>
			<point x="242" y="64"/>
			<point x="256" y="78"/>
			<point x="256" y="96" type="curve" smooth="yes"/>
			<point x="256" y="114"/>
			<point x="240" y="128"/>
			<point x="220" y="128" type="curve" smooth="yes"/>
			<point x="204" y="128"/>
			<point x="192" y="144"/>
			<point x="192" y="164" type="curve" smooth="yes"/>
			<point x="192" y="220" type="line" smooth="yes"/>
			<point x="192" y="240"/>
			<point x="206" y="256"/>
			<point x="224" y="256" type="curve" smooth="yes"/>
			<point x="242" y="256"/>
			<point x="256" y="272"/>
			<point x="256" y="292" type="curve" smooth="yes"/>
			<point x="256" y="308"/>
			<point x="270" y="320"/>
			<point x="288" y="320" type="curve" smooth="yes"/>
			<point x="306" y="320"/>
			<point x="320" y="306"/>
			<point x="320" y="288" type="curve" smooth="yes"/>
			<point x="320" y="270"/>
			<point x="336" y="256"/>
			<point x="356" y="256" type="curve" smooth="yes"/>
			<point x="372" y="256"/>
			<point x="384" y="240"/>
			<point x="384" y="220" type="curve" smooth="yes"/>
			<point x="384" y="36" type="line" smooth="yes"/>
			<point x="384" y="16"/>
			<point x="400" y="0"/>
			<point x="420" y="0" type="curve" smooth="yes"/>
			<point x="476" y="0" type="line" smooth="yes"/>
			<point x="496" y="0"/>
			<point x="512" y="14"/>
		</contour>
	</outline>
</glyph>
<glyph name="L" format="2">
	<advance width="512"/>
	<unicode hex="004C"/>
	<note>
		L
	</note>
	<outline>
		<contour>
			<point x="348" y="64" type="curve" smooth="yes"/>
			<point x="228" y="64" type="line" smooth="yes"/>
			<point x="208" y="64"/>
			<point x="192" y="80"/>
			<point x="192" y="100" type="curve" smooth="yes"/>
			<point x="192" y="668" type="line" smooth="yes"/>
			<point x="192" y="688"/>
			<point x="178" y="704"/>
			<point x="160" y="704" type="curve" smooth="yes"/>
			<point x="142" y="704"/>
			<point x="128" y="690"/>
			<point x="128" y="672" type="curve" smooth="yes"/>
			<point x="128" y="654"/>
			<point x="114" y="640"/>
			<point x="96" y="640" type="curve" smooth="yes"/>
			<point x="78" y="640"/>
			<point x="64" y="626"/>
			<point x="64" y="608" type="curve" smooth="yes"/>
			<point x="64" y="590"/>
			<point x="50" y="576"/>
			<point x="32" y="576" type="curve" smooth="yes"/>
			<point x="14" y="576"/>
			<point x="0" y="562"/>
			<point x="0" y="544" type="curve" smooth="yes"/>
			<point x="0" y="526"/>
			<point x="14" y="512"/>
			<point x="32" y="512" type="curve" smooth="yes"/>
			<point x="50" y="512"/>
			<point x="64" y="496"/>
			<point x="64" y="476" type="curve" smooth="yes"/>
			<point x="64" y="36" type="line" smooth="yes"/>
			<point x="64" y="16"/>
			<point x="80" y="0"/>
			<point x="100" y="0" type="curve" smooth="yes"/>
			<point x="348" y="0" type="line" smooth="yes"/>
			<point x="368" y="0"/>
			<point x="384" y="14"/>
			<point x="384" y="32" type="curve" smooth="yes"/>
			<point x="384" y="50"/>
			<point x="368" y="64"/>
		</contour>
		<contour>
			<point x="448" y="96" type="curve" smooth="yes"/>
			<point x="448" y="115"/>
			<point x="434" y="128"/>
			<point x="416" y="128" type="curve" smooth="yes"/>
			<point x="398" y="128"/>
			<point x="384" y="114"/>
			<point x="384" y="96" type="curve" smooth="yes"/>
			<point x="384" y="78"/>
			<point x="398" y="64"/>
			<point x="416" y="64" type="curve" smooth="yes"/>
			<point x="434" y="64"/>
			<point x="448" y="78"/>
		</contour>
	</outline>
</glyph>
<glyph name="O" format="2">
	<advance width="576"/>
	<unicode hex="004F"/>
	<anchor x="288" y="0" name="bottom"/>
	<anchor x="288" y="352" name="center"/>
	<anchor x="518" y="10" name="ogonek"/>
	<anchor x="288" y="704" name="top"/>
	<anchor x="20" y="704" name="topleft"/>
	<anchor x="556" y="704" name="topright"/>
	<note>
		O
	</note>
	<outline>
		<contour>
			<point x="320" y="32" type="curve" smooth="yes"/>
			<point x="320" y="51"/>
			<point x="306" y="64"/>
			<point x="288" y="64" type="curve" smooth="yes"/>
			<point x="270" y="64"/>
			<point x="256" y="78"/>
			<point x="256" y="96" type="curve" smooth="yes"/>
			<point x="256" y="114"/>
			<point x="242" y="128"/>
			<point x="224" y="128" type="curve" smooth="yes"/>
			<point x="206" y="128"/>
			<point x="192" y="142"/>
			<point x="192" y="160" type="curve" smooth="yes"/>
			<point x="192" y="178"/>
			<point x="178" y="192"/>
			<point x="160" y="192" type="curve" smooth="yes"/>
			<point x="142" y="192"/>
			<point x="128" y="208"/>
			<point x="128" y="228" type="curve" smooth="yes"/>
			<point x="128" y="540" type="line" smooth="yes"/>
			<point x="128" y="560"/>
			<point x="114" y="576"/>
			<point x="96" y="576" type="curve" smooth="yes"/>
			<point x="78" y="576"/>
			<point x="64" y="562"/>
			<point x="64" y="544" type="curve" smooth="yes"/>
			<point x="64" y="526"/>
			<point x="50" y="512"/>
			<point x="32" y="512" type="curve" smooth="yes"/>
			<point x="14" y="512"/>
			<point x="0" y="496"/>
			<point x="0" y="476" type="curve" smooth="yes"/>
			<point x="0" y="164" type="line" smooth="yes"/>
			<point x="0" y="144"/>
			<point x="14" y="128"/>
			<point x="32" y="128" type="curve" smooth="yes"/>
			<point x="50" y="128"/>
			<point x="64" y="114"/>
			<point x="64" y="96" type="curve" smooth="yes"/>
			<point x="64" y="78"/>
			<point x="78" y="64"/>
			<point x="96" y="64" type="curve" smooth="yes"/>
			<point x="114" y="64"/>
			<point x="128" y="50"/>
			<point x="128" y="32" type="curve" smooth="yes"/>
			<point x="128" y="14"/>
			<point x="144" y="0"/>
			<point x="164" y="0" type="curve" smooth="yes"/>
			<point x="284" y="0" type="line" smooth="yes"/>
			<point x="304" y="0"/>
			<point x="320" y="14"/>
		</contour>
		<contour>
			<point x="384" y="96" type="curve" smooth="yes"/>
			<point x="384" y="115"/>
			<point x="370" y="128"/>
			<point x="352" y="128" type="curve" smooth="yes"/>
			<point x="334" y="128"/>
			<point x="320" y="114"/>
			<point x="320" y="96" type="curve" smooth="yes"/>
			<point x="320" y="78"/>
			<point x="334" y="64"/>
			<point x="352" y="64" type="curve" smooth="yes"/>
			<point x="370" y="64"/>
			<point x="384" y="78"/>
		</contour>
		<contour>
			<point x="448" y="160" type="curve" smooth="yes"/>
			<point x="448" y="179"/>
			<point x="462" y="192"/>
			<point x="480" y="192" type="curve" smooth="yes"/>
			<point x="498" y="192"/>
			<point x="512" y="208"/>
			<point x="512" y="228" type="curve" smooth="yes"/>
			<point x="512" y="540" type="line" smooth="yes"/>
			<point x="512" y="560"/>
			<point x="498" y="576"/>
			<point x="480" y="576" type="curve" smooth="yes"/>
			<point x="462" y="576"/>
			<point x="448" y="590"/>
			<point x="448" y="608" type="curve" smooth="yes"/>
			<point x="448" y="626"/>
			<point x="434" y="640"/>
			<point x="416" y="640" type="curve" smooth="yes"/>
			<point x="398" y="640"/>
			<point x="384" y="654"/>
			<point x="384" y="672" type="curve" smooth="yes"/>
			<point x="384" y="690"/>
			<point x="368" y="704"/>
			<point x="348" y="704" type="curve" smooth="yes"/>
			<point x="228" y="704" type="line" smooth="yes"/>
			<point x="208" y="704"/>
			<point x="192" y="690"/>
			<point x="192" y="672" type="curve" smooth="yes"/>
			<point x="192" y="654"/>
			<point x="178" y="640"/>
			<point x="160" y="640" type="curve" smooth="yes"/>
			<point x="142" y="640"/>
			<point x="128" y="626"/>
			<point x="128" y="608" type="curve" smooth="yes"/>
			<point x="128" y="590"/>
			<point x="142" y="576"/>
			<point x="160" y="576" type="curve" smooth="yes"/>
			<point x="178" y="576"/>
			<point x="192" y="590"/>
			<point x="192" y="608" type="curve" smooth="yes"/>
			<point x="192" y="626"/>
			<point x="206" y="640"/>
			<point x="224" y="640" type="curve" smooth="yes"/>
			<point x="242" y="640"/>
			<point x="256" y="626"/>
			<point x="256" y="608" type="curve" smooth="yes"/>
			<point x="256" y="590"/>
			<point x="270" y="576"/>
			<point x="288" y="576" type="curve" smooth="yes"/>
			<point x="306" y="576"/>
			<point x="320" y="562"/>
			<point x="320" y="544" type="curve" smooth="yes"/>
			<point x="320" y="526"/>
			<point x="334" y="512"/>
			<point x="352" y="512" type="curve" smooth="yes"/>
			<point x="370" y="512"/>
			<point x="384" y="496"/>
			<point x="384" y="476" type="curve" smooth="yes"/>
			<point x="384" y="164" type="line" smooth="yes"/>
			<point x="384" y="144"/>
			<point x="398" y="128"/>
			<point x="416" y="128" type="curve" smooth="yes"/>
			<point x="434" y="128"/>
			<point x="448" y="142"/>
		</contour>
	</outline>
</glyph>
<glyph name="Q" format="2">
	<advance width="640"/>
	<unicode hex="0051"/>
	<note>
		Q
	</note>
	<outline>
		<contour>
			<point x="448" y="-96" type="curve" smooth="yes"/>
			<point x="448" y="-77"/>
			<point x="462" y="-64"/>
			<point x="480" y="-64" type="curve" smooth="yes"/>
			<point x="498" y="-64"/>
			<point x="512" y="-50"/>
			<point x="512" y="-32" type="curve" smooth="yes"/>
			<point x="512" y="-14"/>
			<point x="498" y="0"/>
			<point x="480" y="0" type="curve" smooth="yes"/>
			<point x="462" y="0"/>
			<point x="448" y="14"/>
			<point x="448" y="32" type="curve" smooth="yes"/>
			<point x="448" y="50"/>
			<point x="434" y="64"/>
			<point x="416" y="64" type="curve" smooth="yes"/>
			<point x="398" y="64"/>
			<point x="384" y="78"/>
			<point x="384" y="96" type="curve" smooth="yes"/>
			<point x="384" y="114"/>
			<point x="370" y="128"/>
			<point x="352" y="128" type="curve" smooth="yes"/>
			<point x="334" y="128"/>
			<point x="320" y="114"/>
			<point x="320" y="96" type="curve" smooth="yes"/>
			<point x="320" y="78"/>
			<point x="306" y="64"/>
			<point x="288" y="64" type="curve" smooth="yes"/>
			<point x="270" y="64"/>
			<point x="256" y="78"/>
			<point x="256" y="96" type="curve" smooth="yes"/>
			<point x="256" y="114"/>
			<point x="242" y="128"/>
			<point x="224" y="128" type="curve" smooth="yes"/>
			<point x="206" y="128"/>
			<point x="192" y="142"/>
			<point x="192" y="160" type="curve" smooth="yes"/>
			<point x="192" y="178"/>
			<point x="178" y="192"/>
			<point x="160" y="192" type="curve" smooth="yes"/>
			<point x="142" y="192"/>
			<point x="128" y="208"/>
			<point x="128" y="228" type="curve" smooth="yes"/>
			<point x="128" y="540" type="line" smooth="yes"/>
			<point x="128" y="560"/>
			<point x="114" y="576"/>
			<point x="96" y="576" type="curve" smooth="yes"/>
			<point x="78" y="576"/>
			<point x="64" y="562"/>
			<point x="64" y="544" type="curve" smooth="yes"/>
			<point x="64" y="526"/>
			<point x="50" y="512"/>
			<point x="32" y="512" type="curve" smooth="yes"/>
			<point x="14" y="512"/>
			<point x="0" y="496"/>
			<point x="0" y="476" type="curve" smooth="yes"/>
			<point x="0" y="164" type="line" smooth="yes"/>
			<point x="0" y="144"/>
			<point x="14" y="128"/>
			<point x="32" y="128" type="curve" smooth="yes"/>
			<point x="50" y="128"/>
			<point x="64" y="114"/>
			<point x="64" y="96" type="curve" smooth="yes"/>
			<point x="64" y="78"/>
			<point x="78" y="64"/>
			<point x="96" y="64" type="curve" smooth="yes"/>
			<point x="114" y="64"/>
			<point x="128" y="50"/>
			<point x="128" y="32" type="curve" smooth="yes"/>
			<point x="128" y="14"/>
			<point x="144" y="0"/>
			<point x="164" y="0" type="curve" smooth="yes"/>
			<point x="284" y="0" type="line" smooth="yes"/>
			<point x="304" y="0"/>
			<point x="320" y="-14"/>
			<point x="320" y="-32" type="curve" smooth="yes"/>
			<point x="320" y="-50"/>
			<point x="334" y="-64"/>
			<point x="352" y="-64" type="curve" smooth="yes"/>
			<point x="370" y="-64"/>
			<point x="384" y="-78"/>
			<point x="384" y="-96" type="curve" smooth="yes"/>
			<point x="384" y="-114"/>
			<point x="398" y="-128"/>
			<point x="416" y="-128" type="curve" smooth="yes"/>
			<point x="434" y="-128"/>
			<point x="448" y="-114"/>
		</contour>
		<contour>
			<point x="576" y="32" type="curve" smooth="yes"/>
			<point x="576" y="51"/>
			<point x="562" y="64"/>
			<point x="544" y="64" type="curve" smooth="yes"/>
			<point x="526" y="64"/>
			<point x="512" y="50"/>
			<point x="512" y="32" type="curve" smooth="yes"/>
			<point x="512" y="14"/>
			<point x="526" y="0"/>
			<point x="544" y="0" type="curve" smooth="yes"/>
			<point x="562" y="0"/>
			<point x="576" y="14"/>
		</contour>
		<contour>
			<point x="448" y="160" type="curve" smooth="yes"/>
			<point x="448" y="179"/>
			<point x="462" y="192"/>
			<point x="480" y="192" type="curve" smooth="yes"/>
			<point x="498" y="192"/>
			<point x="512" y="208"/>
			<point x="512" y="228" type="curve" smooth="yes"/>
			<point x="512" y="540" type="line" smooth="yes"/>
			<point x="512" y="560"/>
			<point x="498" y="576"/>
			<point x="480" y="576" type="curve" smooth="yes"/>
			<point x="462" y="576"/>
			<point x="448" y="590"/>
			<point x="448" y="608" type="curve" smooth="yes"/>
			<point x="448" y="626"/>
			<point x="434" y="640"/>
			<point x="416" y="640" type="curve" smooth="yes"/>
			<point x="398" y="640"/>
			<point x="384" y="654"/>
			<point x="384" y="672" type="curve" smooth="yes"/>
			<point x="384" y="690"/>
			<point x="368" y="704"/>
			<point x="348" y="704" type="curve" smooth="yes"/>
			<point x="228" y="704" type="line" smooth="yes"/>
			<point x="208" y="704"/>
			<point x="192" y="690"/>
			<point x="192" y="672" type="curve" smooth="yes"/>
			<point x="192" y="654"/>
			<point x="178" y="640"/>
			<point x="160" y="640" type="curve" smooth="yes"/>
			<point x="142" y="640"/>
			<point x="128" y="626"/>
			<point x="128" y="608" type="curve" smooth="yes"/>
			<point x="128" y="590"/>
			<point x="142" y="576"/>
			<point x="160" y="576" type="curve" smooth="yes"/>
			<point x="178" y="576"/>
			<point x="192" y="590"/>
			<point x="192" y="608" type="curve" smooth="yes"/>
			<point x="192" y="626"/>
			<point x="206" y="640"/>
			<point x="224" y="640" type="curve" smooth="yes"/>
			<point x="242" y="640"/>
			<point x="256" y="626"/>
			<point x="256" y="608" type="curve" smooth="yes"/>
			<point x="256" y="590"/>
			<point x="270" y="576"/>
			<point x="288" y="576" type="curve" smooth="yes"/>
			<point x="306" y="576"/>
			<point x="320" y="562"/>
			<point x="320" y="544" type="curve" smooth="yes"/>
			<point x="320" y="526"/>
			<point x="334" y="512"/>
			<point x="352" y="512" type="curve" smooth="yes"/>
			<point x="370" y="512"/>
			<point x="384" y="496"/>
			<point x="384" y="476" type="curve" smooth="yes"/>
			<point x="384" y="164" type="line" smooth="yes"/>
			<point x="384" y="144"/>
			<point x="398" y="128"/>
			<point x="416" y="128" type="curve" smooth="yes"/>
			<point x="434" y="128"/>
			<point x="448" y="142"/>
		</contour>
	</outline>
</glyph>
<glyph name="R" format="2">
	<advance width="640"/>
	<unicode hex="0052"/>
	<note>
		R
	</note>
	<outline>
		<contour>
			<point x="512" y="32" type="curve" smooth="yes"/>
			<point x="512" y="51"/>
			<point x="526" y="64"/>
			<point x="544" y="64" type="curve" smooth="yes"/>
			<point x="562" y="64"/>
			<point x="576" y="78"/>
			<point x="576" y="96" type="curve" smooth="yes"/>
			<point x="576" y="114"/>
			<point x="562" y="128"/>
			<point x="544" y="128" type="curve" smooth="yes"/>
			<point x="526" y="128"/>
			<point x="512" y="144"/>
			<point x="512" y="164" type="curve" smooth="yes"/>
			<point x="512" y="348" type="line" smooth="yes"/>
			<point x="512" y="368"/>
			<point x="498" y="384"/>
			<point x="480" y="384" type="curve" smooth="yes"/>
			<point x="462" y="384"/>
			<point x="448" y="400"/>
			<point x="448" y="420" type="curve" smooth="yes"/>
			<point x="448" y="476" type="line" smooth="yes"/>
			<point x="448" y="496"/>
			<point x="462" y="512"/>
			<point x="480" y="512" type="curve" smooth="yes"/>
			<point x="498" y="512"/>
			<point x="512" y="528"/>
			<point x="512" y="548" type="curve" smooth="yes"/>
			<point x="512" y="604" type="line" smooth="yes"/>
			<point x="512" y="624"/>
			<point x="498" y="640"/>
			<point x="480" y="640" type="curve" smooth="yes"/>
			<point x="462" y="640"/>
			<point x="448" y="654"/>
			<point x="448" y="672" type="curve" smooth="yes"/>
			<point x="448" y="690"/>
			<point x="432" y="704"/>
			<point x="412" y="704" type="curve" smooth="yes"/>
			<point x="292" y="704" type="line" smooth="yes"/>
			<point x="272" y="704"/>
			<point x="256" y="690"/>
			<point x="256" y="672" type="curve" smooth="yes"/>
			<point x="256" y="654"/>
			<point x="242" y="640"/>
			<point x="224" y="640" type="curve" smooth="yes"/>
			<point x="206" y="640"/>
			<point x="192" y="654"/>
			<point x="192" y="672" type="curve" smooth="yes"/>
			<point x="192" y="690"/>
			<point x="178" y="704"/>
			<point x="160" y="704" type="curve" smooth="yes"/>
			<point x="142" y="704"/>
			<point x="128" y="690"/>
			<point x="128" y="672" type="curve" smooth="yes"/>
			<point x="128" y="654"/>
			<point x="114" y="640"/>
			<point x="96" y="640" type="curve" smooth="yes"/>
			<point x="78" y="640"/>
			<point x="64" y="626"/>
			<point x="64" y="608" type="curve" smooth="yes"/>
			<point x="64" y="590"/>
			<point x="50" y="576"/>
			<point x="32" y="576" type="curve" smooth="yes"/>
			<point x="14" y="576"/>
			<point x="0" y="562"/>
			<point x="0" y="544" type="curve" smooth="yes"/>
			<point x="0" y="526"/>
			<point x="14" y="512"/>
			<point x="32" y="512" type="curve" smooth="yes"/>
			<point x="50" y="512"/>
			<point x="64" y="496"/>
			<point x="64" y="476" type="curve" smooth="yes"/>
			<point x="64" y="36" type="line" smooth="yes"/>
			<point x="64" y="16"/>
			<point x="80" y="0"/>
			<point x="100" y="0" type="curve" smooth="yes"/>
			<point x="156" y="0" type="line" smooth="yes"/>
			<point x="176" y="0"/>
			<point x="192" y="14"/>
			<point x="192" y="32" type="curve" smooth="yes"/>
			<point x="192" y="50"/>
			<point x="206" y="64"/>
			<point x="224" y="64" type="curve" smooth="yes"/>
			<point x="242" y="64"/>
			<point x="256" y="78"/>
			<point x="256" y="96" type="curve" smooth="yes"/>
			<point x="256" y="114"/>
			<point x="242" y="128"/>
			<point x="224" y="128" type="curve" smooth="yes"/>
			<point x="206" y="128"/>
			<point x="192" y="144"/>
			<point x="192" y="164" type="curve" smooth="yes"/>
			<point x="192" y="220" type="line" smooth="yes"/>
			<point x="192" y="240"/>
			<point x="206" y="256"/>
			<point x="224" y="256" type="curve" smooth="yes"/>
			<point x="242" y="256"/>
			<point x="256" y="270"/>
			<point x="256" y="288" type="curve" smooth="yes"/>
			<point x="256" y="306"/>
			<point x="242" y="320"/>
			<point x="224" y="320" type="curve" smooth="yes"/>
			<point x="206" y="320"/>
			<point x="192" y="336"/>
			<point x="192" y="356" type="curve" smooth="yes"/>
			<point x="192" y="540" type="line" smooth="yes"/>
			<point x="192" y="560"/>
			<point x="206" y="576"/>
			<point x="224" y="576" type="curve" smooth="yes"/>
			<point x="242" y="576"/>
			<point x="256" y="590"/>
			<point x="256" y="608" type="curve" smooth="yes"/>
			<point x="256" y="626"/>
			<point x="270" y="640"/>
			<point x="288" y="640" type="curve" smooth="yes"/>
			<point x="306" y="640"/>
			<point x="320" y="626"/>
			<point x="320" y="608" type="curve" smooth="yes"/>
			<point x="320" y="590"/>
			<point x="334" y="576"/>
			<point x="352" y="576" type="curve" smooth="yes"/>
			<point x="370" y="576"/>
			<point x="384" y="560"/>
			<point x="384" y="540" type="curve" smooth="yes"/>
			<point x="384" y="484" type="line" smooth="yes"/>
			<point x="384" y="464"/>
			<point x="370" y="448"/>
			<point x="352" y="448" type="curve" smooth="yes"/>
			<point x="334" y="448"/>
			<point x="320" y="434"/>
			<point x="320" y="416" type="curve" smooth="yes"/>
			<point x="320" y="398"/>
			<point x="306" y="384"/>
			<point x="288" y="384" type="curve" smooth="yes"/>
			<point x="270" y="384"/>
			<point x="256" y="370"/>
			<point x="256" y="352" type="curve" smooth="yes"/>
			<point x="256" y="334"/>
			<point x="272" y="320"/>
			<point x="292" y="320" type="curve" smooth="yes"/>
			<point x="348" y="320" type="line" smooth="yes"/>
			<point x="368" y="320"/>
			<point x="384" y="304"/>
			<point x="384" y="284" type="curve" smooth="yes"/>
			<point x="384" y="36" type="line" smooth="yes"/>
			<point x="384" y="16"/>
			<point x="400" y="0"/>
			<point x="420" y="0" type="curve" smooth="yes"/>
			<point x="476" y="0" type="line" smooth="yes"/>
			<point x="496" y="0"/>
			<point x="512" y="14"/>
		</contour>
	</outline>
</glyph>
<glyph name="T" format="2">
	<advance width="640"/>
	<unicode hex="0054"/>
	<note>
		T
	</note>
	<outline>
		<contour>
			<point x="64" y="544" type="curve" smooth="yes"/>
			<point x="64" y="563"/>
			<point x="50" y="576"/>
			<point x="32" y="576" type="curve" smooth="yes"/>
			<point x="14" y="576"/>
			<point x="0" y="562"/>
			<point x="0" y="544" type="curve" smooth="yes"/>
			<point x="0" y="526"/>
			<point x="14" y="512"/>
			<point x="32" y="512" type="curve" smooth="yes"/>
			<point x="50" y="512"/>
			<point x="64" y="526"/>
		</contour>
		<contour>
			<point x="448" y="32" type="curve" smooth="yes"/>
			<point x="448" y="51"/>
			<point x="434" y="64"/>
			<point x="416" y="64" type="curve" smooth="yes"/>
			<point x="398" y="64"/>
			<point x="384" y="78"/>
			<point x="384" y="96" type="curve" smooth="yes"/>
			<point x="384" y="114"/>
			<point x="370" y="128"/>
			<point x="352" y="128" type="curve" smooth="yes"/>
			<point x="334" y="128"/>
			<point x="320" y="144"/>
			<point x="320" y="164" type="curve" smooth="yes"/>
			<point x="320" y="604" type="line" smooth="yes"/>
			<point x="320" y="624"/>
			<point x="334" y="640"/>
			<point x="352" y="640" type="curve" smooth="yes"/>
			<point x="370" y="640"/>
			<point x="384" y="626"/>
			<point x="384" y="608" type="curve" smooth="yes"/>
			<point x="384" y="590"/>
			<point x="398" y="576"/>
			<point x="416" y="576" type="curve" smooth="yes"/>
			<point x="434" y="576"/>
			<point x="448" y="562"/>
			<point x="448" y="544" type="curve" smooth="yes"/>
			<point x="448" y="526"/>
			<point x="464" y="512"/>
			<point x="484" y="512" type="curve" smooth="yes"/>
			<point x="540" y="512" type="line" smooth="yes"/>
			<point x="560" y="512"/>
			<point x="576" y="528"/>
			<point x="576" y="548" type="curve" smooth="yes"/>
			<point x="576" y="668" type="line" smooth="yes"/>
			<point x="576" y="688"/>
			<point x="562" y="704"/>
			<point x="544" y="704" type="curve" smooth="yes"/>
			<point x="526" y="704"/>
			<point x="512" y="690"/>
			<point x="512" y="672" type="curve" smooth="yes"/>
			<point x="512" y="654"/>
			<point x="498" y="640"/>
			<point x="480" y="640" type="curve" smooth="yes"/>
			<point x="462" y="640"/>
			<point x="448" y="654"/>
			<point x="448" y="672" type="curve" smooth="yes"/>
			<point x="448" y="690"/>
			<point x="432" y="704"/>
			<point x="412" y="704" type="curve" smooth="yes"/>
			<point x="164" y="704" type="line" smooth="yes"/>
			<point x="144" y="704"/>
			<point x="128" y="690"/>
			<point x="128" y="672" type="curve" smooth="yes"/>
			<point x="128" y="654"/>
			<point x="114" y="640"/>
			<point x="96" y="640" type="curve" smooth="yes"/>
			<point x="78" y="640"/>
			<point x="64" y="626"/>
			<point x="64" y="608" type="curve" smooth="yes"/>
			<point x="64" y="590"/>
			<point x="78" y="576"/>
			<point x="96" y="576" type="curve" smooth="yes"/>
			<point x="114" y="576"/>
			<point x="128" y="590"/>
			<point x="128" y="608" type="curve" smooth="yes"/>
			<point x="128" y="626"/>
			<point x="144" y="640"/>
			<point x="164" y="640" type="curve" smooth="yes"/>
			<point x="220" y="640" type="line" smooth="yes"/>
			<point x="240" y="640"/>
			<point x="256" y="626"/>
			<point x="256" y="608" type="curve" smooth="yes"/>
			<point x="256" y="590"/>
			<point x="242" y="576"/>
			<point x="224" y="576" type="curve" smooth="yes"/>
			<point x="206" y="576"/>
			<point x="192" y="560"/>
			<point x="192" y="540" type="curve" smooth="yes"/>
			<point x="192" y="100" type="line" smooth="yes"/>
			<point x="192" y="80"/>
			<point x="206" y="64"/>
			<point x="224" y="64" type="curve" smooth="yes"/>
			<point x="242" y="64"/>
			<point x="256" y="50"/>
			<point x="256" y="32" type="curve" smooth="yes"/>
			<point x="256" y="14"/>
			<point x="272" y="0"/>
			<point x="292" y="0" type="curve" smooth="yes"/>
			<point x="412" y="0" type="line" smooth="yes"/>
			<point x="432" y="0"/>
			<point x="448" y="14"/>
		</contour>
		<contour>
			<point x="512" y="96" type="curve" smooth="yes"/>
			<point x="512" y="115"/>
			<point x="498" y="128"/>
			<point x="480" y="128" type="curve" smooth="yes"/>
			<point x="462" y="128"/>
			<point x="448" y="114"/>
			<point x="448" y="96" type="curve" smooth="yes"/>
			<point x="448" y="78"/>
			<point x="462" y="64"/>
			<point x="480" y="64" type="curve" smooth="yes"/>
			<point x="498" y="64"/>
			<point x="512" y="78"/>
		</contour>
		<contour>
			<point x="576" y="160" type="curve" smooth="yes"/>
			<point x="576" y="179"/>
			<point x="562" y="192"/>
			<point x="544" y="192" type="curve" smooth="yes"/>
			<point x="526" y="192"/>
			<point x="512" y="178"/>
			<point x="512" y="160" type="curve" smooth="yes"/>
			<point x="512" y="142"/>
			<point x="526" y="128"/>
			<point x="544" y="128" type="curve" smooth="yes"/>
			<point x="562" y="128"/>
			<point x="576" y="142"/>
		</contour>
	</outline>
</glyph>
<glyph name="U" format="2">
	<advance width="704"/>
	<unicode hex="0055"/>
	<anchor x="352" y="0" name="bottom"/>
	<anchor x="634" y="10" name="ogonek"/>
	<anchor x="352" y="704" name="top"/>
	<anchor x="684" y="704" name="topright"/>
	<note>
		U
	</note>
	<outline>
		<contour>
			<point x="576" y="32" type="curve" smooth="yes"/>
			<point x="576" y="51"/>
			<point x="590" y="64"/>
			<point x="608" y="64" type="curve" smooth="yes"/>
			<point x="626" y="64"/>
			<point x="640" y="78"/>
			<point x="640" y="96" type="curve" smooth="yes"/>
			<point x="640" y="114"/>
			<point x="626" y="128"/>
			<point x="608" y="128" type="curve" smooth="yes"/>
			<point x="590" y="128"/>
			<point x="576" y="144"/>
			<point x="576" y="164" type="curve" smooth="yes"/>
			<point x="576" y="668" type="line" smooth="yes"/>
			<point x="576" y="688"/>
			<point x="562" y="704"/>
			<point x="544" y="704" type="curve" smooth="yes"/>
			<point x="526" y="704"/>
			<point x="512" y="690"/>
			<point x="512" y="672" type="curve" smooth="yes"/>
			<point x="512" y="654"/>
			<point x="498" y="640"/>
			<point x="480" y="640" type="curve" smooth="yes"/>
			<point x="462" y="640"/>
			<point x="448" y="626"/>
			<point x="448" y="608" type="curve" smooth="yes"/>
			<point x="448" y="590"/>
			<point x="434" y="576"/>
			<point x="416" y="576" type="curve" smooth="yes"/>
			<point x="398" y="576"/>
			<point x="384" y="562"/>
			<point x="384" y="544" type="curve" smooth="yes"/>
			<point x="384" y="526"/>
			<point x="398" y="512"/>
			<point x="416" y="512" type="curve" smooth="yes"/>
			<point x="434" y="512"/>
			<point x="448" y="496"/>
			<point x="448" y="476" type="curve" smooth="yes"/>
			<point x="448" y="100" type="line" smooth="yes"/>
			<point x="448" y="80"/>
			<point x="432" y="64"/>
			<point x="412" y="64" type="curve" smooth="yes"/>
			<point x="292" y="64" type="line" smooth="yes"/>
			<point x="272" y="64"/>
			<point x="256" y="78"/>
			<point x="256" y="96" type="curve" smooth="yes"/>
			<point x="256" y="114"/>
			<point x="242" y="128"/>
			<point x="224" y="128" type="curve" smooth="yes"/>
			<point x="206" y="128"/>
			<point x="192" y="144"/>
			<point x="192" y="164" type="curve" smooth="yes"/>
			<point x="192" y="668" type="line" smooth="yes"/>
			<point x="192" y="688"/>
			<point x="178" y="704"/>
			<point x="160" y="704" type="curve" smooth="yes"/>
			<point x="142" y="704"/>
			<point x="128" y="690"/>
			<point x="128" y="672" type="curve" smooth="yes"/>
			<point x="128" y="654"/>
			<point x="114" y="640"/>
			<point x="96" y="640" type="curve" smooth="yes"/>
			<point x="78" y="640"/>
			<point x="64" y="626"/>
			<point x="64" y="608" type="curve" smooth="yes"/>
			<point x="64" y="590"/>
			<point x="50" y="576"/>
			<point x="32" y="576" type="curve" smooth="yes"/>
			<point x="14" y="576"/>
			<point x="0" y="562"/>
			<point x="0" y="544" type="curve" smooth="yes"/>
			<point x="0" y="526"/>
			<point x="14" y="512"/>
			<point x="32" y="512" type="curve" smooth="yes"/>
			<point x="50" y="512"/>
			<point x="64" y="496"/>
			<point x="64" y="476" type="curve" smooth="yes"/>
			<point x="64" y="100" type="line" smooth="yes"/>
			<point x="64" y="80"/>
			<point x="78" y="64"/>
			<point x="96" y="64" type="curve" smooth="yes"/>
			<point x="114" y="64"/>
			<point x="128" y="50"/>
			<point x="128" y="32" type="curve" smooth="yes"/>
			<point x="128" y="14"/>
			<point x="144" y="0"/>
			<point x="164" y="0" type="curve" smooth="yes"/>
			<point x="540" y="0" type="line" smooth="yes"/>
			<point x="560" y="0"/>
			<point x="576" y="14"/>
		</contour>
	</outline>
</glyph>
<glyph name="V" format="2">
	<advance width="640"/>
	<unicode hex="0056"/>
	<note>
		V
	</note>
	<outline>
		<contour>
			<point x="384" y="32" type="curve" smooth="yes"/>
			<point x="384" y="51"/>
			<point x="398" y="64"/>
			<point x="416" y="64" type="curve" smooth="yes"/>
			<point x="434" y="64"/>
			<point x="448" y="78"/>
			<point x="448" y="96" type="curve" smooth="yes"/>
			<point x="448" y="114"/>
			<point x="432" y="128"/>
			<point x="412" y="128" type="curve" smooth="yes"/>
			<point x="356" y="128" type="line" smooth="yes"/>
			<point x="336" y="128"/>
			<point x="320" y="142"/>
			<point x="320" y="160" type="curve" smooth="yes"/>
			<point x="320" y="178"/>
			<point x="306" y="192"/>
			<point x="288" y="192" type="curve" smooth="yes"/>
			<point x="270" y="192"/>
			<point x="256" y="206"/>
			<point x="256" y="224" type="curve" smooth="yes"/>
			<point x="256" y="242"/>
			<point x="242" y="256"/>
			<point x="224" y="256" type="curve" smooth="yes"/>
			<point x="206" y="256"/>
			<point x="192" y="272"/>
			<point x="192" y="292" type="curve" smooth="yes"/>
			<point x="192" y="668" type="line" smooth="yes"/>
			<point x="192" y="688"/>
			<point x="178" y="704"/>
			<point x="160" y="704" type="curve" smooth="yes"/>
			<point x="142" y="704"/>
			<point x="128" y="690"/>
			<point x="128" y="672" type="curve" smooth="yes"/>
			<point x="128" y="654"/>
			<point x="114" y="640"/>
			<point x="96" y="640" type="curve" smooth="yes"/>
			<point x="78" y="640"/>
			<point x="64" y="626"/>
			<point x="64" y="608" type="curve" smooth="yes"/>
			<point x="64" y="590"/>
			<point x="50" y="576"/>
			<point x="32" y="576" type="curve" smooth="yes"/>
			<point x="14" y="576"/>
			<point x="0" y="562"/>
			<point x="0" y="544" type="curve" smooth="yes"/>
			<point x="0" y="526"/>
			<point x="14" y="512"/>
			<point x="32" y="512" type="curve" smooth="yes"/>
			<point x="50" y="512"/>
			<point x="64" y="496"/>
			<point x="64" y="476" type="curve" smooth="yes"/>
			<point x="64" y="228" type="line" smooth="yes"/>
			<point x="64" y="208"/>
			<point x="78" y="192"/>
			<point x="96" y="192" type="curve" smooth="yes"/>
			<point x="114" y="192"/>
			<point x="128" y="178"/>
			<point x="128" y="160" type="curve" smooth="yes"/>
			<point x="128" y="142"/>
			<point x="142" y="128"/>
			<point x="160" y="128" type="curve" smooth="yes"/>
			<point x="178" y="128"/>
			<point x="192" y="114"/>
			<point x="192" y="96" type="curve" smooth="yes"/>
			<point x="192" y="78"/>
			<point x="206" y="64"/>
			<point x="224" y="64" type="curve" smooth="yes"/>
			<point x="242" y="64"/>
			<point x="256" y="50"/>
			<point x="256" y="32" type="curve" smooth="yes"/>
			<point x="256" y="14"/>
			<point x="272" y="0"/>
			<point x="292" y="0" type="curve" smooth="yes"/>
			<point x="348" y="0" type="line" smooth="yes"/>
			<point x="368" y="0"/>
			<point x="384" y="14"/>
		</contour>
		<contour>
			<point x="512" y="160" type="curve" smooth="yes"/>
			<point x="512" y="179"/>
			<point x="526" y="192"/>
			<point x="544" y="192" type="curve" smooth="yes"/>
			<point x="562" y="192"/>
			<point x="576" y="208"/>
			<point x="576" y="228" type="curve" smooth="yes"/>
			<point x="576" y="668" type="line" smooth="yes"/>
			<point x="576" y="688"/>
			<point x="562" y="704"/>
			<point x="544" y="704" type="curve" smooth="yes"/>
			<point x="526" y="704"/>
			<point x="512" y="690"/>
			<point x="512" y="672" type="curve" smooth="yes"/>
			<point x="512" y="654"/>
			<point x="498" y="640"/>
			<point x="480" y="640" type="curve" smooth="yes"/>
			<point x="462" y="640"/>
			<point x="448" y="624"/>
			<point x="448" y="604" type="curve" smooth="yes"/>
			<point x="448" y="164" type="line" smooth="yes"/>
			<point x="448" y="144"/>
			<point x="462" y="128"/>
			<point x="480" y="128" type="curve" smooth="yes"/>
			<point x="498" y="128"/>
			<point x="512" y="142"/>
		</contour>
	</outline>
</glyph>
<glyph name="W" format="2">
	<advance width="768"/>
	<unicode hex="0057"/>
	<anchor x="384" y="0" name="bottom"/>
	<anchor x="384" y="704" name="top"/>
	<note>
		W
	</note>
	<outline>
		<contour>
			<point x="256" y="32" type="curve" smooth="yes"/>
			<point x="256" y="51"/>
			<point x="270" y="64"/>
			<point x="288" y="64" type="curve" smooth="yes"/>
			<point x="306" y="64"/>
			<point x="320" y="50"/>
			<point x="320" y="32" type="curve" smooth="yes"/>
			<point x="320" y="14"/>
			<point x="336" y="0"/>
			<point x="356" y="0" type="curve" smooth="yes"/>
			<point x="476" y="0" type="line" smooth="yes"/>
			<point x="496" y="0"/>
			<point x="512" y="14"/>
			<point x="512" y="32" type="curve" smooth="yes"/>
			<point x="512" y="50"/>
			<point x="498" y="64"/>
			<point x="480" y="64" type="curve" smooth="yes"/>
			<point x="462" y="64"/>
			<point x="448" y="80"/>
			<point x="448" y="100" type="curve" smooth="yes"/>
			<point x="448" y="476" type="line" smooth="yes"/>
			<point x="448" y="496"/>
			<point x="434" y="512"/>
			<point x="416" y="512" type="curve" smooth="yes"/>
			<point x="398" y="512"/>
			<point x="384" y="498"/>
			<point x="384" y="480" type="curve" smooth="yes"/>
			<point x="384" y="462"/>
			<point x="370" y="448"/>
			<point x="352" y="448" type="curve" smooth="yes"/>
			<point x="334" y="448"/>
			<point x="320" y="432"/>
			<point x="320" y="412" type="curve" smooth="yes"/>
			<point x="320" y="164" type="line" smooth="yes"/>
			<point x="320" y="144"/>
			<point x="306" y="128"/>
			<point x="288" y="128" type="curve" smooth="yes"/>
			<point x="270" y="128"/>
			<point x="256" y="142"/>
			<point x="256" y="160" type="curve" smooth="yes"/>
			<point x="256" y="178"/>
			<point x="242" y="192"/>
			<point x="224" y="192" type="curve" smooth="yes"/>
			<point x="206" y="192"/>
			<point x="192" y="208"/>
			<point x="192" y="228" type="curve" smooth="yes"/>
			<point x="192" y="668" type="line" smooth="yes"/>
			<point x="192" y="688"/>
			<point x="178" y="704"/>
			<point x="160" y="704" type="curve" smooth="yes"/>
			<point x="142" y="704"/>
			<point x="128" y="690"/>
			<point x="128" y="672" type="curve" smooth="yes"/>
			<point x="128" y="654"/>
			<point x="114" y="640"/>
			<point x="96" y="640" type="curve" smooth="yes"/>
			<point x="78" y="640"/>
			<point x="64" y="626"/>
			<point x="64" y="608" type="curve" smooth="yes"/>
			<point x="64" y="590"/>
			<point x="50" y="576"/>
			<point x="32" y="576" type="curve" smooth="yes"/>
			<point x="14" y="576"/>
			<point x="0" y="562"/>
			<point x="0" y="544" type="curve" smooth="yes"/>
			<point x="0" y="526"/>
			<point x="14" y="512"/>
			<point x="32" y="512" type="curve" smooth="yes"/>
			<point x="50" y="512"/>
			<point x="64" y="496"/>
			<point x="64" y="476" type="curve" smooth="yes"/>
			<point x="64" y="164" type="line" smooth="yes"/>
			<point x="64" y="144"/>
			<point x="78" y="128"/>
			<point x="96" y="128" type="curve" smooth="yes"/>
			<point x="114" y="128"/>
			<point x="128" y="114"/>
			<point x="128" y="96" type="curve" smooth="yes"/>
			<point x="128" y="78"/>
			<point x="142" y="64"/>
			<point x="160" y="64" type="curve" smooth="yes"/>
			<point x="178" y="64"/>
			<point x="192" y="50"/>
			<point x="192" y="32" type="curve" smooth="yes"/>
			<point x="192" y="14"/>
			<point x="206" y="0"/>
			<point x="224" y="0" type="curve" smooth="yes"/>
			<point x="242" y="0"/>
			<point x="256" y="14"/>
		</contour>
		<contour>
			<point x="576" y="96" type="curve" smooth="yes"/>
			<point x="576" y="115"/>
			<point x="562" y="128"/>
			<point x="544" y="128" type="curve" smooth="yes"/>
			<point x="526" y="128"/>
			<point x="512" y="114"/>
			<point x="512" y="96" type="curve" smooth="yes"/>
			<point x="512" y="78"/>
			<point x="526" y="64"/>
			<point x="544" y="64" type="curve" smooth="yes"/>
			<point x="562" y="64"/>
			<point x="576" y="78"/>
		</contour>
		<contour>
			<point x="640" y="160" type="curve" smooth="yes"/>
			<point x="640" y="179"/>
			<point x="654" y="192"/>
			<point x="672" y="192" type="curve" smooth="yes"/>
			<point x="690" y="192"/>
			<point x="704" y="208"/>
			<point x="704" y="228" type="curve" smooth="yes"/>
			<point x="704" y="668" type="line" smooth="yes"/>
			<point x="704" y="688"/>
			<point x="690" y="704"/>
			<point x="672" y="704" type="curve" smooth="yes"/>
			<point x="654" y="704"/>
			<point x="640" y="690"/>
			<point x="640" y="672" type="curve" smooth="yes"/>
			<point x="640" y="654"/>
			<point x="626" y="640"/>
			<point x="608" y="640" type="curve" smooth="yes"/>
			<point x="590" y="640"/>
			<point x="576" y="624"/>
			<point x="576" y="604" type="curve" smooth="yes"/>
			<point x="576" y="164" type="line" smooth="yes"/>
			<point x="576" y="144"/>
			<point x="590" y="128"/>
			<point x="608" y="128" type="curve" smooth="yes"/>
			<point x="626" y="128"/>
			<point x="640" y="142"/>
		</contour>
	</outline>
</glyph>
<glyph name="X" format="2">
	<advance width="640"/>
	<unicode hex="0058"/>
	<note>
		X
	</note>
	<outline>
		<contour>
			<point x="512" y="32" type="curve" smooth="yes"/>
			<point x="512" y="51"/>
			<point x="526" y="64"/>
			<point x="544" y="64" type="curve" smooth="yes"/>
			<point x="562" y="64"/>
			<point x="576" y="78"/>
			<point x="576" y="96" type="curve" smooth="yes"/>
			<point x="576" y="114"/>
			<point x="562" y="128"/>
			<point x="544" y="128" type="curve" smooth="yes"/>
			<point x="526" y="128"/>
			<point x="512" y="144"/>
			<point x="512" y="164" type="curve" smooth="yes"/>
			<point x="512" y="220" type="line" smooth="yes"/>
			<point x="512" y="240"/>
			<point x="498" y="256"/>
			<point x="480" y="256" type="curve" smooth="yes"/>
			<point x="462" y="256"/>
			<point x="448" y="270"/>
			<point x="448" y="288" type="curve" smooth="yes"/>
			<point x="448" y="306"/>
			<point x="434" y="320"/>
			<point x="416" y="320" type="curve" smooth="yes"/>
			<point x="398" y="320"/>
			<point x="384" y="334"/>
			<point x="384" y="352" type="curve" smooth="yes"/>
			<point x="384" y="370"/>
			<point x="370" y="384"/>
			<point x="352" y="384" type="curve" smooth="yes"/>
			<point x="334" y="384"/>
			<point x="320" y="398"/>
			<point x="320" y="416" type="curve" smooth="yes"/>
			<point x="320" y="434"/>
			<point x="306" y="448"/>
			<point x="288" y="448" type="curve" smooth="yes"/>
			<point x="270" y="448"/>
			<point x="256" y="462"/>
			<point x="256" y="480" type="curve" smooth="yes"/>
			<point x="256" y="498"/>
			<point x="242" y="512"/>
			<point x="224" y="512" type="curve" smooth="yes"/>
			<point x="206" y="512"/>
			<point x="192" y="528"/>
			<point x="192" y="548" type="curve" smooth="yes"/>
			<point x="192" y="668" type="line" smooth="yes"/>
			<point x="192" y="688"/>
			<point x="178" y="704"/>
			<point x="160" y="704" type="curve" smooth="yes"/>
			<point x="142" y="704"/>
			<point x="128" y="690"/>
			<point x="128" y="672" type="curve" smooth="yes"/>
			<point x="128" y="654"/>
			<point x="114" y="640"/>
			<point x="96" y="640" type="curve" smooth="yes"/>
			<point x="78" y="640"/>
			<point x="64" y="626"/>
			<point x="64" y="608" type="curve" smooth="yes"/>
			<point x="64" y="590"/>
			<point x="50" y="576"/>
			<point x="32" y="576" type="curve" smooth="yes"/>
			<point x="14" y="576"/>
			<point x="0" y="562"/>
			<point x="0" y="544" type="curve" smooth="yes"/>
			<point x="0" y="526"/>
			<point x="14" y="512"/>
			<point x="32" y="512" type="curve" smooth="yes"/>
			<point x="50" y="512"/>
			<point x="64" y="498"/>
			<point x="64" y="480" type="curve" smooth="yes"/>
			<point x="64" y="462"/>
			<point x="78" y="448"/>
			<point x="96" y="448" type="curve" smooth="yes"/>
			<point x="114" y="448"/>
			<point x="128" y="434"/>
			<point x="128" y="416" type="curve" smooth="yes"/>
			<point x="128" y="398"/>
			<point x="142" y="384"/>
			<point x="160" y="384" type="curve" smooth="yes"/>
			<point x="178" y="384"/>
			<point x="192" y="370"/>
			<point x="192" y="352" type="curve" smooth="yes"/>
			<point x="192" y="334"/>
			<point x="178" y="320"/>
			<point x="160" y="320" type="curve" smooth="yes"/>
			<point x="142" y="320"/>
			<point x="128" y="306"/>
			<point x="128" y="288" type="curve" smooth="yes"/>
			<point x="128" y="270"/>
			<point x="114" y="256"/>
			<point x="96" y="256" type="curve" smooth="yes"/>
			<point x="78" y="256"/>
			<point x="64" y="240"/>
			<point x="64" y="220" type="curve" smooth="yes"/>
			<point x="64" y="164" type="line" smooth="yes"/>
			<point x="64" y="144"/>
			<point x="50" y="128"/>
			<point x="32" y="128" type="curve" smooth="yes"/>
			<point x="14" y="128"/>
			<point x="0" y="114"/>
			<point x="0" y="96" type="curve" smooth="yes"/>
			<point x="0" y="78"/>
			<point x="14" y="64"/>
			<point x="32" y="64" type="curve" smooth="yes"/>
			<point x="50" y="64"/>
			<point x="64" y="50"/>
			<point x="64" y="32" type="curve" smooth="yes"/>
			<point x="64" y="14"/>
			<point x="80" y="0"/>
			<point x="100" y="0" type="curve" smooth="yes"/>
			<point x="156" y="0" type="line" smooth="yes"/>
			<point x="176" y="0"/>
			<point x="192" y="16"/>
			<point x="192" y="36" type="curve" smooth="yes"/>
			<point x="192" y="284" type="line" smooth="yes"/>
			<point x="192" y="304"/>
			<point x="206" y="320"/>
			<point x="224" y="320" type="curve" smooth="yes"/>
			<point x="242" y="320"/>
			<point x="256" y="306"/>
			<point x="256" y="288" type="curve" smooth="yes"/>
			<point x="256" y="270"/>
			<point x="270" y="256"/>
			<point x="288" y="256" type="curve" smooth="yes"/>
			<point x="306" y="256"/>
			<point x="320" y="242"/>
			<point x="320" y="224" type="curve" smooth="yes"/>
			<point x="320" y="206"/>
			<point x="334" y="192"/>
			<point x="352" y="192" type="curve" smooth="yes"/>
			<point x="370" y="192"/>
			<point x="384" y="176"/>
			<point x="384" y="156" type="curve" smooth="yes"/>
			<point x="384" y="36" type="line" smooth="yes"/>
			<point x="384" y="16"/>
			<point x="400" y="0"/>
			<point x="420" y="0" type="curve" smooth="yes"/>
			<point x="476" y="0" type="line" smooth="yes"/>
			<point x="496" y="0"/>
			<point x="512" y="14"/>
		</contour>
		<contour>
			<point x="448" y="416" type="curve" smooth="yes"/>
			<point x="448" y="435"/>
			<point x="462" y="448"/>
			<point x="480" y="448" type="curve" smooth="yes"/>
			<point x="498" y="448"/>
			<point x="512" y="464"/>
			<point x="512" y="484" type="curve" smooth="yes"/>
			<point x="512" y="668" type="line" smooth="yes"/>
			<point x="512" y="688"/>
			<point x="498" y="704"/>
			<point x="480" y="704" type="curve" smooth="yes"/>
			<point x="462" y="704"/>
			<point x="448" y="690"/>
			<point x="448" y="672" type="curve" smooth="yes"/>
			<point x="448" y="654"/>
			<point x="434" y="640"/>
			<point x="416" y="640" type="curve" smooth="yes"/>
			<point x="398" y="640"/>
			<point x="384" y="624"/>
			<point x="384" y="604" type="curve" smooth="yes"/>
			<point x="384" y="420" type="line" smooth="yes"/>
			<point x="384" y="400"/>
			<point x="398" y="384"/>
			<point x="416" y="384" type="curve" smooth="yes"/>
			<point x="434" y="384"/>
			<point x="448" y="398"/>
		</contour>
	</outline>
</glyph>
<glyph name="Y" format="2">
	<advance width="640"/>
	<unicode hex="0059"/>
	<anchor x="320" y="0" name="bottom"/>
	<anchor x="320" y="704" name="top"/>
	<anchor x="20" y="704" name="topleft"/>
	<note>
		Y
	</note>
	<outline>
		<contour>
			<point x="384" y="32" type="curve" smooth="yes"/>
			<point x="384" y="51"/>
			<point x="398" y="64"/>
			<point x="416" y="64" type="curve" smooth="yes"/>
			<point x="434" y="64"/>
			<point x="448" y="78"/>
			<point x="448" y="96" type="curve" smooth="yes"/>
			<point x="448" y="114"/>
			<point x="434" y="128"/>
			<point x="416" y="128" type="curve" smooth="yes"/>
			<point x="398" y="128"/>
			<point x="384" y="144"/>
			<point x="384" y="164" type="curve" smooth="yes"/>
			<point x="384" y="284" type="line" smooth="yes"/>
			<point x="384" y="304"/>
			<point x="370" y="320"/>
			<point x="352" y="320" type="curve" smooth="yes"/>
			<point x="334" y="320"/>
			<point x="320" y="334"/>
			<point x="320" y="352" type="curve" smooth="yes"/>
			<point x="320" y="370"/>
			<point x="306" y="384"/>
			<point x="288" y="384" type="curve" smooth="yes"/>
			<point x="270" y="384"/>
			<point x="256" y="398"/>
			<point x="256" y="416" type="curve" smooth="yes"/>
			<point x="256" y="434"/>
			<point x="242" y="448"/>
			<point x="224" y="448" type="curve" smooth="yes"/>
			<point x="206" y="448"/>
			<point x="192" y="464"/>
			<point x="192" y="484" type="curve" smooth="yes"/>
			<point x="192" y="668" type="line" smooth="yes"/>
			<point x="192" y="688"/>
			<point x="178" y="704"/>
			<point x="160" y="704" type="curve" smooth="yes"/>
			<point x="142" y="704"/>
			<point x="128" y="690"/>
			<point x="128" y="672" type="curve" smooth="yes"/>
			<point x="128" y="654"/>
			<point x="114" y="640"/>
			<point x="96" y="640" type="curve" smooth="yes"/>
			<point x="78" y="640"/>
			<point x="64" y="626"/>
			<point x="64" y="608" type="curve" smooth="yes"/>
			<point x="64" y="590"/>
			<point x="50" y="576"/>
			<point x="32" y="576" type="curve" smooth="yes"/>
			<point x="14" y="576"/>
			<point x="0" y="562"/>
			<point x="0" y="544" type="curve" smooth="yes"/>
			<point x="0" y="526"/>
			<point x="14" y="512"/>
			<point x="32" y="512" type="curve" smooth="yes"/>
			<point x="50" y="512"/>
			<point x="64" y="496"/>
			<point x="64" y="476" type="curve" smooth="yes"/>
			<point x="64" y="420" type="line" smooth="yes"/>
			<point x="64" y="400"/>
			<point x="78" y="384"/>
			<point x="96" y="384" type="curve" smooth="yes"/>
			<point x="114" y="384"/>
			<point x="128" y="370"/>
			<point x="128" y="352" type="curve" smooth="yes"/>
			<point x="128" y="334"/>
			<point x="142" y="320"/>
			<point x="160" y="320" type="curve" smooth="yes"/>
			<point x="178" y="320"/>
			<point x="192" y="306"/>
			<point x="192" y="288" type="curve" smooth="yes"/>
			<point x="192" y="270"/>
			<point x="206" y="256"/>
			<point x="224" y="256" type="curve" smooth="yes"/>
			<point x="242" y="256"/>
			<point x="256" y="240"/>
			<point x="256" y="220" type="curve" smooth="yes"/>
			<point x="256" y="36" type="line" smooth="yes"/>
			<point x="256" y="16"/>
			<point x="272" y="0"/>
			<point x="292" y="0" type="curve" smooth="yes"/>
			<point x="348" y="0" type="line" smooth="yes"/>
			<point x="368" y="0"/>
			<point x="384" y="14"/>
		</contour>
		<contour>
			<point x="448" y="352" type="curve" smooth="yes"/>
			<point x="448" y="371"/>
			<point x="434" y="384"/>
			<point x="416" y="384" type="curve" smooth="yes"/>
			<point x="398" y="384"/>
			<point x="384" y="370"/>
			<point x="384" y="352" type="curve" smooth="yes"/>
			<point x="384" y="334"/>
			<point x="398" y="320"/>
			<point x="416" y="320" type="curve" smooth="yes"/>
			<point x="434" y="320"/>
			<point x="448" y="334"/>
		</contour>
		<contour>
			<point x="512" y="416" type="curve" smooth="yes"/>
			<point x="512" y="435"/>
			<point x="526" y="448"/>
			<point x="544" y="448" type="curve" smooth="yes"/>
			<point x="562" y="448"/>
			<point x="576" y="464"/>
			<point x="576" y="484" type="curve" smooth="yes"/>
			<point x="576" y="668" type="line" smooth="yes"/>
			<point x="576" y="688"/>
			<point x="562" y="704"/>
			<point x="544" y="704" type="curve" smooth="yes"/>
			<point x="526" y="704"/>
			<point x="512" y="690"/>
			<point x="512" y="672" type="curve" smooth="yes"/>
			<point x="512" y="654"/>
			<point x="498" y="640"/>
			<point x="480" y="640" type="curve" smooth="yes"/>
			<point x="462" y="640"/>
			<point x="448" y="624"/>
			<point x="448" y="604" type="curve" smooth="yes"/>
			<point x="448" y="420" type="line" smooth="yes"/>
			<point x="448" y="400"/>
			<point x="462" y="384"/>
			<point x="480" y="384" type="curve" smooth="yes"/>
			<point x="498" y="384"/>
			<point x="512" y="398"/>
		</contour>
	</outline>
</glyph>
<glyph name="Z" format="2">
	<advance width="576"/>
	<unicode hex="005A"/>
	<note>
		Z
	</note>
	<outline>
		<contour>
			<point x="64" y="544" type="curve" smooth="yes"/>
			<point x="64" y="563"/>
			<point x="50" y="576"/>
			<point x="32" y="576" type="curve" smooth="yes"/>
			<point x="14" y="576"/>
			<point x="0" y="562"/>
			<point x="0" y="544" type="curve" smooth="yes"/>
			<point x="0" y="526"/>
			<point x="14" y="512"/>
			<point x="32" y="512" type="curve" smooth="yes"/>
			<point x="50" y="512"/>
			<point x="64" y="526"/>
		</contour>
		<contour>
			<point x="384" y="32" type="curve" smooth="yes"/>
			<point x="384" y="51"/>
			<point x="398" y="64"/>
			<point x="416" y="64" type="curve" smooth="yes"/>
			<point x="434" y="64"/>
			<point x="448" y="78"/>
			<point x="448" y="96" type="curve" smooth="yes"/>
			<point x="448" y="114"/>
			<point x="432" y="128"/>
			<point x="412" y="128" type="curve" smooth="yes"/>
			<point x="164" y="128" type="line" smooth="yes"/>
			<point x="144" y="128"/>
			<point x="128" y="144"/>
			<point x="128" y="164" type="curve" smooth="yes"/>
			<point x="128" y="220" type="line" smooth="yes"/>
			<point x="128" y="240"/>
			<point x="114" y="256"/>
			<point x="96" y="256" type="curve" smooth="yes"/>
			<point x="78" y="256"/>
			<point x="64" y="242"/>
			<point x="64" y="224" type="curve" smooth="yes"/>
			<point x="64" y="206"/>
			<point x="50" y="192"/>
			<point x="32" y="192" type="curve" smooth="yes"/>
			<point x="14" y="192"/>
			<point x="0" y="176"/>
			<point x="0" y="156" type="curve" smooth="yes"/>
			<point x="0" y="100" type="line" smooth="yes"/>
			<point x="0" y="80"/>
			<point x="14" y="64"/>
			<point x="32" y="64" type="curve" smooth="yes"/>
			<point x="50" y="64"/>
			<point x="64" y="50"/>
			<point x="64" y="32" type="curve" smooth="yes"/>
			<point x="64" y="14"/>
			<point x="80" y="0"/>
			<point x="100" y="0" type="curve" smooth="yes"/>
			<point x="348" y="0" type="line" smooth="yes"/>
			<point x="368" y="0"/>
			<point x="384" y="14"/>
		</contour>
		<contour>
			<point x="512" y="160" type="curve" smooth="yes"/>
			<point x="512" y="179"/>
			<point x="498" y="192"/>
			<point x="480" y="192" type="curve" smooth="yes"/>
			<point x="462" y="192"/>
			<point x="448" y="178"/>
			<point x="448" y="160" type="curve" smooth="yes"/>
			<point x="448" y="142"/>
			<point x="462" y="128"/>
			<point x="480" y="128" type="curve" smooth="yes"/>
			<point x="498" y="128"/>
			<point x="512" y="142"/>
		</contour>
		<contour>
			<point x="192" y="288" type="curve" smooth="yes"/>
			<point x="192" y="307"/>
			<point x="208" y="320"/>
			<point x="228" y="320" type="curve" smooth="yes"/>
			<point x="348" y="320" type="line" smooth="yes"/>
			<point x="368" y="320"/>
			<point x="384" y="334"/>
			<point x="384" y="352" type="curve" smooth="yes"/>
			<point x="384" y="370"/>
			<point x="370" y="384"/>
			<point x="352" y="384" type="curve" smooth="yes"/>
			<point x="334" y="384"/>
			<point x="320" y="398"/>
			<point x="320" y="416" type="curve" smooth="yes"/>
			<point x="320" y="434"/>
			<point x="306" y="448"/>
			<point x="288" y="448" type="curve" smooth="yes"/>
			<point x="270" y="448"/>
			<point x="256" y="434"/>
			<point x="256" y="416" type="curve" smooth="yes"/>
			<point x="256" y="398"/>
			<point x="240" y="384"/>
			<point x="220" y="384" type="curve" smooth="yes"/>
			<point x="100" y="384" type="line" smooth="yes"/>
			<point x="80" y="384"/>
			<point x="64" y="370"/>
			<point x="64" y="352" type="curve" smooth="yes"/>
			<point x="64" y="334"/>
			<point x="78" y="320"/>
			<point x="96" y="320" type="curve" smooth="yes"/>
			<point x="114" y="320"/>
			<point x="128" y="306"/>
			<point x="128" y="288" type="curve" smooth="yes"/>
			<point x="128" y="270"/>
			<point x="142" y="256"/>
			<point x="160" y="256" type="curve" smooth="yes"/>
			<point x="178" y="256"/>
			<point x="192" y="270"/>
		</contour>
		<contour>
			<point x="384" y="480" type="curve" smooth="yes"/>
			<point x="384" y="499"/>
			<point x="370" y="512"/>
			<point x="352" y="512" type="curve" smooth="yes"/>
			<point x="334" y="512"/>
			<point x="320" y="498"/>
			<point x="320" y="480" type="curve" smooth="yes"/>
			<point x="320" y="462"/>
			<point x="334" y="448"/>
			<point x="352" y="448" type="curve" smooth="yes"/>
			<point x="370" y="448"/>
			<point x="384" y="462"/>
		</contour>
		<contour>
			<point x="448" y="544" type="curve" smooth="yes"/>
			<point x="448" y="563"/>
			<point x="462" y="576"/>
			<point x="480" y="576" type="curve" smooth="yes"/>
			<point x="498" y="576"/>
			<point x="512" y="590"/>
			<point x="512" y="608" type="curve" smooth="yes"/>
			<point x="512" y="626"/>
			<point x="498" y="640"/>
			<point x="480" y="640" type="curve" smooth="yes"/>
			<point x="462" y="640"/>
			<point x="448" y="654"/>
			<point x="448" y="672" type="curve" smooth="yes"/>
			<point x="448" y="690"/>
			<point x="432" y="704"/>
			<point x="412" y="704" type="curve" smooth="yes"/>
			<point x="164" y="704" type="line" smooth="yes"/>
			<point x="144" y="704"/>
			<point x="128" y="690"/>
			<point x="128" y="672" type="curve" smooth="yes"/>
			<point x="128" y="654"/>
			<point x="114" y="640"/>
			<point x="96" y="640" type="curve" smooth="yes"/>
			<point x="78" y="640"/>
			<point x="64" y="626"/>
			<point x="64" y="608" type="curve" smooth="yes"/>
			<point x="64" y="590"/>
			<point x="80" y="576"/>
			<point x="100" y="576" type="curve" smooth="yes"/>
			<point x="348" y="576" type="line" smooth="yes"/>
			<point x="368" y="576"/>
			<point x="384" y="562"/>
			<point x="384" y="544" type="curve" smooth="yes"/>
			<point x="384" y="526"/>
			<point x="398" y="512"/>
			<point x="416" y="512" type="curve" smooth="yes"/>
			<point x="434" y="512"/>
			<point x="448" y="526"/>
		</contour>
	</outline>
</glyph>
<glyph name="bracketleft" format="2">
	<advance width="384"/>
	<unicode hex="005B"/>
	<note>
		bracketleft
	</note>
	<outline>
		<contour>
			<point x="192" y="-28" type="curve" smooth="yes"/>
			<point x="192" y="604" type="line" smooth="yes"/>
			<point x="192" y="624"/>
			<point x="208" y="640"/>
			<point x="228" y="640" type="curve" smooth="yes"/>
			<point x="284" y="640" type="line" smooth="yes"/>
			<point x="304" y="640"/>
			<point x="320" y="654"/>
			<point x="320" y="672" type="curve" smooth="yes"/>
			<point x="320" y="690"/>
			<point x="304" y="704"/>
			<point x="284" y="704" type="curve" smooth="yes"/>
			<point x="100" y="704" type="line" smooth="yes"/>
			<point x="80" y="704"/>
			<point x="64" y="688"/>
			<point x="64" y="668" type="curve" smooth="yes"/>
			<point x="64" y="-92" type="line" smooth="yes"/>
			<point x="64" y="-112"/>
			<point x="80" y="-128"/>
			<point x="100" y="-128" type="curve" smooth="yes"/>
			<point x="284" y="-128" type="line" smooth="yes"/>
			<point x="304" y="-128"/>
			<point x="320" y="-114"/>
			<point x="320" y="-96" type="curve" smooth="yes"/>
			<point x="320" y="-78"/>
			<point x="304" y="-64"/>
			<point x="284" y="-64" type="curve" smooth="yes"/>
			<point x="228" y="-64" type="line" smooth="yes"/>
			<point x="208" y="-64"/>
			<point x="192" y="-48"/>
		</contour>
	</outline>
</glyph>
<glyph name="backslash" format="2">
	<advance width="704"/>
	<unicode hex="005C"/>
	<note>
		backslash
	</note>
	<outline>
		<contour>
			<point x="640" y="36" type="curve" smooth="yes"/>
			<point x="640" y="92" type="line" smooth="yes"/>
			<point x="640" y="112"/>
			<point x="626" y="128"/>
			<point x="608" y="128" type="curve" smooth="yes"/>
			<point x="590" y="128"/>
			<point x="576" y="142"/>
			<point x="576" y="160" type="curve" smooth="yes"/>
			<point x="576" y="178"/>
			<point x="562" y="192"/>
			<point x="544" y="192" type="curve" smooth="yes"/>
			<point x="526" y="192"/>
			<point x="512" y="206"/>
			<point x="512" y="224" type="curve" smooth="yes"/>
			<point x="512" y="242"/>
			<point x="498" y="256"/>
			<point x="480" y="256" type="curve" smooth="yes"/>
			<point x="462" y="256"/>
			<point x="448" y="270"/>
			<point x="448" y="288" type="curve" smooth="yes"/>
			<point x="448" y="306"/>
			<point x="434" y="320"/>
			<point x="416" y="320" type="curve" smooth="yes"/>
			<point x="398" y="320"/>
			<point x="384" y="334"/>
			<point x="384" y="352" type="curve" smooth="yes"/>
			<point x="384" y="370"/>
			<point x="370" y="384"/>
			<point x="352" y="384" type="curve" smooth="yes"/>
			<point x="334" y="384"/>
			<point x="320" y="398"/>
			<point x="320" y="416" type="curve" smooth="yes"/>
			<point x="320" y="434"/>
			<point x="306" y="448"/>
			<point x="288" y="448" type="curve" smooth="yes"/>
			<point x="270" y="448"/>
			<point x="256" y="462"/>
			<point x="256" y="480" type="curve" smooth="yes"/>
			<point x="256" y="498"/>
			<point x="242" y="512"/>
			<point x="224" y="512" type="curve" smooth="yes"/>
			<point x="206" y="512"/>
			<point x="192" y="526"/>
			<point x="192" y="544" type="curve" smooth="yes"/>
			<point x="192" y="562"/>
			<point x="178" y="576"/>
			<point x="160" y="576" type="curve" smooth="yes"/>
			<point x="142" y="576"/>
			<point x="128" y="590"/>
			<point x="128" y="608" type="curve" smooth="yes"/>
			<point x="128" y="626"/>
			<point x="112" y="640"/>
			<point x="92" y="640" type="curve" smooth="yes"/>
			<point x="36" y="640" type="line" smooth="yes"/>
			<point x="16" y="640"/>
			<point x="0" y="624"/>
			<point x="0" y="604" type="curve" smooth="yes"/>
			<point x="0" y="548" type="line" smooth="yes"/>
			<point x="0" y="528"/>
			<point x="14" y="512"/>
			<point x="32" y="512" type="curve" smooth="yes"/>
			<point x="50" y="512"/>
			<point x="64" y="498"/>
			<point x="64" y="480" type="curve" smooth="yes"/>
			<point x="64" y="462"/>
			<point x="78" y="448"/>
			<point x="96" y="448" type="curve" smooth="yes"/>
			<point x="114" y="448"/>
			<point x="128" y="434"/>
			<point x="128" y="416" type="curve" smooth="yes"/>
			<point x="128" y="398"/>
			<point x="142" y="384"/>
			<point x="160" y="384" type="curve" smooth="yes"/>
			<point x="178" y="384"/>
			<point x="192" y="370"/>
			<point x="192" y="352" type="curve" smooth="yes"/>
			<point x="192" y="334"/>
			<point x="206" y="320"/>
			<point x="224" y="320" type="curve" smooth="yes"/>
			<point x="242" y="320"/>
			<point x="256" y="306"/>
			<point x="256" y="288" type="curve" smooth="yes"/>
			<point x="256" y="270"/>
			<point x="270" y="256"/>
			<point x="288" y="256" type="curve" smooth="yes"/>
			<point x="306" y="256"/>
			<point x="320" y="242"/>
			<point x="320" y="224" type="curve" smooth="yes"/>
			<point x="320" y="206"/>
			<point x="334" y="192"/>
			<point x="352" y="192" type="curve" smooth="yes"/>
			<point x="370" y="192"/>
			<point x="384" y="178"/>
			<point x="384" y="160" type="curve" smooth="yes"/>
			<point x="384" y="142"/>
			<point x="398" y="128"/>
			<point x="416" y="128" type="curve" smooth="yes"/>
			<point x="434" y="128"/>
			<point x="448" y="114"/>
			<point x="448" y="96" type="curve" smooth="yes"/>
			<point x="448" y="78"/>
			<point x="462" y="64"/>
			<point x="480" y="64" type="curve" smooth="yes"/>
			<point x="498" y="64"/>
			<point x="512" y="50"/>
			<point x="512" y="32" type="curve" smooth="yes"/>
			<point x="512" y="14"/>
			<point x="528" y="0"/>
			<point x="548" y="0" type="curve" smooth="yes"/>
			<point x="604" y="0" type="line" smooth="yes"/>
			<point x="624" y="0"/>
			<point x="640" y="16"/>
		</contour>
	</outline>
</glyph>
